<?xml version="1.0" encoding="utf-8"?>
<!-- Generator: Adobe Illustrator 16.0.0, SVG Export Plug-In . SVG Version: 6.00 Build 0)  -->
<svg version="1.2" baseProfile="tiny" id="Layer_1" xmlns="http://www.w3.org/2000/svg" xmlns:xlink="http://www.w3.org/1999/xlink"
	 x="0px" y="0px" width="283.465px" height="283.465px" viewBox="0 0 283.465 283.465" xml:space="preserve">
<path fill="#63e8ff" d="M217.716,113.998c-1.364-2.251-3.264-3.734-5.296-5.247c-1.526-1.135-3.313-1.827-4.703-3.211
	c-1.62-1.612-2.298-3.234-2.306-5.519c-0.012-3.462,0.112-6.922,0.015-10.386c-0.131-4.694-0.352-9.384-0.551-14.077
	c-0.166-3.871-0.356-7.734-0.785-11.59c-0.498-4.474-1.329-8.346-4.446-11.956c-2.137-2.474-3.135-5.676-6.072-7.679
	c-0.415-0.283-0.835-0.554-1.263-0.815c-0.861-0.523-1.743-1-2.653-1.432c-0.91-0.432-1.836-0.814-2.785-1.15
	c-0.472-0.167-0.948-0.321-1.428-0.463c-0.123-0.037-0.215-0.148-0.372-0.1c-2.165,0.663-3.946-0.198-5.906-0.553
	c-3.527-0.641-7.07-1.129-10.631-1.528c-16.247-1.821-32.271-1.94-48.546-0.507c-3.822,0.336-7.627,0.764-11.422,1.33
	c-1.593,0.237-3.182,0.5-4.765,0.794c-0.75,0.139-1.499,0.285-2.245,0.439c-0.735,0.152-1.346,0.694-2.219,0.318
	c-0.408-0.176-0.76-0.361-1.245-0.22c-0.234,0.069-0.468,0.14-0.7,0.215c-0.466,0.149-0.928,0.31-1.387,0.483
	c-0.921,0.347-1.817,0.737-2.698,1.176c-0.881,0.438-1.733,0.917-2.565,1.441c-0.414,0.261-0.82,0.532-1.221,0.813
	c-0.798,0.561-1.45,1.235-2.063,1.981c-1.572,1.914-2.559,4.193-4.193,6.072c-4.313,4.957-4.318,14.993-4.585,20.5
	c-0.344,7.103-0.714,14.2-0.745,21.317c-0.014,3.179,0.891,6.217-0.922,9.411c-1.197,2.109-3.155,2.949-4.97,4.169
	c-2.484,1.67-4.78,3.265-6.34,6.014c-0.293,0.516-0.321,0.943-0.099,1.493c0.216,0.535,0.524,0.822,1.075,0.996
	c0.258,0.083,0.504,0.102,0.773,0.062c0.124-0.018,0.241-0.049,0.358-0.093c2.128-0.807,4.242-1.649,6.364-2.474
	c1.119-0.435,2.238-0.869,3.358-1.303c0.996-0.387,1.977-0.452,1.951,0.864c-0.002,0.128-0.003,0.255-0.006,0.383
	c-0.005,0.255-0.01,0.511-0.014,0.765c-0.01,0.511-0.02,1.021-0.029,1.531c-0.001,0.098-0.003,0.194-0.005,0.292
	c-0.364,8.508-0.319,17.017-0.479,25.525c-0.036,1.899-0.072,3.797-0.107,5.695c-0.053,2.761-0.104,5.522-0.156,8.284
	c-0.065,3.475-0.129,6.95-0.195,10.424c-0.008,0.41-0.015,0.818-0.023,1.227c-0.065,3.455-0.129,6.911-0.194,10.365
	c-0.015,0.798-0.029,1.596-0.044,2.394c-0.002,0.071-0.003,0.144-0.004,0.215c-0.026,1.368-0.052,2.736-0.077,4.104
	c-0.005,0.251-0.01,0.501-0.014,0.752c-0.002,0.103-0.004,0.206-0.006,0.308c-0.025,1.406-0.178,2.798-0.321,4.192
	c-0.019,0.104-0.039,0.205-0.051,0.31c-0.106,0.916-0.157,1.833-0.188,2.751c-0.002,0.068-0.01,0.135-0.012,0.202
	c0,0.015,0.002,0.025,0.002,0.041c-0.002,0.086-0.009,0.173-0.011,0.26c-0.054,2.164-0.014,4.327,0.017,6.491
	c0.115,8.013,0.243,16.025,0.52,24.035c0.113,3.251,0.173,6.495,0.627,9.732c0.217,1.549,0.535,3.041,1.113,4.506
	c0.271,0.688,0.791,1.22,1.041,1.923c0.845,2.384,2.139,3.579,4.582,4.235c1.727,0.464,3.459,0.381,5.196,0.506
	c6.562,0.472,13.126,0.838,19.701,1.085c17.764,0.666,35.505,0.664,53.271,0.27c4.546-0.101,29.323-0.902,33.868-1.744
	c1.476-0.273,2.583-0.87,3.621-1.954c0.487-0.508,0.872-1.059,1.182-1.69c0.767-1.567,1.577-3.089,2.006-4.814
	c0.984-3.955,0.927-7.905,1.067-11.896c0.319-9.11,0.505-18.219,0.557-27.335c0.005-0.969-0.027-1.934-0.068-2.899
	c0.017-0.249,0.053-0.474,0.045-0.75c-0.041-1.339-0.187-2.667-0.323-3.997c-0.128-1.861-0.255-3.723-0.29-5.591
	c-0.008-0.429-0.016-0.858-0.023-1.287c-0.027-1.452-0.055-2.904-0.082-4.355c-0.064-3.455-0.129-6.91-0.194-10.365
	c-0.161-8.543-0.321-17.086-0.481-25.629c-0.161-8.542-0.114-17.086-0.482-25.628c-0.006-0.143-0.038-0.267-0.057-0.4
	c-0.088-1.271-0.162-3.268,0.455-3.595c0.148-0.079,0.29-0.11,0.457-0.1c0.079,0.005,0.152,0.021,0.227,0.046
	c1.201,0.415,2.366,0.918,3.548,1.377c2.345,0.911,4.656,1.905,7.035,2.733c0.146,0.051,0.293,0.082,0.448,0.092
	c0.752,0.051,1.19-0.175,1.584-0.817C218.107,115.142,218.109,114.647,217.716,113.998z M185.153,50.767
	c2.772,1.053,4.068,2.867,5.201,5.422c2.217,5,2.397,9.936,2.369,15.19c-0.004,0.797,0.217,1.566-0.12,2.384
	c-0.118,0.285-0.285,0.459-0.565,0.589c-0.282,0.13-0.525,0.144-0.819,0.047c-1.243-0.411-2.048-1.333-3.049-2.035
	c-2.291-1.604-3.676-3.428-4.463-6.135c-1.441-4.955-2.881-9.91-4.341-14.86C178.32,47.824,183.075,49.978,185.153,50.767z
	 M119.214,85.717c11.394-1.13,22.712-1.387,34.145-0.811c5.714,0.287,11.397,0.79,17.073,1.515c2.835,0.362,5.661,0.778,8.48,1.256
	c2.866,0.485,5.407,1.051,7.688,3.166c5.505,5.103,3.442,10.195,2.47,16.057c-0.929,5.604-1.952,11.19-3.052,16.764
	c-0.551,2.795-1.125,5.585-1.721,8.371c-0.47,2.201-0.843,6.065-3.058,7.746c-2.35,1.784-5.931,0.912-8.283,0.714
	c-2.839-0.239-5.681-0.438-8.525-0.604c-11.395-0.664-22.764-0.798-34.171-0.482c-5.702,0.158-11.393,0.442-17.081,0.871
	c-6.278,0.474-11.726,2.349-13.543-5.969c-2.432-11.133-4.525-22.313-6.247-33.579c-0.906-5.93,3.028-11.517,8.916-12.664
	C107.908,86.977,113.543,86.279,119.214,85.717z M86.261,175.232c-0.018-6.531-0.035-13.064-0.052-19.596
	c-0.017-6.531-0.033-13.063-0.048-19.596c-0.011-4.472-0.283-8.936-0.028-13.416c0.007-0.125,0.027-0.247,0.062-0.368
	c0.078-0.269,0.203-0.488,0.396-0.692c0.414-0.436,0.86-0.514,1.417-0.528c1.348-0.036,2.199,0.232,2.461,1.71
	c1.149,6.432,2.413,12.837,3.783,19.227c1.393,6.501,1.231,12.964,1.294,19.498c0.063,6.531,0.112,13.063,0.167,19.595
	c0.03,3.58,0.085,7.159,0.099,10.738c0.001,0.356-0.015,0.708-0.055,1.063c-0.059,0.521-0.15,0.986-0.48,1.428
	c-0.464,0.62-0.975,0.857-1.734,0.899c-1.083,0.059-3.1,0.183-4.062-0.758c-0.898-0.879-0.763-1.915-0.948-2.949
	c-0.569-3.192-1.14-6.385-1.709-9.578C86.429,179.692,86.268,177.481,86.261,175.232z M90.719,71.379
	c-0.028-5.255,0.152-10.19,2.369-15.19c1.134-2.557,2.433-4.372,5.208-5.424c2.076-0.787,6.826-2.938,5.782,0.604
	c-1.46,4.95-2.9,9.905-4.342,14.86c-0.788,2.708-2.172,4.532-4.463,6.135c-1.001,0.701-1.807,1.624-3.049,2.035
	c-0.295,0.097-0.538,0.083-0.819-0.047c-0.28-0.13-0.448-0.305-0.565-0.589C90.502,72.946,90.723,72.176,90.719,71.379z
	 M190.107,231.099c-0.128,0.149-0.271,0.249-0.455,0.318c-0.086,0.033-0.174,0.054-0.266,0.065
	c-2.735,0.316-5.436,0.005-8.153,0.003c-8.5-0.003-17.001-0.004-25.501-0.004c-17.001-0.001-34.003-0.003-51.004,0.003
	c-3.522,0-7.043,0.075-10.566,0.004c-0.078-0.001-0.154-0.011-0.23-0.029c-0.163-0.038-0.301-0.103-0.432-0.205
	c-0.282-0.218-0.406-0.451-0.431-0.806c-0.054-0.779,0.472-1.143,0.835-1.662c0.727-1.037,1.504-2.026,2.331-2.985
	c1.715-1.988,3.435-3.567,6.059-4.38c3.492-1.083,21.939-1.566,25.411-1.665c17.035-0.488,33.981-0.091,50.975,1.195
	c3.273,0.248,5.487,1.504,7.661,3.877c0.995,1.085,1.93,2.21,2.798,3.4c0.432,0.591,0.978,1.073,1.195,1.837
	C190.451,230.481,190.387,230.771,190.107,231.099z M193.961,194.437c-0.962,0.941-2.978,0.817-4.062,0.758
	c-0.76-0.042-1.271-0.28-1.734-0.899c-0.331-0.442-0.422-0.907-0.481-1.428c-0.04-0.354-0.056-0.707-0.055-1.063
	c0.014-3.58,0.068-7.159,0.099-10.738c0.055-6.532,0.104-13.064,0.167-19.595c0.063-6.534-0.099-12.997,1.294-19.498
	c1.369-6.389,2.634-12.795,3.783-19.227c0.263-1.478,1.113-1.746,2.461-1.71c0.557,0.014,1.003,0.092,1.417,0.528
	c0.194,0.204,0.319,0.423,0.396,0.692c0.035,0.122,0.055,0.243,0.063,0.368c0.254,4.48-0.018,8.944-0.029,13.416
	c-0.015,6.532-0.032,13.064-0.049,19.596c-0.017,6.532-0.033,13.065-0.052,19.596c-0.005,2.249-0.167,4.46-0.562,6.677
	c-0.569,3.193-1.139,6.386-1.709,9.578C194.725,192.522,194.858,193.558,193.961,194.437z"/>
</svg>
