<?xml version="1.0" encoding="utf-8"?>
<!-- Generator: Adobe Illustrator 16.0.0, SVG Export Plug-In . SVG Version: 6.00 Build 0)  -->
<svg version="1.2" baseProfile="tiny" id="Layer_1" xmlns="http://www.w3.org/2000/svg" xmlns:xlink="http://www.w3.org/1999/xlink"
	 x="0px" y="0px" width="283.465px" height="283.465px" viewBox="0 0 283.465 283.465" xml:space="preserve">
<path fill="#ffffff" d="M65.83,115.79c0.395,0.642,0.833,0.868,1.586,0.817c0.154-0.011,0.302-0.042,0.448-0.092
	c2.378-0.83,4.688-1.823,7.033-2.733c1.184-0.459,2.349-0.962,3.549-1.378c0.075-0.025,0.148-0.041,0.228-0.045
	c0.167-0.01,0.309,0.021,0.456,0.099c0.617,0.327,0.543,2.322,0.455,3.595c-0.02,0.133-0.05,0.258-0.057,0.401
	c-0.368,8.541-0.321,17.086-0.481,25.628c-0.16,8.543-0.321,17.086-0.481,25.629c-0.063,3.456-0.128,6.911-0.193,10.366
	c-0.032,1.728-0.065,3.456-0.098,5.183c-0.003,0.155-0.006,0.31-0.009,0.466c-0.035,1.866-0.16,3.727-0.29,5.586
	c-0.136,1.328-0.282,2.655-0.322,3.993c-0.009,0.276,0.028,0.502,0.044,0.75c-0.041,0.965-0.073,1.932-0.067,2.9
	c0.052,9.115,0.238,18.226,0.556,27.335c0.142,3.991,0.084,7.941,1.067,11.896c0.43,1.726,1.239,3.248,2.008,4.814
	c0.31,0.632,0.693,1.182,1.181,1.69c1.039,1.083,2.145,1.68,3.62,1.954c4.546,0.842,29.322,1.643,33.868,1.744
	c17.766,0.393,35.508,0.396,53.271-0.27c6.575-0.247,13.14-0.614,19.7-1.085c1.737-0.125,3.471-0.042,5.196-0.506
	c2.444-0.656,3.736-1.852,4.583-4.236c0.248-0.703,0.769-1.234,1.041-1.922c0.577-1.465,0.896-2.957,1.113-4.506
	c0.453-3.238,0.514-6.481,0.626-9.732c0.276-8.01,0.404-16.022,0.52-24.035c0.032-2.164,0.071-4.327,0.017-6.491
	c-0.026-1.088-0.082-2.171-0.208-3.254c-0.078-0.663-0.313-1.292-0.325-1.972c-0.003-0.171-0.007-0.342-0.01-0.513
	c-0.007-0.342-0.013-0.684-0.02-1.026c-0.013-0.685-0.025-1.368-0.038-2.052c-0.026-1.368-0.051-2.737-0.078-4.105
	c-0.05-2.736-0.102-5.472-0.152-8.208c-0.104-5.473-0.206-10.945-0.309-16.417c-0.152-8.164-0.306-16.327-0.459-24.489
	c-0.003-0.155-0.006-0.31-0.009-0.464c3.21,2.236,6.409,4.487,9.625,6.718c0.62,0.431,1.252,0.842,1.898,1.234
	c1.381,0.837,2.809,1.563,4.278,2.229c7.78,3.525,15.589,6.987,23.401,10.444c4.681,2.072,9.366,4.135,14.048,6.208
	c1.973,0.874,3.887,1.87,5.932,2.592c1.253,0.443,2.398,0.66,3.74,0.338c1.776-0.425,2.822-1.282,3.673-2.88
	c0.222-0.417,0.416-0.837,0.536-1.299c0.517-1.991-0.151-8.407-0.237-10.319c-0.144-3.232,0.176-6.08-3.632-7.598
	c-2.319-0.926-4.753-1.492-7.065-2.446c-0.798-0.329-1.597-0.659-2.395-0.988c-1.598-0.658-3.196-1.317-4.794-1.976
	c-3.194-1.317-6.39-2.635-9.584-3.952c-7.899-3.258-15.798-6.515-23.697-9.773c-5.328-2.197-10.621-4.474-15.951-6.668
	c0.269-0.649,1.048-0.56,1.848-0.249c1.119,0.435,2.238,0.869,3.356,1.304c2.122,0.824,4.236,1.667,6.363,2.474
	c0.117,0.044,0.234,0.075,0.359,0.093c0.268,0.04,0.514,0.021,0.773-0.062c0.549-0.174,0.859-0.461,1.074-0.996
	c0.223-0.55,0.193-0.978-0.1-1.493c-1.561-2.749-3.856-4.344-6.34-6.014c-1.814-1.221-3.773-2.061-4.97-4.169
	c-1.813-3.194-0.908-6.231-0.922-9.411c-0.031-7.116-0.4-14.214-0.745-21.316c-0.267-5.507-0.271-15.543-4.584-20.5
	c-1.636-1.878-2.623-4.158-4.194-6.072c-0.612-0.747-1.265-1.42-2.063-1.981c-0.4-0.282-0.807-0.552-1.221-0.813
	c-0.831-0.524-1.685-1.004-2.565-1.441c-0.88-0.438-1.778-0.83-2.699-1.177c-0.458-0.172-0.919-0.333-1.387-0.482
	c-0.231-0.075-0.466-0.146-0.7-0.215c-0.483-0.142-0.837,0.044-1.245,0.22c-0.873,0.375-1.484-0.166-2.218-0.318
	c-0.747-0.154-1.495-0.301-2.246-0.44c-1.583-0.293-3.171-0.556-4.764-0.793c-3.796-0.566-7.602-0.993-11.423-1.33
	c-16.275-1.433-32.3-1.314-48.547,0.506c-3.562,0.4-7.104,0.888-10.632,1.529c-1.96,0.355-3.739,1.216-5.905,0.553
	c-0.156-0.048-0.248,0.063-0.371,0.1c-0.481,0.142-0.957,0.296-1.428,0.463c-0.95,0.336-1.877,0.718-2.786,1.15
	c-0.91,0.432-1.791,0.908-2.652,1.432c-0.428,0.261-0.849,0.532-1.264,0.814c-2.938,2.002-3.935,5.205-6.072,7.679
	c-3.116,3.609-3.948,7.481-4.446,11.956c-0.428,3.856-0.617,7.719-0.784,11.59c-0.2,4.692-0.419,9.382-0.551,14.077
	c-0.098,3.463,0.026,6.923,0.015,10.385c-0.008,2.285-0.686,3.908-2.305,5.52c-1.392,1.384-3.179,2.076-4.705,3.211
	c-2.031,1.513-3.933,2.995-5.295,5.247C65.433,114.647,65.434,115.143,65.83,115.79z M104.175,51.37
	c-1.459,4.949-2.899,9.905-4.341,14.86c-0.786,2.708-2.172,4.532-4.463,6.135c-1.002,0.701-1.807,1.624-3.048,2.035
	c-0.296,0.097-0.539,0.083-0.82-0.047c-0.28-0.13-0.448-0.305-0.565-0.589c-0.336-0.817-0.115-1.586-0.119-2.383
	c-0.028-5.255,0.152-10.19,2.368-15.19c1.133-2.555,2.431-4.369,5.202-5.422C100.466,49.979,105.222,47.825,104.175,51.37z
	 M181.235,88.068c5.889,1.147,9.823,6.734,8.916,12.664c-1.722,11.266-3.814,22.445-6.247,33.579
	c-1.816,8.318-7.266,6.443-13.543,5.969c-5.688-0.429-11.378-0.713-17.081-0.871c-11.406-0.316-22.776-0.182-34.171,0.482
	c-2.845,0.166-5.686,0.365-8.523,0.604c-2.354,0.197-5.934,1.069-8.284-0.714c-2.215-1.681-2.588-5.545-3.058-7.746
	c-0.596-2.786-1.169-5.576-1.72-8.371c-1.1-5.574-2.122-11.16-3.053-16.764c-0.971-5.861-3.036-10.954,2.471-16.057
	c2.281-2.114,4.822-2.681,7.688-3.166c2.817-0.478,5.645-0.894,8.479-1.256c5.677-0.726,11.358-1.229,17.073-1.516
	c11.433-0.575,22.752-0.318,34.144,0.812C169.998,86.279,175.633,86.977,181.235,88.068z M192.703,73.763
	c-0.117,0.285-0.285,0.46-0.565,0.59c-0.282,0.13-0.524,0.144-0.819,0.047c-1.242-0.411-2.048-1.333-3.049-2.035
	c-2.291-1.604-3.676-3.428-4.463-6.135c-1.441-4.955-2.883-9.911-4.342-14.86c-1.044-3.542,3.705-1.391,5.781-0.604
	c2.774,1.052,4.074,2.866,5.207,5.424c2.218,5,2.398,9.936,2.369,15.19C192.818,72.177,193.038,72.945,192.703,73.763z
	 M197.791,122.501c-1.249-0.83-1.155-1.716-0.587-2.939c0.235-0.505,0.486-0.883,1.049-1.089c0.266-0.096,0.515-0.124,0.793-0.087
	c0.125,0.016,0.245,0.046,0.362,0.09c0.569,0.209,1.125,0.445,1.688,0.671c2.647,1.174,7.134,3.182,10.606,4.701
	c5.983,2.617,11.969,5.236,17.953,7.853c5.985,2.619,11.968,5.238,17.953,7.857c2.059,0.901,4.022,1.93,5.899,3.176
	c2.702,1.794,5.403,3.589,8.104,5.384c0.877,0.582,1.88,0.871,2.327,2.045c0.479,1.257-0.437,3.057-0.923,4.027
	c-0.341,0.681-0.762,1.054-1.517,1.232c-0.536,0.128-0.999,0.025-1.502-0.128c-0.341-0.104-0.671-0.23-0.996-0.373
	c-3.277-1.439-6.538-2.916-9.81-4.37c-5.968-2.653-11.939-5.301-17.905-7.962c-5.968-2.662-11.96-5.088-17.366-8.957
	c-3.18-2.273-6.387-4.506-9.609-6.715C203.181,126.154,198.928,123.255,197.791,122.501z M190.325,204.034
	c-2.192,0.01-3.617-0.584-4.888-2.445c-1.604-2.349-1.058-4.64-1.038-7.081c0.032-3.989,0.055-7.977,0.078-11.966
	c0.049-8.314,0.122-16.63,0.2-24.945c0.031-3.491-0.071-6.975,0.291-10.467c0.502-4.833,1.836-9.468,2.764-14.2
	c0.817-4.172,1.57-8.357,2.321-12.542c0.092,0.203,0.17,0.405,0.295,0.615c0.348,0.596,0.775,1.072,1.327,1.486
	c2.291,1.711,4.741,3.166,7.109,4.754c0.824,0.553,1.632,1.128,2.451,1.689c0.036,2.447,0.07,4.894,0.105,7.341
	c0.121,8.315,0.242,16.631,0.361,24.946c0.122,8.316,0.241,16.632,0.361,24.947c0.029,2.014,0.059,4.027,0.088,6.041
	c0.029,2.018,0.441,3.923-0.7,5.907c-1.159,2.015-3.017,2.54-4.84,3.431C195.249,202.211,192.033,204.026,190.325,204.034z
	 M93.208,230.067c0.217-0.764,0.764-1.246,1.195-1.837c0.869-1.189,1.802-2.315,2.798-3.4c2.174-2.372,4.388-3.629,7.661-3.877
	c16.993-1.286,33.938-1.682,50.976-1.194c3.471,0.099,21.917,0.582,25.41,1.664c2.623,0.814,4.344,2.393,6.059,4.381
	c0.826,0.958,1.604,1.948,2.331,2.985c0.362,0.519,0.889,0.882,0.835,1.662c-0.024,0.355-0.149,0.588-0.43,0.806
	c-0.133,0.102-0.271,0.167-0.434,0.206c-0.076,0.018-0.152,0.027-0.23,0.029c-3.521,0.071-7.043-0.003-10.565-0.004
	c-17.001-0.006-34.003-0.004-51.003-0.003c-8.501,0-17.002,0-25.502,0.004c-2.718,0-5.418,0.313-8.152-0.004
	c-0.094-0.011-0.182-0.032-0.268-0.065c-0.184-0.069-0.327-0.169-0.453-0.319C93.154,230.772,93.091,230.481,93.208,230.067z
	 M86.232,122.625c0.007-0.125,0.028-0.247,0.062-0.368c0.078-0.27,0.204-0.488,0.396-0.692c0.414-0.436,0.859-0.513,1.417-0.527
	c1.348-0.036,2.199,0.232,2.461,1.71c1.149,6.432,2.414,12.837,3.783,19.227c1.394,6.501,1.23,12.964,1.294,19.498
	c0.063,6.531,0.112,13.063,0.169,19.595c0.028,3.579,0.083,7.159,0.098,10.737c0,0.357-0.015,0.709-0.055,1.064
	c-0.059,0.521-0.149,0.986-0.48,1.428c-0.465,0.62-0.976,0.857-1.735,0.899c-1.083,0.059-3.1,0.183-4.061-0.758
	c-0.898-0.88-0.764-1.915-0.949-2.949c-0.569-3.192-1.14-6.385-1.709-9.578c-0.395-2.217-0.556-4.429-0.562-6.677
	c-0.018-6.531-0.035-13.064-0.053-19.596c-0.016-6.531-0.031-13.064-0.048-19.596C86.25,131.569,85.979,127.105,86.232,122.625z"/>
</svg>
