<?xml version="1.0" encoding="iso-8859-1"?>
<!DOCTYPE svg PUBLIC "-//W3C//DTD SVG 1.1//EN" "http://www.w3.org/Graphics/SVG/1.1/DTD/svg11.dtd">
<svg 
 version="1.1" xmlns="http://www.w3.org/2000/svg" xmlns:xlink="http://www.w3.org/1999/xlink" x="0px" y="0px" width="512px"
	 height="512px" viewBox="0 0 512 512" style="enable-background:new 0 0 512 512;" xml:space="preserve"
><g id="9f7e7d65bebc9157b4431a86ec0dbc60"><g></g><g fill="#63e8ff"><path style="display: inline;" d="M483.111,141.498v351.076c0,10.409-8.518,18.926-18.927,18.926H104.593
		c-10.409,0-18.926-8.517-18.926-18.926v-79.016h37.852v60.09h321.74V151.907h-86.109c-15.096,0-27.446-12.352-27.446-27.446V38.352
		H123.519v170.333H85.667V19.426c0-10.409,8.517-18.926,18.926-18.926h236.101v0.065c3.017,0.279,6.587,2.24,10.42,6.071
		l125.861,125.861c3.246,3.246,5.153,6.307,5.833,9.001H483.111z M202.765,275.605h-15.263v32.98h15.263
		c4.542,0,8.061-1.316,10.562-3.955c2.497-2.632,3.746-6.539,3.746-11.718v-1.634c0-5.179-1.249-9.086-3.746-11.718
		C210.825,276.926,207.307,275.605,202.765,275.605z M369.556,246.537v129.17c0,10.408-8.517,18.926-18.927,18.926H47.814
		c-10.409,0-18.926-8.518-18.926-18.926v-129.17c0-10.409,8.517-18.926,18.926-18.926h302.814
		C361.039,227.611,369.556,236.128,369.556,246.537z M140.221,265.662c0-1.726-0.772-3.09-2.315-4.09
		c-1.547-0.998-3.362-1.498-5.452-1.498h-23.847c-1.818,0-3.203,0.748-4.156,2.246c-0.954,1.502-1.431,3.295-1.431,5.383
		c0,2.181,0.499,4.044,1.499,5.589c0.998,1.546,2.362,2.313,4.088,2.313h13.899v53.691c0,10.45-4.817,15.67-14.444,15.67
		c-8.993,0-13.673-4.857-14.035-14.579c-0.364-3.726-3.318-5.589-8.857-5.589c-3.181,0-5.451,0.613-6.814,1.841
		c-1.362,1.228-2.044,3.475-2.044,6.742c0,8.361,3.02,14.971,9.062,19.828c6.042,4.864,13.876,7.289,23.506,7.289
		c9.355,0,16.918-2.521,22.688-7.563c5.769-5.037,8.653-12.918,8.653-23.639V265.662z M234.787,290.732
		c0-10.535-2.816-18.279-8.448-23.232c-5.633-4.949-13.128-7.426-22.483-7.426h-27.391c-1.998,0-3.609,0.545-4.837,1.633
		c-1.228,1.091-1.839,2.366-1.839,3.814v88.576c0,1.726,0.861,3.09,2.589,4.088c1.725,0.998,3.815,1.5,6.268,1.5
		c2.362,0,4.429-0.502,6.201-1.5c1.771-0.998,2.655-2.362,2.655-4.088v-31.613h15.263c9.628,0,17.374-2.498,23.232-7.496
		c5.861-4.994,8.79-12.809,8.79-23.436V290.732z M275.938,329.297v-38.018c0-10.446,4.769-15.674,14.31-15.674
		c5.179,0,8.764,1.25,10.764,3.749s3.135,5.748,3.408,9.743c0.089,3.727,3.042,5.59,8.856,5.59c3.087,0,5.334-0.592,6.746-1.774
		c1.405-1.179,2.11-3.408,2.11-6.676c0-7.991-3.02-14.354-9.06-19.077c-6.044-4.721-13.877-7.086-23.51-7.086
		c-9.355,0-16.919,2.521-22.685,7.563c-5.771,5.042-8.654,12.923-8.654,23.643v38.018c0,10.813,2.884,18.716,8.654,23.709
		c5.766,4.998,13.51,7.493,23.231,7.493s17.488-2.495,23.303-7.493c5.812-4.993,8.72-12.896,8.72-23.709v-16.216
		c0-1.546-0.498-2.884-1.496-4.022c-1.002-1.131-2.366-1.699-4.089-1.699h-23.166c-1.638,0-2.953,0.701-3.951,2.11
		c-1.002,1.408-1.501,3.02-1.501,4.839c0,1.906,0.48,3.541,1.435,4.904c0.953,1.364,2.292,2.045,4.018,2.045h11.038v8.039
		c0,5.18-1.253,9.082-3.748,11.719c-2.499,2.635-6.021,3.951-10.562,3.951C280.662,344.967,275.938,339.747,275.938,329.297z"></path></g></g></svg>