<?xml version="1.0" encoding="utf-8"?>
<!-- Generator: Adobe Illustrator 16.0.0, SVG Export Plug-In . SVG Version: 6.00 Build 0)  -->
<svg version="1.2" baseProfile="tiny" id="Layer_1" xmlns="http://www.w3.org/2000/svg" xmlns:xlink="http://www.w3.org/1999/xlink"
	 x="0px" y="0px" width="283.465px" height="283.465px" viewBox="0 0 283.465 283.465" xml:space="preserve">
<path fill="#63e8ff" d="M194.391,122.727h-3.807V83.723c0-25.643-21.928-46.501-48.881-46.501
	c-26.951,0-48.875,20.858-48.875,46.501v39.004h-3.756c-9.875,0-17.912,8.037-17.912,17.912v87.692
	c0,9.876,8.037,17.912,17.912,17.912h105.318c9.877,0,17.914-8.036,17.914-17.912v-87.692
	C212.305,130.764,204.268,122.727,194.391,122.727z M200.605,228.331c0,3.424-2.791,6.213-6.215,6.213H89.072
	c-3.422,0-6.213-2.789-6.213-6.213v-87.692c0-3.423,2.791-6.213,6.213-6.213h71.717c3.232,0,5.85-2.618,5.85-5.85
	s-2.617-5.85-5.85-5.85h-56.262V83.723c0-19.19,16.678-34.802,37.176-34.802c20.5,0,37.182,15.611,37.182,34.802v50.703h15.506
	c3.424,0,6.215,2.79,6.215,6.213V228.331z"/>
</svg>
