<?xml version="1.0" encoding="utf-8"?>
<!-- Generator: Adobe Illustrator 16.0.0, SVG Export Plug-In . SVG Version: 6.00 Build 0)  -->
<svg version="1.2" baseProfile="tiny" id="Layer_1" xmlns="http://www.w3.org/2000/svg" xmlns:xlink="http://www.w3.org/1999/xlink"
	 x="0px" y="0px" width="283.465px" height="283.465px" viewBox="0 0 283.465 283.465" xml:space="preserve">
<g>
	<path fill="#ffffff" d="M194.391,246.243H89.072c-9.875,0-17.912-8.036-17.912-17.912v-87.692c0-9.875,8.037-17.912,17.912-17.912
		h71.717c3.232,0,5.85,2.618,5.85,5.85s-2.617,5.85-5.85,5.85H89.072c-3.422,0-6.213,2.79-6.213,6.213v87.692
		c0,3.424,2.791,6.213,6.213,6.213h105.318c3.424,0,6.215-2.789,6.215-6.213v-87.692c0-3.423-2.791-6.213-6.215-6.213h-15.506
		V83.723c0-19.19-16.682-34.802-37.182-34.802c-20.498,0-37.176,15.611-37.176,34.802v6.139c0,3.23-2.617,5.849-5.85,5.849
		c-3.23,0-5.85-2.618-5.85-5.849v-6.139c0-25.643,21.924-46.501,48.875-46.501c26.953,0,48.881,20.858,48.881,46.501v39.004h3.807
		c9.877,0,17.914,8.037,17.914,17.912v87.692C212.305,238.207,204.268,246.243,194.391,246.243z"/>
</g>
</svg>
