<?xml version="1.0" encoding="iso-8859-1"?>
<!DOCTYPE svg PUBLIC "-//W3C//DTD SVG 1.1//EN" "http://www.w3.org/Graphics/SVG/1.1/DTD/svg11.dtd">
<svg 
 version="1.1" xmlns="http://www.w3.org/2000/svg" xmlns:xlink="http://www.w3.org/1999/xlink" x="0px" y="0px" width="512px"
	 height="512px" viewBox="0 0 512 512" style="enable-background:new 0 0 512 512;" xml:space="preserve"
><g id="9f7e7d65bebc9157b4431a86ec19602f"><g></g><g fill="#63e8ff"><path style="display: inline;" d="M482.808,141.498h0.304v351.076c0,10.409-8.518,18.926-18.927,18.926H104.593
		c-10.409,0-18.927-8.517-18.927-18.926v-79.012h37.853v60.086h321.74V151.907h-86.109c-15.096,0-27.446-12.354-27.446-27.446
		V38.352H123.519v170.333H85.666V19.426c0-10.409,8.518-18.926,18.927-18.926h236.101v0.066c3.017,0.277,6.587,2.24,10.42,6.07
		l125.861,125.861C480.221,135.743,482.128,138.803,482.808,141.498z M269.06,272.231h-15.263v32.976h15.263
		c4.539,0,8.058-1.315,10.561-3.951c2.495-2.636,3.745-6.539,3.745-11.722V287.9c0-5.175-1.25-9.082-3.745-11.718
		C277.117,273.551,273.599,272.231,269.06,272.231z M350.629,394.637H47.814c-10.409,0-18.926-8.518-18.926-18.927V246.537
		c0-10.409,8.517-18.926,18.926-18.926h302.814c10.41,0,18.927,8.517,18.927,18.926V375.71
		C369.556,386.119,361.039,394.637,350.629,394.637z M164.815,348.541c0-2-0.525-3.793-1.567-5.386
		c-1.046-1.585-2.385-2.38-4.019-2.38h-39.245l40.336-72.902c1.36-2.273,2.04-4.406,2.04-6.41c0-3.178-1.771-4.768-5.312-4.768
		h-51.784c-1.814,0-3.179,0.776-4.084,2.318c-0.909,1.549-1.364,3.36-1.364,5.452c0,2.182,0.477,4.018,1.431,5.516
		c0.954,1.5,2.292,2.251,4.018,2.251h34.478L99.27,345.27c-1.271,2.092-1.907,4.133-1.907,6.133c0,3.271,1.774,4.905,5.315,4.905
		h56.552c1.634,0,2.973-0.795,4.019-2.384C164.29,352.334,164.815,350.541,164.815,348.541z M206.102,262.147
		c0-1.815-0.861-3.179-2.588-4.089c-1.727-0.905-3.814-1.364-6.27-1.364c-2.45,0-4.543,0.458-6.266,1.364
		c-1.729,0.91-2.591,2.273-2.591,4.089v88.571c0,1.729,0.861,3.09,2.591,4.088c1.723,1.002,3.815,1.501,6.266,1.501
		c2.362,0,4.429-0.499,6.203-1.501c1.771-0.998,2.654-2.358,2.654-4.088V262.147z M301.082,287.357
		c0-10.539-2.816-18.279-8.45-23.232s-13.126-7.43-22.482-7.43h-27.391c-2,0-3.611,0.547-4.839,1.637
		c-1.227,1.091-1.837,2.362-1.837,3.815v88.571c0,1.729,0.861,3.09,2.588,4.088c1.726,1.002,3.814,1.501,6.269,1.501
		c2.362,0,4.429-0.499,6.199-1.501c1.771-0.998,2.658-2.358,2.658-4.088v-31.613h15.263c9.625,0,17.373-2.498,23.232-7.496
		c5.858-4.99,8.79-12.805,8.79-23.436V287.357z"></path></g></g></svg>