<?xml version="1.0" encoding="iso-8859-1"?>
<!DOCTYPE svg PUBLIC "-//W3C//DTD SVG 1.1//EN" "http://www.w3.org/Graphics/SVG/1.1/DTD/svg11.dtd">
<svg 
 version="1.1" xmlns="http://www.w3.org/2000/svg" xmlns:xlink="http://www.w3.org/1999/xlink" x="0px" y="0px" width="512px"
	 height="512px" viewBox="0 0 512 512" style="enable-background:new 0 0 512 512;" xml:space="preserve"
><g id="9f7e7d65bebc9157b4431a86ec0db180"><g></g><g fill="#63e8ff"><path style="display: inline;" d="M483.111,141.498v351.076c0,10.409-8.518,18.926-18.927,18.926H104.593
		c-10.409,0-18.926-8.517-18.926-18.926v-79.016h37.852v60.09h321.74V151.907h-86.109c-15.096,0-27.446-12.352-27.446-27.446V38.352
		H123.519v170.333H85.667V19.426c0-10.409,8.517-18.926,18.926-18.926h236.101v0.065c3.017,0.279,6.587,2.24,10.42,6.071
		l125.861,125.861c3.246,3.246,5.153,6.307,5.833,9.001H483.111z M107.993,275.605H92.73v32.98h15.263
		c4.539,0,8.059-1.316,10.561-3.955c2.495-2.632,3.745-6.539,3.745-11.718v-1.634c0-5.179-1.25-9.086-3.745-11.718
		C116.052,276.926,112.532,275.605,107.993,275.605z M369.556,246.537v129.17c0,10.408-8.517,18.926-18.927,18.926H47.814
		c-10.409,0-18.926-8.518-18.926-18.926v-129.17c0-10.409,8.517-18.926,18.926-18.926h302.814
		C361.039,227.611,369.556,236.128,369.556,246.537z M140.016,290.732c0-10.535-2.816-18.279-8.45-23.232
		c-5.634-4.949-13.126-7.426-22.481-7.426H81.693c-2,0-3.612,0.545-4.839,1.633c-1.227,1.091-1.837,2.366-1.837,3.814v88.576
		c0,1.726,0.861,3.09,2.587,4.088c1.726,0.998,3.814,1.5,6.269,1.5c2.362,0,4.428-0.502,6.199-1.5s2.658-2.362,2.658-4.088v-31.613
		h15.263c9.626,0,17.373-2.498,23.232-7.496c5.858-4.994,8.79-12.809,8.79-23.436V290.732z M230.631,265.521
		c0-1.814-0.865-3.178-2.588-4.086c-1.726-0.907-3.814-1.361-6.269-1.361c-2.455,0-4.543,0.454-6.27,1.361
		c-1.727,0.908-2.588,2.271-2.588,4.086v54.782l-26.3-50.826c-2.093-3.907-4-6.45-5.723-7.634c-1.726-1.179-4.225-1.77-7.496-1.77
		c-2.451,0-4.543,0.477-6.266,1.43c-1.729,0.954-2.591,2.34-2.591,4.158v88.436c0,1.726,0.861,3.09,2.591,4.088
		c1.723,0.998,3.814,1.5,6.266,1.5c2.362,0,4.429-0.502,6.203-1.5c1.771-0.998,2.653-2.362,2.653-4.088v-54.782l29.299,54.782
		c1.996,3.726,5.404,5.588,10.221,5.588c2.361,0,4.428-0.502,6.198-1.5c1.774-0.998,2.658-2.362,2.658-4.088V265.521z
		 M277.232,329.297v-38.018c0-10.446,4.772-15.674,14.309-15.674c5.179,0,8.769,1.25,10.765,3.749c2,2.499,3.135,5.748,3.408,9.743
		c0.089,3.727,3.042,5.59,8.856,5.59c3.087,0,5.338-0.592,6.746-1.774c1.408-1.179,2.11-3.408,2.11-6.676
		c0-7.991-3.02-14.354-9.06-19.077c-6.044-4.721-13.877-7.086-23.506-7.086c-9.359,0-16.923,2.521-22.689,7.563
		c-5.77,5.042-8.653,12.923-8.653,23.643v38.018c0,10.813,2.884,18.716,8.653,23.709c5.767,4.998,13.511,7.493,23.232,7.493
		s17.488-2.495,23.303-7.493c5.814-4.993,8.72-12.896,8.72-23.709v-16.216c0-1.546-0.499-2.884-1.497-4.022
		c-1.001-1.131-2.361-1.699-4.088-1.699h-23.166c-1.634,0-2.953,0.701-3.951,2.11c-1.002,1.408-1.497,3.02-1.497,4.839
		c0,1.906,0.477,3.541,1.431,4.904c0.953,1.364,2.291,2.045,4.018,2.045h11.038v8.039c0,5.18-1.25,9.082-3.748,11.719
		c-2.499,2.635-6.019,3.951-10.562,3.951C281.956,344.967,277.232,339.747,277.232,329.297z"></path></g></g></svg>