<svg xmlns="http://www.w3.org/2000/svg" width="24" height="24"><path fill="#FFF" d="M9.761 23c-.753 0-1.508-.199-2.009-.367-1.784-.594-3.245-1.52-4.596-2.913-.587-.605-2.37-2.447-1.192-4.898.595-1.238 1.467-1.918 2.914-2.274.426-.106.554-.134.805-.19l.534-.12c.229-.051.765-.17.863-.295.039-.871.293-1.582.795-2.249a19.9 19.9 0 0 1-2.81-.418c-.09-.02-.18-.044-.27-.068-.077-.022-.155-.045-.236-.058-.708-.121-1.364-.527-1.759-1.088-.381-.541-.519-1.192-.397-1.881.516-2.918 4.975-4.575 6.648-4.967.62-.146 1.315-.284 2.075-.172a3.658 3.658 0 0 1 2.125 1.056c1.333 1.312 1.302 2.653 1.096 3.792-.094.52-.188.798-.296 1.121-.04.119-.085.251-.137.417a6.08 6.08 0 0 1-.177.478c-.174.433-.206.569-.151.636.036.045.134.114.229.181.167.118.33.239.477.385.378.382.655.791.85 1.252.148-.198.298-.382.458-.579l.318-.396a20.3 20.3 0 0 1 1.197-1.4c1.378-1.465 2.938-1.621 4.01-.538.983.993 1.321 2.78 1.309 4.121-.014 1.557-.069 2.969-.608 4.486a5.538 5.538 0 0 1-.457 1.023c-.202.339-.44.628-.728.887a3.657 3.657 0 0 1-2.202.963c-1.797.17-2.842-.68-3.624-1.516l-.913-.982c-.147-.163-.453-.503-.591-.536-.898.421-1.583.569-2.341.451l.064.138.107.229c.341.737.442 1.032.688 1.744.1.289.177.525.248.764l.06.193c.196.625.466 1.482-.126 2.476-.302.508-.938 1.112-2.25 1.112zm.786-20c-.327 0-.678.076-1.037.161-1.938.454-4.881 1.914-5.138 3.367-.037.21.019.319.063.382a.734.734 0 0 0 .454.267c.142.023.287.061.432.1l.181.046c.395.088.791.161 1.188.224.812.126 1.462.178 2.246.178.572 0 1.062.27 1.31.722.244.445.208.975-.098 1.453l-.063.102c-.143.23-.357.572-.568.837a1.842 1.842 0 0 0-.438 1.169c-.076 1.657-1.724 2.023-2.427 2.18l-.532.12c-.237.053-.356.08-.76.18-.861.212-1.263.515-1.592 1.199-.354.737-.34 1.437.826 2.64 1.134 1.169 2.304 1.913 3.792 2.408.873.292 1.794.322 1.908.129.118-.197.11-.301-.063-.852l-.067-.219a14.29 14.29 0 0 0-.203-.626c-.255-.741-.334-.971-.633-1.616l-.101-.214c-.182-.385-.408-.864-.549-1.315-.205-.646-.027-1.084.158-1.337.171-.232.567-.662 1.49-.496.212.037.395.073.556.105.3.06.497.099.646.099.165 0 .395-.054.979-.317.269-.12.544-.181.821-.181.982 0 1.631.72 2.061 1.196l.889.956c.719.769 1.186.966 1.977.89a1.658 1.658 0 0 0 1.052-.46c.138-.124.249-.259.348-.425.116-.195.203-.428.29-.669.435-1.223.48-2.459.492-3.833.012-1.275-.357-2.321-.729-2.695-.121-.123-.188-.123-.214-.123-.056 0-.36.03-.92.625-.343.363-.696.776-1.08 1.265l-.338.421c-.24.294-.454.557-.694.919-.198.299-.476.51-.699.68l-.201.132c-.223.111-.45.168-.677.168-.345 0-1.178-.14-1.468-1.438a1.89 1.89 0 0 0-.541-.988c-.062-.061-.137-.108-.209-.16a2.912 2.912 0 0 1-.626-.551c-.816-.999-.386-2.07-.154-2.646.045-.111.09-.218.121-.322.059-.187.107-.333.152-.465.1-.297.155-.461.223-.837.176-.97.052-1.439-.527-2.01a1.672 1.672 0 0 0-1.016-.504A2.02 2.02 0 0 0 10.547 3z"/></svg>