<svg xmlns="http://www.w3.org/2000/svg" width="19.999" height="20"><g fill="#fff"><path data-name="Path 6876" d="M10 2a8.009 8.009 0 0 1 8 8 8.009 8.009 0 0 1-8 8 8.009 8.009 0 0 1-8-8 8.008 8.008 0 0 1 8-8m0-2A10 10 0 0 0 0 10a10 10 0 0 0 10 10 10 10 0 0 0 10-10A10 10 0 0 0 10 0z"/><path data-name="Path 6877" d="M4.556 15.107l2.45.254a3.122 3.122 0 0 1 2.993-2.233 3.12 3.12 0 0 1 2.993 2.233l2.451-.4v-1.338a1.248 1.248 0 0 0-.762-1.141l-3.386-1.462v-.92c0-.606.629-1.338.629-1.944V6.827a1.976 1.976 0 0 0-1.917-2.188 1.976 1.976 0 0 0-1.916 2.188v1.329c0 .606.63 1.338.63 1.944v.92l-3.386 1.462a1.247 1.247 0 0 0-.763 1.141z"/></g></svg>