<svg xmlns="http://www.w3.org/2000/svg" width="196" height="140"><defs><filter id="a" x="0" y="0" width="196" height="140" filterUnits="userSpaceOnUse"><feOffset dy="3"/><feGaussianBlur stdDeviation="5" result="blur"/><feFlood flood-opacity=".349"/><feComposite operator="in" in2="blur"/><feComposite in="SourceGraphic"/></filter><filter id="b" x="129.37" y="60.348" width="43.414" height="46.128" filterUnits="userSpaceOnUse"><feOffset dy="2"/><feGaussianBlur stdDeviation="1" result="blur-2"/><feFlood flood-opacity=".29"/><feComposite operator="in" in2="blur-2"/><feComposite in="SourceGraphic"/></filter><filter id="c" x="130.141" y="101.369" width="13.006" height="14.606" filterUnits="userSpaceOnUse"><feOffset dy="2"/><feGaussianBlur stdDeviation="1" result="blur-3"/><feFlood flood-opacity=".388"/><feComposite operator="in" in2="blur-3"/><feComposite in="SourceGraphic"/></filter><filter id="d" x="120.852" y="108.498" width="15.807" height="11.538" filterUnits="userSpaceOnUse"><feOffset dy="2"/><feGaussianBlur stdDeviation="1" result="blur-4"/><feFlood flood-opacity=".42"/><feComposite operator="in" in2="blur-4"/><feComposite in="SourceGraphic"/></filter></defs><g data-name="Group 7604"><g data-name="Group 7406"><g filter="url(#a)"><path data-name="Subtraction 85" d="M171 122H25a9.933 9.933 0 0 1-7.071-2.929A9.935 9.935 0 0 1 15 112V22a10.011 10.011 0 0 1 10-10h146a10.012 10.012 0 0 1 10 10v90a9.933 9.933 0 0 1-2.929 7.071A9.933 9.933 0 0 1 171 122zM33 75a8.008 8.008 0 0 0-8 8v23a8.008 8.008 0 0 0 8 8h67a8.008 8.008 0 0 0 8-8V83a8.008 8.008 0 0 0-8-8z" fill="#b4ff00"/></g><text transform="translate(26 32)" font-size="12" font-family="CoconPro-Light, CoconPro" font-weight="300"><tspan x="0" y="0">Uni.Weekender</tspan></text><text data-name="20ct/min - 200min" transform="translate(26 51)" font-size="15" font-family="CoconPro-Regular, CoconPro"><tspan x="0" y="0">20ct/min - 200min</tspan></text><text transform="translate(39 89.465)" fill="#fff" font-size="10" font-family="OpenSans, Open Sans" letter-spacing=".04em" opacity=".9"><tspan x="0" y="0">Remaining</tspan></text><text data-name="150min" transform="translate(43 105.465)" fill="#fff" font-size="12" font-family="OpenSans-Bold, Open Sans" font-weight="700" letter-spacing=".04em" opacity=".9"><tspan x="0" y="0">150min</tspan></text><g data-name="Group 7073"><path d="M166.173 102.432a27.285 27.285 0 0 1 1.14-9.025c1.447-4.51 4.41-7.957 6.87-7.394 3.312.758.79 4.03-1.532 6.834-2.64 3.184-4.564 7.86-4.532 8.851z" fill="#27debf"/><path d="M166.173 102.432a27.285 27.285 0 0 1 1.14-9.025c1.447-4.51 4.41-7.957 6.87-7.394 3.312.758.79 4.03-1.532 6.834-2.64 3.184-4.564 7.86-4.532 8.851z" opacity=".1"/><path d="M166.922 101.586a.1.1 0 0 0 .103-.096 22.919 22.919 0 0 1 6.514-14.141.102.102 0 1 0-.134-.153 23.153 23.153 0 0 0-6.58 14.284.1.1 0 0 0 .097.103z" fill="#fff"/><g><path d="M166.544 102.402s.383-4.75 3.028-7.222 4.351-2.54 4.917-1.68c.739 1.127.118 2.33-1.597 3.656s-4.63 3.36-4.68 4.809z" fill="#27debf"/><path d="M167.139 102.276a.1.1 0 0 0 .103-.083 10.867 10.867 0 0 1 6.4-8.125.103.103 0 1 0-.067-.195 11.083 11.083 0 0 0-6.532 8.284.1.1 0 0 0 .082.118z" fill="#fff"/></g><g><path d="M132.086 102.953l1.987-1.056a1.149 1.149 0 0 0 .415-.414l21.861-42.1a.336.336 0 0 0-.118-.432l-.294-.182a.584.584 0 0 0-.527-.019l-1.985 1.058a1.149 1.149 0 0 0-.415.414l-21.862 42.1a.336.336 0 0 0 .118.432l.294.182a.583.583 0 0 0 .526.017z" fill="#263238"/><path d="M153.387 60.093l.294.182a.336.336 0 0 1 .118.432l-21.87 42.1a.277.277 0 0 1-.403.109l-.294-.183a.336.336 0 0 1-.111-.43l21.866-42.101a.277.277 0 0 1 .4-.11z" fill="#37474f"/><path d="M153.036 60.187a.278.278 0 0 1 .377-.074l.294.183a.33.33 0 0 1 .146.218l2.526-1.343a.333.333 0 0 0-.149-.22l-.294-.181a.577.577 0 0 0-.528-.019l-1.984 1.056a1.194 1.194 0 0 0-.388.38z" fill="#455a64"/><path d="M132.106 85.455v.014a.034.034 0 0 1 0-.014z" fill="#263238"/><path d="M132.105 85.473l-.033.949a.559.559 0 0 0 .309.47 1.9 1.9 0 0 0 1.708.028l9.685-5.153a.244.244 0 0 0 .153-.194l.034-.953a.246.246 0 0 1-.151.195l-9.688 5.155a1.9 1.9 0 0 1-1.708-.027.559.559 0 0 1-.309-.47z" fill="#263238"/><path d="M132.414 85.943a1.9 1.9 0 0 0 1.708.027l9.686-5.152a.215.215 0 0 0 .014-.407l-.926-.578a.778.778 0 0 0-.7-.025l-9.693 5.152a.641.641 0 0 0-.398.515.559.559 0 0 0 .309.468z" fill="#37474f"/><g><path d="M149.06 92.792l-.464-.29a.547.547 0 0 1-.215-.307l-3.016-14.313a.581.581 0 0 1 .066-.371l.66-1.058a.2.2 0 0 1 .28-.063l.464.29a.547.547 0 0 1 .214.307l3.194 15.154a.286.286 0 0 1-.137.296l-.693.368a.39.39 0 0 1-.353-.013z" fill="#263238"/><path d="M145.368 77.693l.807.508a.517.517 0 0 1 .064-.185l.655-1.056c.056-.077.113-.083.144-.015a.565.565 0 0 0-.203-.266l-.463-.288a.2.2 0 0 0-.282.062l-.66 1.059a.5.5 0 0 0-.062.18z" fill="#455a64"/><path d="M146.9 76.96l-.66 1.055a.581.581 0 0 0-.066.371L149.19 92.7a.145.145 0 0 0 .222.108l.693-.368a.286.286 0 0 0 .137-.296l-3.193-15.158c-.023-.11-.09-.121-.15-.026z" fill="#37474f"/></g><g><path d="M129.983 90.095l21.657 1.22a1.413 1.413 0 0 1 .563.18l.294.182a.161.161 0 0 1-.01.3l-4.334 2.308a1.286 1.286 0 0 1-.574.126l-16.888-.951a1.406 1.406 0 0 1-.563-.179l-.294-.182a.584.584 0 0 1-.245-.467l.078-2.248a.3.3 0 0 1 .316-.289z" fill="#455a64"/><path d="M130.397 93.136l.079-2.247a.3.3 0 0 1 .31-.29l21.664 1.22c.168.006.184.082.035.16l-4.332 2.305a1.286 1.286 0 0 1-.573.126l-16.894-.951a.313.313 0 0 1-.289-.323z" fill="#263238"/><path d="M129.668 90.382l-.078 2.249a.581.581 0 0 0 .248.466l.293.183a1.429 1.429 0 0 0 .563.18.312.312 0 0 1-.289-.322l.079-2.249a.3.3 0 0 1 .118-.234l-.808-.504a.292.292 0 0 0-.126.231z" fill="#263238"/></g><g><path d="M132.033 92.871z" fill="#fafafa"/><path d="M131.391 92.467l.644.401a.289.289 0 0 1-.109-.271.933.933 0 0 1 .435-.699.308.308 0 0 1 .264-.035l-.617-.385a.289.289 0 0 0-.293.015.917.917 0 0 0-.438.702.284.284 0 0 0 .114.272z" fill="#455a64"/><path d="M131.924 92.6a.933.933 0 0 1 .438-.7.308.308 0 0 1 .263-.037l.054.033 14.689 9.18-.616.99-14.716-9.193a.289.289 0 0 1-.112-.273z" fill="#ff0800"/><path d="M131.924 92.6a.933.933 0 0 1 .438-.7.308.308 0 0 1 .263-.037l.054.033 14.689 9.18-.616.99-14.716-9.193a.289.289 0 0 1-.112-.273z" fill="none" opacity=".1"/><path d="M147.079 101.096a.913.913 0 0 0-.438.7c-.009.263.172.376.405.252a.913.913 0 0 0 .437-.7c.01-.262-.172-.375-.404-.252z" fill="#e0e0e0"/><g><path d="M155.208 61.114a.308.308 0 0 1 .264-.036l.053.033 14.69 9.18-.617.99-14.716-9.194a.288.288 0 0 1-.112-.272.934.934 0 0 1 .438-.701z" fill="#ff0800"/><path d="M155.208 61.114a.308.308 0 0 1 .264-.036l.053.033 14.69 9.18-.617.99-14.716-9.194a.288.288 0 0 1-.112-.272.934.934 0 0 1 .438-.701z" fill="none" opacity=".1"/><path d="M154.238 61.681l.643.402a.289.289 0 0 1-.108-.272.934.934 0 0 1 .434-.697.308.308 0 0 1 .265-.036l-.617-.386a.288.288 0 0 0-.294.016.917.917 0 0 0-.438.701.285.285 0 0 0 .115.272z" fill="#455a64"/></g><g transform="translate(.004 .002)" filter="url(#b)"><path data-name="XMLID_113_" d="M146.787 100.722a24.733 24.733 0 0 0 21.932-22.067l.768-7.442-14.607-9.124-1.763 6.673c-3.996 13.163-9.588 20.069-20.453 23.126z" fill="#ff635e"/></g></g><g><path d="M132.39 79.355a4.224 4.224 0 0 1 2.77.096c.372.17.553.386.543.586l-.461 4.602c-.025.168-.188.328-.49.446a3.467 3.467 0 0 1-2.35-.083c-.305-.136-.462-.307-.476-.476l-.139-4.626c.007-.206.208-.403.604-.545z" fill="#ffe74c"/><path d="M132.39 79.355a4.224 4.224 0 0 1 2.77.096c.74.337.723.843-.04 1.128a4.224 4.224 0 0 1-2.769-.097c-.767-.339-.75-.844.04-1.127z" opacity=".1"/><path d="M134.14 80.763a3.29 3.29 0 0 0 .273-.024l.404-1.414.373-1.304a.357.357 0 0 1 .277-.252l1.007-.178a.127.127 0 1 0-.04-.25l-1.007.174a.611.611 0 0 0-.48.436l-.379 1.313z" fill="#e6e6e6"/><path d="M131.906 75.979l.606 3.335.233 1.307q.132.034.272.062l-.26-1.432-.601-3.317z" fill="#e6e6e6"/><path d="M130.235 77.33s.368.914 2.136.558 1.8-1.278 1.8-1.278a3.092 3.092 0 0 0-2.315-1.47 3.117 3.117 0 0 0-1.621 2.19z" fill="#ff635e"/><path d="M131.777 77.966a2.159 2.159 0 0 1-.985-.147 5.391 5.391 0 0 1 1.063-2.68 10.373 10.373 0 0 0-.078 2.827z" opacity=".1"/><path d="M133.962 77.078a2.023 2.023 0 0 1-.902.612 5.893 5.893 0 0 0-1.204-2.55 6.2 6.2 0 0 1 2.106 1.938z" opacity=".1"/><path d="M153.447 73.302c-1.57-.515-2.7-.495-4.31 2.025-1.26 1.973-4.36 5.938-4.36 5.938s-6.217.622-7.169.4c-.82-.193-1.456-.732-2.312-.598-1.034.164-1.57.263-2.102.305-.163.013-.163.634.847.73a12.227 12.227 0 0 0 1.43.05l-.2 2.272a17.152 17.152 0 0 1 2.551-.41c.826.035 6.678.295 8.698.22 1.212-1.052 4.482-6.105 4.482-6.105z" fill="#ffa8a7"/><g><g transform="translate(-.005)" filter="url(#c)"><path data-name="XMLID_98_" d="M139.802 102.593c.17.227.365.49.31.744a2.622 2.622 0 0 1-.869 1.37 5.061 5.061 0 0 0-1.282 2.33c-.19.742-.493 2.657-1.535 3.3s-3.413.748-3.251-.655 3.585-6.465 3.585-6.465z" fill="#263238"/></g><path d="M138.417 103.34a20.978 20.978 0 0 0-1.302 2.9c-.371 1.099-.799 1.85-1.41 2.085s-1.458.077-1.041-.649 2.1-4.46 2.1-4.46z" fill="#f28f8f"/><path d="M147.114 85.016s-3.805 1.593-6.165 2.518-4.607 1.839-5.165 2.746c-.586.958-.756 3.387-.791 5.74s-.03 6.59-.03 6.59l7.664-8.956 7.04-3.53z" fill="#455a64"/><path d="M147.794 89.528l-.146-.505s-4.03 1.727-5.44 2.38a7.951 7.951 0 0 0-3.738 2.893c-.815 1.413-3.514 7.077-3.514 7.077l5.558-7.652z" fill="#37474f"/><g filter="url(#d)"><path data-name="XMLID_93_" d="M133.538 109.832c.173.147.092.609.033.946s.134.814-.424 1.28-1.396.413-2.156 1.048a5.227 5.227 0 0 1-3.819 1.707c-1.865-.124-3.04-1.086-3.22-1.704s.255-1.03 1.563-1.356c1.39-.344 1.785-.448 1.785-.448z" fill="#263238"/></g><path d="M132.678 105.676s-1.52 2.109-2.342 3.042a12.861 12.861 0 0 1-3.107 2.42c-.256.152-.814.408-1.019.53a.352.352 0 0 0-.137.526 3.085 3.085 0 0 0 2.948.737 22.945 22.945 0 0 0 3.146-1.718c.358-.18.696-.356.944-.484a.764.764 0 0 0 .411-.63c.003-.076.012-.165.02-.269a11.076 11.076 0 0 1 1.442-2.45z" fill="#ffa8a7"/><path d="M157.902 88.849a7.884 7.884 0 0 1-1.631 4.45c-1.175 1.577-3.674 2.362-6.587 2.972-2.41.502-5.95 1.205-6.644 1.27s-.877.409-1.177 1.588a11.193 11.193 0 0 1-3.39 4.852c-2.181 2.036-3.487 3.4-3.487 3.4a2.813 2.813 0 0 1-2.48-1.562s5.976-10.654 6.994-11.985 8.294-4.302 8.294-4.302a15.473 15.473 0 0 1-.68-4.516z" fill="#455a64"/><path d="M147.284 87.343a22.43 22.43 0 0 0 .506 2.19l-.446.184a11.35 11.35 0 0 1-.06-2.374z" fill="#37474f"/><path d="M158.423 74.631l1.69.56a6.009 6.009 0 0 0-1.412 4.17c-.017 2.008.406 2.23 1.346 2.91-.08 2.53-2.258 7.36-2.258 7.36s-2.517.985-6.678-.751c-3.646-1.524-4.151-3.797-4.151-3.797l2.475-1.115.74-1.975a4.019 4.019 0 0 1-.764-3.938c.828-2.223 4.036-4.753 4.036-4.753l1.483.234z" fill="#fafafa"/><path d="M148.474 87.269c1.835.948 4.778 1.067 6.05.38a5.862 5.862 0 0 0 2.525-4.374 13.812 13.812 0 0 1 1.43-5.436l.395-.061a7.827 7.827 0 0 0-.173 1.584c-.015 2.012.407 2.226 1.346 2.91-.08 2.53-2.258 7.36-2.258 7.36s-2.517.985-6.678-.751a9.281 9.281 0 0 1-2.637-1.612z" fill="#f0f0f0"/><path d="M153.186 79.847s-1.62-2.786-.302-5.117a27.054 27.054 0 0 1 1.822-2.862" fill="none" stroke="#e0e0e0" stroke-miterlimit="10" stroke-width=".3"/><g><g fill="#263238"><path d="M155.58 71.653l1.881.277a4.794 4.794 0 0 0 5.444-4.043 5.744 5.744 0 0 0-4.848-6.518 5.744 5.744 0 0 0-6.52 4.846 4.794 4.794 0 0 0 4.044 5.438z"/><path d="M159.722 60.244c-.983 1.081-.238 2.019.841 3.002s2.085 1.637 3.067.557a2.342 2.342 0 0 0-.352-3.46 2.434 2.434 0 0 0-3.556-.1z"/><path d="M162.12 64.361l1.075 1.061a.734.734 0 0 0 .025-1.063.794.794 0 0 0-1.1.002z"/></g><path d="M154.18 63.4c-.652.266-1.616 1.666-2.01 4.842-.333 2.69.44 3.483.848 3.738a4.662 4.662 0 0 0 2.106.248l-.193 1.304s-1.63 1.244-1.671 1.997 1.76 1.354 2.924.788a9.279 9.279 0 0 0 2.236-1.689l.554-3.854s.413.539 1.335-.053a1.544 1.544 0 0 0 .692-2.06 1.188 1.188 0 0 0-1.924.097 6.539 6.539 0 0 1-2.91-1.356 4.939 4.939 0 0 1-1.987-4.003z" fill="#ffa8a7"/><path d="M155.26 68.009a.346.346 0 0 0 .265.41.349.349 0 0 0 .405-.287.346.346 0 0 0-.26-.409.349.349 0 0 0-.41.286z" fill="#263238"/><path d="M154.84 70.27l-.82.134a.408.408 0 0 0 .467.354.435.435 0 0 0 .352-.488z" fill="#f28f8f"/><path d="M152.652 66.566l.752-.372a.4.4 0 0 0-.55-.2.441.441 0 0 0-.202.572z" fill="#263238"/><path d="M152.687 67.38a.347.347 0 0 0 .266.41.349.349 0 0 0 .404-.286.346.346 0 0 0-.26-.41.349.349 0 0 0-.41.287z" fill="#263238"/><path d="M154.263 67.244l-.304 2.2-1.02-.488z" fill="#f28f8f"/><path d="M155.123 72.224c.88.017 2.73-.231 3.11-.892a1.837 1.837 0 0 1-.755.804 9.452 9.452 0 0 1-2.434.628z" fill="#f28f8f"/></g><g><path d="M153.742 67.519a.446.446 0 0 1 .382-.103c.215.052.513.441.513.441l.234-.238a1.4 1.4 0 0 0-.671-.524.764.764 0 0 0-.557.063z" fill="#263238"/><path d="M154.671 66.977c.394-.476.817-.565 1.804-.43s1.485.453 1.648 1.109a1.764 1.764 0 0 1-1.725 2.037 1.761 1.761 0 0 1-1.903-1.505 1.7 1.7 0 0 1 .176-1.211z" fill="#ff635e"/><path d="M156.29 69.386l.1.003a1.374 1.374 0 0 0 1.121-.534 1.482 1.482 0 0 0 .315-1.127c-.105-.427-.381-.74-1.392-.879-.22-.03-.4-.047-.554-.052a1.007 1.007 0 0 0-.973.374 1.438 1.438 0 0 0-.11.975 1.438 1.438 0 0 0 1.491 1.24z" fill="#263238"/><path d="M153.856 66.98a1.48 1.48 0 0 0-1.244-1.324 1.107 1.107 0 0 0-1.445.762c-.127.751-.033 1.66.925 1.965a1.329 1.329 0 0 0 1.764-1.404z" fill="#ff635e"/><path d="M152.509 68.149a.952.952 0 0 0 .697-.25 1.267 1.267 0 0 0 .345-.924c.02-.374-.354-.851-1.016-1.024a1.116 1.116 0 0 0-.244-.036.751.751 0 0 0-.82.553c-.149.881.092 1.423.714 1.624a1.219 1.219 0 0 0 .324.057z" fill="#263238"/></g></g><path d="M159.625 70.59a32.326 32.326 0 0 1-.736 3.877c-.869 2.942-3.016 4.247-5.704 5.38a26.816 26.816 0 0 0-1.145 4.68c-.017 1.243 2.72 5.072 2.519 6.123" fill="none" stroke="#e0e0e0" stroke-miterlimit="10" stroke-width=".3"/><path d="M159.517 69.759a.494.494 0 1 1 .475.516.49.49 0 0 1-.131-.02l-.13.882a.15.15 0 0 1-.3-.033z" fill="#fafafa"/></g><g><path d="M165.669 103.8l-.81-.505-3.543-16.822.875-1.4.81.506 3.543 16.82z" fill="#263238"/><path d="M163 85.579l-.875 1.4 3.544 16.822.875-1.4z" fill="#37474f"/><path d="M146.266 100.268l21.657 1.22a1.412 1.412 0 0 1 .563.179l.294.182a.161.161 0 0 1-.01.3l-4.334 2.308a1.286 1.286 0 0 1-.574.126l-16.888-.95a1.405 1.405 0 0 1-.563-.18l-.294-.182a.584.584 0 0 1-.245-.467l.078-2.247a.3.3 0 0 1 .316-.29z" fill="#455a64"/><path d="M146.68 103.309l.079-2.248a.3.3 0 0 1 .31-.289l21.664 1.22c.168.006.184.081.035.16l-4.332 2.304a1.286 1.286 0 0 1-.574.126l-16.893-.95a.313.313 0 0 1-.289-.323z" fill="#263238"/><path d="M145.951 100.555l-.078 2.248a.581.581 0 0 0 .247.466l.294.184a1.428 1.428 0 0 0 .563.179.312.312 0 0 1-.289-.322l.079-2.248a.3.3 0 0 1 .118-.234l-.808-.505a.293.293 0 0 0-.126.232z" fill="#263238"/><g><path d="M148.257 113.059l1.987-1.056a1.149 1.149 0 0 0 .415-.414l21.861-42.1a.336.336 0 0 0-.118-.432l-.293-.183a.584.584 0 0 0-.528-.018l-1.985 1.057a1.149 1.149 0 0 0-.415.414l-21.861 42.1a.336.336 0 0 0 .118.432l.293.183a.584.584 0 0 0 .526.017z" fill="#263238"/><path d="M169.585 70.217l.294.183a.336.336 0 0 1 .118.432l-21.869 42.1a.277.277 0 0 1-.404.108l-.293-.182a.336.336 0 0 1-.111-.431l21.865-42.1a.277.277 0 0 1 .4-.11z" fill="#37474f"/><path d="M169.207 70.292a.278.278 0 0 1 .377-.074l.294.183a.33.33 0 0 1 .146.219l2.52-1.343a.334.334 0 0 0-.143-.22l-.293-.182a.577.577 0 0 0-.53-.018l-1.983 1.055a1.194 1.194 0 0 0-.388.38z" fill="#455a64"/><g><path d="M148.277 95.56v.015a.035.035 0 0 1 0-.014z" fill="#263238"/><path d="M148.276 95.579l-.033.948a.559.559 0 0 0 .309.47 1.9 1.9 0 0 0 1.708.028l9.686-5.152a.244.244 0 0 0 .152-.195l.034-.952a.246.246 0 0 1-.151.195l-9.688 5.155a1.9 1.9 0 0 1-1.708-.027.56.56 0 0 1-.309-.47z" fill="#263238"/><path d="M148.585 96.049a1.9 1.9 0 0 0 1.708.027l9.686-5.152a.215.215 0 0 0 .014-.407l-.925-.579a.778.778 0 0 0-.7-.024l-9.694 5.152a.641.641 0 0 0-.398.515.56.56 0 0 0 .309.468z" fill="#37474f"/></g></g></g><g><path d="M143.37 94.338a.145.145 0 0 1 .023-.015l5.732-3.048a.309.309 0 0 1 .28.01l2.724 1.702a.154.154 0 0 1 .021.016.313.313 0 0 1 .11.23l-.004.131a.309.309 0 0 1-.149.237l-5.733 3.048a.309.309 0 0 1-.28-.01l-2.723-1.696a.309.309 0 0 1-.131-.251l.005-.131a.313.313 0 0 1 .125-.223z" fill="#2c3540"/><path d="M143.387 94.485l2.725 1.7a.309.309 0 0 0 .28.01l5.731-3.047a.085.085 0 0 0 .006-.161l-2.724-1.702a.309.309 0 0 0-.28-.01l-5.732 3.048a.085.085 0 0 0-.006.162z" fill="#fff" opacity=".4"/><path d="M150.05 92.365a.429.429 0 0 0 .388.013.118.118 0 0 0 .008-.223.429.429 0 0 0-.388-.014.118.118 0 0 0-.008.224z" fill="#27debf"/><path d="M152.107 93.601a.309.309 0 0 0 .147-.236l.004-.132a.313.313 0 0 0-.108-.23c.054.046.045.108-.027.145l-5.732 3.048a.286.286 0 0 1-.14.029l-.016.453a.286.286 0 0 0 .14-.028z" opacity=".1"/><path d="M146.68 95.771l-2.528-1.58c-.045-.028-.043-.071.015-.1l4.506-2.4a.184.184 0 0 1 .157.012l2.524 1.579a.051.051 0 0 1-.003.1l-4.504 2.395a.185.185 0 0 1-.168-.006z" fill="#fff"/><path d="M144.926 95.306a.109.109 0 0 0 .1.003.03.03 0 0 0 .002-.057.109.109 0 0 0-.1-.003.03.03 0 0 0-.002.057z" fill="#ffe74c"/><g fill="#ffe74c"><path d="M145.57 95.482a.217.217 0 0 0 .2.007.06.06 0 0 0 .005-.113.217.217 0 0 0-.2-.007.06.06 0 0 0-.004.113z"/><path d="M145.439 95.28c.037-.02.036-.055-.001-.078l-.635-.396a.15.15 0 0 0-.135-.004c-.037.016-.036.051.001.075l.634.396a.15.15 0 0 0 .136.007z"/></g><path d="M145.727 93.782l1.785 1.114a.185.185 0 0 0 .167.006l2.054-1.092a.051.051 0 0 0 .003-.1l-1.784-1.111a.185.185 0 0 0-.168-.006l-2.053 1.092a.051.051 0 0 0-.004.097z" fill="#e0e0e0"/><path d="M148.668 93.764l-.816.434a.14.14 0 0 1-.18-.046l-.538-.813c-.038-.058-.017-.09.051-.076l1.472.41c.067.017.072.059.01.091z" fill="#fff"/><path d="M160.114 75.192c2.046.571 2.918 1.803 2.254 4.81-.442 2.002-2.124 9.609-2.723 10.326-.448.537-4.856 2.165-7.133 3.37a4.8 4.8 0 0 0-1.314 1.094 6 6 0 0 1-2.45 1.383 2.35 2.35 0 0 1-1.453-.018l.98-.521a2.17 2.17 0 0 0 .853-.816c.26-.443.548-1.021.418-1.207-.223-.316-1.555.295-2.111.012s-.488-.508.512-.802c1.018-.3 1.884-.944 2.838-1.179 1.972-.485 6.229-3.585 6.229-3.585l1.576-7.257a6.015 6.015 0 0 1-.037-3.184 6.124 6.124 0 0 1 1.56-2.426z" fill="#ffa8a7"/></g></g></g></g></g></svg>