<svg xmlns="http://www.w3.org/2000/svg" width="189.875" height="112.824"><defs><linearGradient id="a" x1=".683" y1=".409" x2=".337" y2=".413" gradientUnits="objectBoundingBox"><stop offset="0" stop-color="#161b31"/><stop offset="1" stop-color="#543cfb"/></linearGradient><filter id="b" x="95.917" y="41.616" width="77.788" height="71.208" filterUnits="userSpaceOnUse"><feOffset dy="3"/><feGaussianBlur stdDeviation="3" result="blur"/><feFlood flood-opacity=".161"/><feComposite operator="in" in2="blur"/><feComposite in="SourceGraphic"/></filter><filter id="c" x="118.768" y="62.933" width="24.37" height="37.299" filterUnits="userSpaceOnUse"><feOffset dy="3"/><feGaussianBlur stdDeviation="3" result="blur-2"/><feFlood flood-opacity=".161"/><feComposite operator="in" in2="blur-2"/><feComposite in="SourceGraphic"/></filter><filter id="d" x="124.886" y="62.933" width="24.664" height="37.299" filterUnits="userSpaceOnUse"><feOffset dy="3"/><feGaussianBlur stdDeviation="3" result="blur-3"/><feFlood flood-opacity=".161"/><feComposite operator="in" in2="blur-3"/><feComposite in="SourceGraphic"/></filter><filter id="e" x="114.208" y="51.019" width="24.657" height="23.943" filterUnits="userSpaceOnUse"><feOffset dy="3"/><feGaussianBlur stdDeviation="3" result="blur-4"/><feFlood flood-opacity=".161"/><feComposite operator="in" in2="blur-4"/><feComposite in="SourceGraphic"/></filter><filter id="f" x="111.768" y="62.618" width="20.164" height="22.499" filterUnits="userSpaceOnUse"><feOffset dy="3"/><feGaussianBlur stdDeviation="3" result="blur-5"/><feFlood flood-opacity=".161"/><feComposite operator="in" in2="blur-5"/><feComposite in="SourceGraphic"/></filter><filter id="g" x="136.641" y="62.597" width="20.371" height="23.34" filterUnits="userSpaceOnUse"><feOffset dy="3"/><feGaussianBlur stdDeviation="3" result="blur-6"/><feFlood flood-opacity=".161"/><feComposite operator="in" in2="blur-6"/><feComposite in="SourceGraphic"/></filter></defs><g data-name="Group 7611"><g data-name="Group 7406"><path data-name="Subtraction 85" d="M7396-7438h-146a9.933 9.933 0 0 1-7.071-2.929A9.935 9.935 0 0 1 7240-7448v-90a10.011 10.011 0 0 1 10-10h146a10.012 10.012 0 0 1 10 10v90a9.933 9.933 0 0 1-2.929 7.071A9.933 9.933 0 0 1 7396-7438zm-138-47a8.008 8.008 0 0 0-8 8v23a8.008 8.008 0 0 0 8 8h67a8.008 8.008 0 0 0 8-8v-23a8.008 8.008 0 0 0-8-8z" transform="translate(-7240 7548)" fill="url(#a)"/><text transform="translate(11 20)" fill="#161b31" font-size="12" font-family="CoconPro-Light, CoconPro" font-weight="300"><tspan x="0" y="0">Uni.Corp</tspan></text><text data-name="0ct - workdays" transform="translate(11 39)" fill="#161b31" font-size="15" font-family="CoconPro-Regular, CoconPro"><tspan x="0" y="0">0ct - workdays</tspan></text></g><g data-name="Group 7613" transform="translate(75.061 47.616)" opacity=".4" style="mix-blend-mode:overlay;isolation:isolate"><path data-name="Path 7003" d="M89.582 44.646a.161.161 0 1 1 .321 0v.378h.378a.161.161 0 0 1 0 .321h-.378v.378a.161.161 0 1 1-.321 0v-.378h-.379a.161.161 0 0 1 0-.321h.378z" fill="#c0cdea" fill-rule="evenodd"/><path data-name="Path 7004" d="M111.825 25.542a.161.161 0 1 1 .321 0v.378h.378a.161.161 0 1 1 0 .321h-.378v.378a.161.161 0 0 1-.321 0v-.378h-.378a.161.161 0 0 1 0-.321h.378z" fill="#c0cdea" fill-rule="evenodd"/><path data-name="Path 7005" d="M109.914 34.273a.161.161 0 0 1 .321 0v.378h.378a.161.161 0 0 1 0 .321h-.378v.378a.161.161 0 0 1-.321 0v-.377h-.378a.161.161 0 1 1 0-.321h.378z" fill="#c0cdea" fill-rule="evenodd"/><path data-name="Path 7006" d="M113.955 34.958a.161.161 0 1 1 .321 0v.378h.378a.161.161 0 1 1 0 .321h-.378v.378a.161.161 0 1 1-.321 0v-.378h-.378a.161.161 0 0 1 0-.321h.378z" fill="#fff" fill-rule="evenodd"/><path data-name="Path 7007" d="M82.707 41.458a.161.161 0 0 1 .321 0v.378h.378a.161.161 0 0 1 0 .321h-.378v.378a.161.161 0 1 1-.321 0v-.378h-.378a.161.161 0 0 1 0-.321h.378z" fill="#fff" fill-rule="evenodd"/><g data-name="Group 6741"><g data-name="Group 7100"><g data-name="Group 7078"><g data-name="Group 7077"><g transform="translate(-75.064 -47.62)" filter="url(#b)" data-name="Group 7076"><path data-name="Path 8230" d="M164.708 77.514a29.894 29.894 0 1 0-48.625 23.314h37.462a29.866 29.866 0 0 0 11.163-23.314z" fill="#fff"/></g></g></g><g data-name="Group 7096"><g data-name="Group 7085"><g data-name="Group 7079"><path data-name="Path 8231" d="M59.666 53.103h-1.114a3.006 3.006 0 0 1-3.006-3.008v-2.5h7.127v2.5a3.006 3.006 0 0 1-3.007 3.008z" fill="#222023"/></g><g data-name="Group 7080"><path data-name="Path 8232" d="M62.544 50.349h-6.83a2.274 2.274 0 0 1-2.27-2.27v-8.241h11.352v8.241a2.23 2.23 0 0 1-2.252 2.27z" fill="#a59aa5"/></g><g data-name="Group 7081"><path data-name="Path 8233" d="M64.859 44.694h-11.52a1.364 1.364 0 0 1-1.366-1.367 1.364 1.364 0 0 1 1.366-1.366h11.52a1.364 1.364 0 0 1 1.366 1.366 1.364 1.364 0 0 1-1.366 1.367z" fill="#c2b8c2"/></g><g data-name="Group 7082"><path data-name="Path 8234" d="M57.942 44.694h-2.418a1.364 1.364 0 0 1-1.366-1.367 1.364 1.364 0 0 1 1.366-1.366h2.418a1.364 1.364 0 0 1 1.366 1.366 1.351 1.351 0 0 1-1.366 1.367z" fill="#dbd5db"/></g><g data-name="Group 7083"><path data-name="Path 8235" d="M64.859 48.857h-11.52a1.364 1.364 0 0 1-1.366-1.366 1.364 1.364 0 0 1 1.366-1.366h11.52a1.364 1.364 0 0 1 1.366 1.366 1.377 1.377 0 0 1-1.366 1.366z" fill="#c2b8c2"/></g><g data-name="Group 7084"><path data-name="Path 8236" d="M56.808 48.857h-.147a1.364 1.364 0 0 1-1.367-1.367 1.364 1.364 0 0 1 1.366-1.366h.147a1.364 1.364 0 0 1 1.366 1.366 1.364 1.364 0 0 1-1.365 1.367z" fill="#dbd5db"/></g></g><g data-name="Group 7095"><g data-name="Group 7086"><path data-name="Path 8237" d="M75.307 21.044c0-8.241-7.232-14.926-16.166-14.926s-16.167 6.685-16.167 14.926a14.637 14.637 0 0 0 6.6 12.046 4.742 4.742 0 0 1 2.081 3.826v2.018a1.772 1.772 0 0 0 1.85 1.7h11.269a1.772 1.772 0 0 0 1.85-1.7v-2.016a4.7 4.7 0 0 1 2.039-3.805 14.611 14.611 0 0 0 6.644-12.069z" fill="#fd0"/></g><g data-name="Group 7087"><circle data-name="Ellipse 709" cx="11.668" cy="11.668" r="11.668" transform="rotate(-77.696 42.178 -12.532)" fill="#ff0"/></g><g data-name="Group 7090"><g transform="translate(-75.063 -47.613)" filter="url(#c)" data-name="Group 7088"><path data-name="Path 8238" d="M132.731 88.23h-.461V75.153h-2.018a2.485 2.485 0 0 1-2.481-2.481v-1.261a2.481 2.481 0 0 1 4.961 0v3.28h1.409v.462h-1.409zm-2.481-18.857a2.019 2.019 0 0 0-2.018 2.018v1.261a2.019 2.019 0 0 0 2.018 2.018h2.02v-3.28a2.019 2.019 0 0 0-2.019-2.019z" fill="#fff"/></g><g transform="translate(-75.065 -47.613)" filter="url(#d)" data-name="Group 7089"><path data-name="Path 8239" d="M136.055 88.23h-.465V75.153h-1.7v-.462h1.7v-3.28a2.481 2.481 0 0 1 4.961 0v1.261a2.485 2.485 0 0 1-2.481 2.481h-2.018zm2.018-18.857a2.019 2.019 0 0 0-2.018 2.018v3.28h2.018a2.019 2.019 0 0 0 2.017-2.02V71.39a2.019 2.019 0 0 0-2.016-2.019z" fill="#fff"/></g></g><g data-name="Group 7094"><g transform="translate(-75.063 -47.617)" filter="url(#e)" data-name="Group 7091"><path data-name="Path 8240" d="M124.572 62.962a1.322 1.322 0 0 1-.862-.315 1.371 1.371 0 0 1-.189-1.934 13.967 13.967 0 0 1 4.31-3.532 1.383 1.383 0 1 1 1.3 2.439 11.317 11.317 0 0 0-3.469 2.838 1.447 1.447 0 0 1-1.09.504z" fill="#fff"/></g><g transform="translate(-75.063 -47.618)" filter="url(#f)" data-name="Group 7092"><path data-name="Path 8241" d="M121.989 73.12a.945.945 0 0 1-.925-.757 13.719 13.719 0 0 1-.294-2.8.946.946 0 1 1 1.892 0 11.455 11.455 0 0 0 .252 2.4.952.952 0 0 1-.736 1.114.283.283 0 0 1-.189.043z" fill="#fff"/></g><g transform="translate(-75.059 -47.619)" filter="url(#g)" data-name="Group 7093"><path data-name="Path 8242" d="M146.581 73.94a1.055 1.055 0 0 1-.252-.042.951.951 0 0 1-.652-1.177 11.461 11.461 0 0 0 .441-3.174.946.946 0 0 1 1.892 0 13.625 13.625 0 0 1-.5 3.679.978.978 0 0 1-.929.714z" fill="#fff"/></g></g></g></g></g><path data-name="Path 7003" d="M39.275 26.2a.161.161 0 1 1 .321 0v.378h.378a.161.161 0 0 1 0 .321h-.378v.378a.161.161 0 1 1-.321 0v-.378h-.379a.161.161 0 0 1 0-.321h.378z" fill="#c0cdea" fill-rule="evenodd"/><path data-name="Path 8246" d="M43.467 9.431a.161.161 0 1 1 .321 0v.378h.378a.161.161 0 0 1 0 .321h-.378v.378a.161.161 0 1 1-.321 0v-.378h-.379a.161.161 0 0 1 0-.321h.378z" fill="#c0cdea" fill-rule="evenodd"/><path data-name="Path 7005" d="M47.869 35.111a.161.161 0 0 1 .321 0v.378h.378a.161.161 0 0 1 0 .321h-.378v.378a.161.161 0 0 1-.321 0v-.377h-.378a.161.161 0 1 1 0-.321h.378z" fill="#c0cdea" fill-rule="evenodd"/><path data-name="Path 8245" d="M68.83 4.927a.161.161 0 0 1 .321 0v.378h.378a.161.161 0 0 1 0 .321h-.378v.378a.161.161 0 0 1-.321 0v-.377h-.378a.161.161 0 1 1 0-.321h.378z" fill="#c0cdea" fill-rule="evenodd"/><path data-name="Path 8243" d="M82.245 27.565a.161.161 0 0 1 .321 0v.378h.378a.161.161 0 0 1 0 .321h-.378v.378a.161.161 0 0 1-.321 0v-.377h-.378a.161.161 0 1 1 0-.321h.378z" fill="#c0cdea" fill-rule="evenodd"/><path data-name="Path 8244" d="M73.86 41.819a.161.161 0 0 1 .321 0v.378h.378a.161.161 0 0 1 0 .321h-.378v.378a.161.161 0 0 1-.321 0v-.377h-.378a.161.161 0 1 1 0-.321h.378z" fill="#c0cdea" fill-rule="evenodd"/><path data-name="Path 7006" d="M35.141 38.312a.161.161 0 1 1 .321 0v.378h.378a.161.161 0 1 1 0 .321h-.378v.378a.161.161 0 1 1-.321 0v-.378h-.378a.161.161 0 0 1 0-.321h.378z" fill="#fff" fill-rule="evenodd"/><path data-name="Path 8247" d="M45.203 45.858a.161.161 0 1 1 .321 0v.378h.378a.161.161 0 1 1 0 .321h-.378v.378a.161.161 0 1 1-.321 0v-.378h-.378a.161.161 0 0 1 0-.321h.378z" fill="#fff" fill-rule="evenodd"/><path data-name="Path 7007" d="M.539 43.974a.161.161 0 0 1 .321 0v.378h.378a.161.161 0 0 1 0 .321H.86v.378a.161.161 0 1 1-.321 0v-.378H.161a.161.161 0 0 1 0-.321h.378z" fill="#fff" fill-rule="evenodd"/><g data-name="Group 7174"><g data-name="Group 7149"><g data-name="Group 7134"><g data-name="Group 7129"><path data-name="Path 8292" d="M40.003 48.289l-.24 3.424-1.562-.06.06-3.454z" fill="#fdbc9b"/><g data-name="Group 7128"><g data-name="Group 7127"><path data-name="Path 8293" d="M39.885 51.353l2.883 1.321a.446.446 0 0 1 .24.511h-5.075l.18-1.832z"/><path data-name="Rectangle 4137" fill="#c2b8c2" d="M43.077 53.72h-5.226v-.541h5.226z"/></g></g></g><g data-name="Group 7132"><path data-name="Path 8294" d="M34.867 48.289l-.24 3.424-1.562-.06.06-3.454z" fill="#fdbc9b"/><g data-name="Group 7131"><g data-name="Group 7130"><path data-name="Path 8295" d="M34.749 51.353l2.883 1.321a.446.446 0 0 1 .24.511h-5.075l.18-1.832z"/><path data-name="Rectangle 4138" fill="#c2b8c2" d="M37.945 53.72h-5.226v-.541h5.226z"/></g></g></g><g data-name="Group 7133"><path data-name="Path 8296" d="M39.104 32.221l-6.067.481-.781 17h3.3l1.085-12.826 1.442 5.466-.511 7.539 2.823.03.991-8.349z" fill="#005fea"/><path data-name="Line 182" fill="none" stroke="#0759aa" stroke-miterlimit="10" stroke-width=".75" d="M37.993 36.125l-1.352.751"/></g></g><g data-name="Group 7145"><g data-name="Group 7135"><path data-name="Path 8297" d="M39.013 27.054l-.03 1.652.931.03-.06-1.8z" fill="#ffac9d"/><path data-name="Path 8298" d="M39.073 24.231s1.532.9 1.291 3.754l-1.412-.33z" fill="#fba09f"/></g><g data-name="Group 7136"><path data-name="Path 8299" d="M36.04 23.27a13.048 13.048 0 0 0-3.274.541l.06 9.671 6.427-.481-.06-8.47a.417.417 0 0 0-.21-.36l-1.772-.781s-.871-.12-1.171-.12z" fill="#fba09f"/><path data-name="Line 183" fill="none" stroke="#ed8e8e" stroke-miterlimit="10" stroke-width=".75" d="M39.223 27.715v-1.862"/></g><g data-name="Group 7142"><g data-name="Group 7138"><path data-name="Path 8300" d="M33.547 27.054l-.42 4.805s-.451.961-1.261-.03-.12-4.926-.12-4.926z" fill="#fdbc9b"/><g data-name="Group 7137"><path data-name="Path 8301" d="M33.757 28.076s.511-4.085-.6-4.265c-1.172-.24-2.253 2.523-2.253 4.775z" fill="#fba09f"/><path data-name="Path 8302" d="M33.457 28.105l.42-.12.09-1.922" fill="none" stroke="#ed8e8e" stroke-miterlimit="10" stroke-width=".75"/></g></g><g data-name="Group 7141"><g data-name="Group 7139" fill="#fdbc9b"><path data-name="Path 8303" d="M36.28 27.385a1.339 1.339 0 0 1 1.081-.931.78.78 0 0 1 .931 1.021 1.149 1.149 0 0 1-1.532.781c-.84-.361-.48-.871-.48-.871z"/><path data-name="Path 8304" d="M37.631 26.453a5.016 5.016 0 0 1 1.442.39.182.182 0 0 1 .09.18.168.168 0 0 1-.18.15l-1.141-.21z"/></g><g data-name="Group 7140"><path data-name="Path 8305" d="M32.946 32.099l3.814-3.844-.48-.871-3.694 2.343z" fill="#fdbc9b"/><path data-name="Line 184" fill="none" stroke="#efa987" stroke-miterlimit="10" stroke-width=".482" d="M33.367 29.246l-.781.481"/></g></g></g><g data-name="Group 7144"><g data-name="Group 7143"><path data-name="Path 8306" d="M41.476 28.345l-1.591 4.746a.364.364 0 0 1-.39.24l-3.9-.511a.371.371 0 0 1-.3-.481l1.652-4.745a.364.364 0 0 1 .39-.24l3.844.511a.355.355 0 0 1 .295.48z" fill="#090b0c"/><path data-name="Path 8307" d="M41.416 27.985l.21.27-6.067 4.686-.21-.3z" fill="#090b0c"/><path data-name="Path 8308" d="M41.686 28.586l-1.591 4.746a.364.364 0 0 1-.39.24l-3.9-.511a.371.371 0 0 1-.3-.481l1.652-4.745a.364.364 0 0 1 .39-.24l3.844.511a.39.39 0 0 1 .295.48z" fill="#3d5057"/></g><path data-name="Path 8309" d="M41.506 29.968l-.39.991a.3.3 0 0 1-.3.18.637.637 0 0 1-.511-.781l.09-.33a.578.578 0 0 1 .6-.42h.21a.276.276 0 0 1 .301.36z" fill="#fdbc9b"/></g></g><g data-name="Group 7148"><path data-name="Path 8310" d="M37.422 21.829l-.18 1.562a.755.755 0 0 1-.961.721c-.451-.06-.9-.33-.841-.811l.24-2.463z" fill="#fdbc9b"/><path data-name="Path 8311" d="M37.24 23.271s-1.772-.631-1.622-2.223c.03-.481 1.8.691 1.8.691z" fill="#efa987"/><path data-name="Path 8312" d="M37.631 23.57l-.75-.36-1.352.03-.781.12s-.3 1.171 1.682 1.231c1.592.091 1.201-1.021 1.201-1.021z" fill="#fdbc9b"/><g data-name="Group 7147"><path data-name="Path 8313" d="M38.472 19.816s1.532-1.141.841-2.192-1.952-.15-1.952-.15z" fill="#171e21"/><path data-name="Path 8314" d="M37.241 17.202s-4.295-.6-2.4 2.733l.481-1.352z" fill="#171e21"/><path data-name="Path 8315" d="M38.562 18.105s.721.6-.18 1.922l-.24-1.682z" fill="#171e21"/><path data-name="Path 8316" d="M37.752 20.417a.647.647 0 0 0 .571.721.664.664 0 0 0 .721-.571.647.647 0 0 0-.571-.721.627.627 0 0 0-.721.571z" fill="#e49d7d"/><path data-name="Path 8317" d="M36.76 22.4a1.66 1.66 0 0 0 1.742-1.412l.12-1.592a1.723 1.723 0 0 0-1.5-1.892 1.891 1.891 0 0 0-2.073 1.532l-.09 1.231A2.021 2.021 0 0 0 36.76 22.4z" fill="#fdbc9b"/><path data-name="Path 8318" d="M38.653 19.006s.06-.42-.751-.511a2.761 2.761 0 0 0-2.463.691v1.141l-.751-.721.39-1.712 2.192-.721 1.322.9z" fill="#171e21"/><g data-name="Group 7146"><path data-name="Path 8319" d="M34.147 20.177a.647.647 0 0 0 .541.721.619.619 0 0 0 .691-.571.647.647 0 0 0-.541-.721.654.654 0 0 0-.691.571z" fill="#fdbc9b"/></g><path data-name="Path 8320" d="M37.898 17.534s.18-.511-.481-.781c-.6-.24-1.2-.15-2.523.751z" fill="#171e21"/><path data-name="Path 8321" d="M38.349 21.678a.306.306 0 0 0-.15-.24 2.7 2.7 0 0 0-.661-.18 3.391 3.391 0 0 0-1.261.15.3.3 0 0 1-.33-.15 3.641 3.641 0 0 1-.3-2.463l-.451.33.06.691s.36.751-.21 1.081a1.871 1.871 0 0 0 1.412 1.862 2.136 2.136 0 0 0 1.291-.18 1.092 1.092 0 0 0 .6-.901z" fill="#171e21"/><path data-name="Path 8322" d="M35.469 19.543a.809.809 0 0 0 .6-1.141c-.36-.931-.811.24-.811.24z" fill="#171e21"/></g></g></g><g data-name="Group 7173"><g data-name="Group 7161"><g data-name="Group 7154"><g data-name="Group 7152"><path data-name="Path 8323" d="M94.251 44.387l-1.534-2.433-1.8.931 1.832 2.823 1.442-.661z" fill="#fdbc9b"/><g data-name="Group 7151"><g data-name="Group 7150"><path data-name="Path 8324" d="M94.281 44.207s-.871 1.412-2.042 1.021l-1.352 3.364 4.745-3.424z"/><path data-name="Rectangle 4139" fill="#c2b8c2" d="M91.156 49.033l-.3-.414 4.747-3.432.3.414z"/></g></g></g><g data-name="Group 7153"><path data-name="Path 8325" d="M89.235 29.79l1.862 7.839 3.094 5.226-2.943 1.712-3.724-6.668-1.262-4.985z" fill="#005fea"/><path data-name="Path 8326" d="M91.248 44.717l3.184-1.892-.931-1.5-3.184 2.01z" fill="#2783f2"/></g></g><g data-name="Group 7160"><g data-name="Group 7157"><path data-name="Path 8327" d="M80.015 46.785l1.141-2.643-1.772-.957-1.291 3.124 1.352.811z" fill="#fdbc9b"/><g data-name="Group 7156"><g data-name="Group 7155"><path data-name="Path 8328" d="M80.165 46.699s-1.682.06-2.012-1.111l-3.544.781 5.466 1.952z"/><path data-name="Rectangle 4140" fill="#c2b8c2" d="M79.963 48.83l-5.506-2.003.175-.48 5.506 2.003z"/></g></g></g><g data-name="Group 7159"><g data-name="Group 7158"><path data-name="Path 8329" d="M85.661 27.627v1.772l-4.685 7.238-2.913 7.9 2.853 1.141 2.943-7.238 5.586-7.208a3.423 3.423 0 0 0-.36-4.565z" fill="#005fea"/><path data-name="Line 185" fill="none" stroke="#0759aa" stroke-miterlimit="10" stroke-width=".75" d="M86.742 34.775l2.823-3.634"/></g><path data-name="Path 8330" d="M77.852 44.476l3.334 1.382.631-1.652-3.424-1.292z" fill="#2783f2"/></g></g></g><g data-name="Group 7169"><g data-name="Group 7163"><g data-name="Group 7162"><path data-name="Path 8331" d="M85.33 21.23l-2.163 1.592-2.612-3.364-.811.451a19.052 19.052 0 0 0 2.253 4.986.854.854 0 0 0 .961.27 13.064 13.064 0 0 0 3.634-2.283z" fill="#efa987"/><path data-name="Path 8332" d="M84.7 21.71l1.652 2.734 1.592-1.231a1.6 1.6 0 0 0 .36-2.132 1.576 1.576 0 0 0-2.313-.42z" fill="#e9b022"/></g></g><path data-name="Path 8333" d="M85.992 20.658l2.549-.9s2.193 1.982.541 6.938l-3.424.931a21.656 21.656 0 0 1-.33-2.973c-1.287-1.833.664-3.996.664-3.996z" fill="#f7c12e"/><g data-name="Group 7168"><g data-name="Group 7164"><path data-name="Path 8334" d="M73.257 23.603h6.548a1.474 1.474 0 0 0 1.472-1.472v-6.427a1.474 1.474 0 0 0-1.473-1.472h-6.548a1.474 1.474 0 0 0-1.472 1.472v6.428a1.474 1.474 0 0 0 1.473 1.471z" fill="#00b9e1"/><path data-name="Path 8335" d="M74.698 18.557l.3-.06a1.3 1.3 0 0 1 .15-.36l-.18-.24a.231.231 0 0 1 .03-.3l.18-.18a.231.231 0 0 1 .3-.03l.24.18a1.837 1.837 0 0 1 .36-.15l.06-.3a.219.219 0 0 1 .21-.18h.27a.262.262 0 0 1 .24.18l.06.3a1.3 1.3 0 0 1 .36.15l.24-.18a.231.231 0 0 1 .3.03l.18.18a.231.231 0 0 1 .03.3l-.18.24a1.837 1.837 0 0 1 .15.36l.3.06a.228.228 0 0 1 .18.24v.24a.262.262 0 0 1-.18.24l-.3.06a1.3 1.3 0 0 1-.15.36l.18.24a.231.231 0 0 1-.03.3l-.18.18a.231.231 0 0 1-.3.03l-.24-.18a1.837 1.837 0 0 1-.36.15l-.06.3a.228.228 0 0 1-.24.18h-.27a.262.262 0 0 1-.24-.18l-.06-.3a1.3 1.3 0 0 1-.36-.15l-.24.18a.231.231 0 0 1-.3-.03l-.18-.18a.231.231 0 0 1-.03-.3l.18-.24a1.837 1.837 0 0 1-.15-.36l-.3-.06a.228.228 0 0 1-.18-.24v-.24c.03-.15.12-.24.21-.24zm1.832 1.021a.691.691 0 1 0-.691-.691.68.68 0 0 0 .691.691z" fill="#fff"/></g><g data-name="Group 7167"><g data-name="Group 7166"><g data-name="Group 7165" fill="#fdbc9b"><path data-name="Path 8336" d="M85.901 22.162l-1.892 2.283-3.184-2.824-.661.631a19.265 19.265 0 0 0 3.424 4.269.772.772 0 0 0 .991 0 13.652 13.652 0 0 0 2.943-3.124z"/><path data-name="Path 8337" d="M78.513 20.689c.03-.06.12-.06.18-.03l.481.3.03-.03-.481-.511a.145.145 0 0 1 0-.21.183.183 0 0 1 .24 0l.541.481c.03 0 .03-.03.06-.03l-.511-.721c-.03-.06-.03-.15.03-.18a.145.145 0 0 1 .21 0l.6.631c.03-.03.03-.03.06-.03l-.33-.6a.12.12 0 0 1 .06-.18.133.133 0 0 1 .21.06l.33.541s.12.27.27.571l.09-.511a.1.1 0 0 1 .09-.09c.09-.03.15.03.18.12.03.33 0 1.322.06 1.382l-.661.631-1.291-1.081-.36-.33c-.149-.062-.149-.121-.088-.183z"/></g><path data-name="Path 8338" d="M85.36 22.762l2.308 2.283 1.261-1.592a1.617 1.617 0 0 0-.18-2.162 1.593 1.593 0 0 0-2.343.24z" fill="#fac030"/><path data-name="Path 8339" d="M86.862 24.294l.811.751 1.261-1.622" fill="none" stroke="#eaae28" stroke-miterlimit="10" stroke-width=".75"/><path data-name="Line 186" fill="none" stroke="#eaae28" stroke-miterlimit="10" stroke-width=".75" d="M85.36 22.762l1.201-1.442"/></g></g></g></g><g data-name="Group 7172"><path data-name="Path 8340" d="M86.292 17.385l-1.262-.33a2.754 2.754 0 0 0-.991 1.922h2.193z" fill="#171e21"/><path data-name="Path 8341" d="M85.871 18.345l.691 2.012 1.862-.751-1.053-3.061z" fill="#fdbc9b"/><path data-name="Path 8342" d="M86.261 19.518c0-.03.36-1.261.36-1.261l-.781.36z" fill="#efa987"/><g data-name="Group 7170" fill="#fdbc9b"><path data-name="Path 8343" d="M85.331 14.111a1.335 1.335 0 0 0-1.021 1.382s-.03.871-.06 2.132a1.067 1.067 0 0 0 1.231 1.081 2.849 2.849 0 0 0 1.231-.571l.571-.511a2.112 2.112 0 0 0-1.832-3.514c-.03-.029-.094.001-.12.001z"/><path data-name="Path 8344" d="M84.4 16.755l-.451.42c-.06.06-.03.15.06.18l.451.06z"/></g><path data-name="Path 8345" d="M86.622 16.274s.571-2.943-1.982-1.742c0 0 .991-1.622 3.214-.631a1.969 1.969 0 0 1 1.051 1.291c.15.811-.3 1.5-1.051 2.793l-.841-.991a4.564 4.564 0 0 0-.391-.72z" fill="#171e21"/><path data-name="Path 8346" d="M87.433 15.433l-.511 1.2c-3.274-1.021-1.772-2.553-1.772-2.553s2.643-.779 2.283 1.353z" fill="#171e21"/><path data-name="Path 8347" d="M85.781 16.004l.451.691.6-.811z" fill="#171e21"/><path data-name="Path 8348" d="M85.601 14.262s-1.111.18-1.291.961c0 0-.871-.9.931-1.291 1.111-.21.36.33.36.33z" fill="#171e21"/><path data-name="Path 8349" d="M86.803 16.995a7.836 7.836 0 0 1 .06 2.012l2.733-.15a4.986 4.986 0 0 1-.541-1.712c-.03-.6.27-1.922-.631-2.823l-.451 1.742z" fill="#171e21"/><g data-name="Group 7171"><path data-name="Path 8350" d="M87.524 16.7a.647.647 0 1 1-.691-.6.66.66 0 0 1 .691.6z" fill="#fdbc9b"/></g><path data-name="Path 8351" d="M88.545 19.759a3.672 3.672 0 0 1-2.553.871l1.111-1.321 1.081-.24z" fill="#fdbc9b"/></g></g></g></g><rect data-name="Rectangle 3831" width="81.329" height="1.677" rx=".838" transform="translate(18.401 53.242)" fill="#00b9e1"/></g></g></svg>