<svg data-name="hazard button" xmlns="http://www.w3.org/2000/svg" width="100" height="100"><rect data-name="background" width="100" height="100" rx="18" fill="none"/><g fill="none" stroke="#f3f3f3" stroke-linecap="round" stroke-linejoin="round" stroke-width="2"><path data-name="Path 25" d="M50.183 44.351l-6.9 12.324h13.8z"/><path data-name="Path 26" d="M63.039 54.827q-2.876-5.13-5.748-10.262l-2.985-5.33c-.743-1.325-1.591-3.732-3.5-4.139-2.463-.522-3.084 1.179-4.057 2.913q-1.522 2.722-3.048 5.445l-5.748 10.261a47.366 47.366 0 0 0-2.9 5.538 3.132 3.132 0 0 0 3.013 3.735h22.99a4.893 4.893 0 0 0 2.8-.433 2.858 2.858 0 0 0 1.472-2.2c.258-1.599-1.67-4.421-2.289-5.528z"/></g><g data-name="Rectangle 4223" transform="translate(19 21)" fill="none" stroke="#fff"><rect width="63" height="58" rx="10" stroke="none"/><rect x=".5" y=".5" width="62" height="57" rx="9.5"/></g></svg>