<svg xmlns="http://www.w3.org/2000/svg" width="80" height="9.144"><path data-name="Path 8613" d="M4.552 2.456A2.136 2.136 0 1 0 6.063 6.1a1.208 1.208 0 0 1 1.708 1.711 4.552 4.552 0 1 1 0-6.44 1.208 1.208 0 1 1-1.709 1.711 2.128 2.128 0 0 0-1.51-.626zm74.336 4.582A1.1 1.1 0 0 1 80 8.107a1.067 1.067 0 0 1-1.114 1.038h-2.573a3 3 0 0 1-3.159-2.8 2.554 2.554 0 0 1 .682-1.75 2.554 2.554 0 0 1-.682-1.75A3 3 0 0 1 76.313.04h2.574A1.1 1.1 0 0 1 80 1.108a1.067 1.067 0 0 1-1.114 1.038h-2.573c-.773 0-1.053.486-1.053.7s.28.7 1.053.7h2.574A1.1 1.1 0 0 1 80 4.608a1.067 1.067 0 0 1-1.114 1.038h-2.573c-.773 0-1.053.486-1.053.7s.28.7 1.053.7zM65.061 1.313A1.259 1.259 0 0 1 66.4.155h5.065a1.259 1.259 0 0 1 1.34 1.157 1.259 1.259 0 0 1-1.34 1.157H70.25V7.8a1.241 1.241 0 1 1-2.474 0V2.47H66.4a1.259 1.259 0 0 1-1.339-1.157zm-6.933 7.831a1.321 1.321 0 0 1-1.292-1.325V3.763a4.055 4.055 0 0 1 8.089 0V7.8a1.293 1.293 0 1 1-2.584 0l.019-4.035a1.55 1.55 0 0 0-2.961 0L59.42 7.8a1.32 1.32 0 0 1-1.292 1.344zm-17.139 0A1.321 1.321 0 0 1 39.7 7.819V3.763a4.055 4.055 0 0 1 8.089 0V7.8a1.293 1.293 0 1 1-2.584 0l.019-4.035a1.55 1.55 0 0 0-2.961 0l.018 4.035a1.32 1.32 0 0 1-1.292 1.344zm-4.178 0a1.34 1.34 0 0 1-1.34-1.34V1.655a1.34 1.34 0 0 1 1.34-1.34h.2a1.34 1.34 0 0 1 1.34 1.34V7.8a1.34 1.34 0 0 1-1.34 1.34h-.2zm-16.546 0a1.321 1.321 0 0 1-1.292-1.325V3.763A3.909 3.909 0 0 1 23.018 0a3.909 3.909 0 0 1 4.045 3.763V7.8a1.293 1.293 0 1 1-2.584 0l.021-4.038a1.332 1.332 0 0 0-1.48-1.091 1.332 1.332 0 0 0-1.48 1.091l.017 4.038a1.32 1.32 0 0 1-1.292 1.344zm-6.823-6.806A2.256 2.256 0 1 0 15.7 4.594a2.256 2.256 0 0 0-2.258-2.256zm0-2.3a4.551 4.551 0 1 1-4.551 4.556A4.551 4.551 0 0 1 13.442.043zm41.141 7a1.1 1.1 0 0 1 1.112 1.068 1.067 1.067 0 0 1-1.114 1.038h-2.573a3 3 0 0 1-3.159-2.8 2.554 2.554 0 0 1 .682-1.75 2.554 2.554 0 0 1-.682-1.75A3 3 0 0 1 52.008.04h2.574a1.1 1.1 0 0 1 1.112 1.068 1.067 1.067 0 0 1-1.114 1.038h-2.572c-.773 0-1.053.486-1.053.7s.28.7 1.053.7h2.574a1.1 1.1 0 0 1 1.112 1.068 1.067 1.067 0 0 1-1.114 1.038h-2.572c-.773 0-1.053.486-1.053.7s.28.7 1.053.7zm-27.62-5.725A1.259 1.259 0 0 1 28.3.155h5.065a1.259 1.259 0 0 1 1.34 1.157 1.259 1.259 0 0 1-1.34 1.157h-1.212V7.8a1.241 1.241 0 1 1-2.474 0V2.47H28.3a1.259 1.259 0 0 1-1.337-1.157z" fill="#fff" fill-rule="evenodd"/></svg>