<svg data-name="Group 7580" xmlns="http://www.w3.org/2000/svg" width="25.767" height="10.222"><g data-name="Group 1468" fill="#77ffb6"><path data-name="Path 2396" d="M5.605.376a.671.671 0 0 0-.6-.373.684.684 0 0 0-.6.372L.08 9.262a.666.666 0 0 0 .6.958.567.567 0 0 0 .438-.172.473.473 0 0 0 .09-.127c.418-.839 3.546-7.225 3.8-7.737L7.031 6.31l.016-.008.714 1.438-.016.009 1.013 2.086a.67.67 0 0 0 .391.334.681.681 0 0 0 .841-.421.641.641 0 0 0-.032-.5z"/><path data-name="Path 2397" d="M16.602.11a.671.671 0 0 0-.5-.1.649.649 0 0 0-.419.282l-2.947 3.72L9.803.293a.667.667 0 0 0-.921-.185.677.677 0 0 0-.186.931l3.373 4.368v4.147a.674.674 0 0 0 .667.665.667.667 0 0 0 .667-.665V5.407l3.386-4.368a.676.676 0 0 0-.187-.929z"/><path data-name="Path 2398" d="M25.181 3.026a3.691 3.691 0 0 0-.243-1.069 2.836 2.836 0 0 0-.679-1.043 3.144 3.144 0 0 0-1.463-.808 3.23 3.23 0 0 0-.771-.1h-3.857a.659.659 0 0 0-.667.665v8.887a.667.667 0 0 0 1.334 0V1.336h3.19a2.2 2.2 0 0 1 .965.27 1.631 1.631 0 0 1 .591.59 2.57 2.57 0 0 1 0 2.336 1.632 1.632 0 0 1-.591.589 2.188 2.188 0 0 1-.966.27H19.41l.716 1.322v.009h1.893a3.337 3.337 0 0 0 2.233-.912 2.844 2.844 0 0 0 .679-1.043 3.581 3.581 0 0 0 .243-1.068 4.1 4.1 0 0 0 .007-.673z"/></g><path data-name="Path 2399" d="M9.483 4.998a.654.654 0 0 0-.779-.5c-.243.053-.486.112-.723.174a16.55 16.55 0 0 0-7.8 4.439.655.655 0 0 0 .471 1.109.645.645 0 0 0 .512-.2 15.177 15.177 0 0 1 7.147-4.079c.225-.059.452-.113.673-.162a.656.656 0 0 0 .5-.781z" fill="#77ffb6"/><path data-name="Path 2400" d="M25.584 9.113a16.6 16.6 0 0 0-8.065-4.507 19.943 19.943 0 0 0-.712-.16.654.654 0 0 0-.772.509.657.657 0 0 0 .509.774c.218.044.441.1.663.15a15.294 15.294 0 0 1 7.435 4.143.654.654 0 0 0 .942-.908z" fill="#77ffb6"/></svg>