<svg xmlns="http://www.w3.org/2000/svg" width="401" height="158"><defs><linearGradient id="b" x1="1.418" y1="-1.392" x2=".045" y2="1.097" gradientUnits="objectBoundingBox"><stop offset="0" stop-color="#2ae0ee"/><stop offset="1" stop-color="#23ee95"/></linearGradient><filter id="a" x="0" y="0" width="401" height="158" filterUnits="userSpaceOnUse"><feOffset dy="3"/><feGaussianBlur stdDeviation="3" result="blur"/><feFlood flood-opacity=".149"/><feComposite operator="in" in2="blur"/><feComposite in="SourceGraphic"/></filter><filter id="c" x="346" y="1" width="39" height="63" filterUnits="userSpaceOnUse"><feOffset dy="3"/><feGaussianBlur stdDeviation="3" result="blur-2"/><feFlood flood-opacity=".161"/><feComposite operator="in" in2="blur-2"/><feComposite in="SourceGraphic"/></filter></defs><g data-name="Group 3120"><g filter="url(#a)"><rect data-name="Rectangle 1953" width="383" height="140" rx="20" transform="translate(9 6)" opacity=".75" fill="url(#b)"/></g><g fill="#fff"><path data-name="Path 4047" d="M40.855 26.381h-1.524v5.333h-1.9v8.767h-2.29v-8.767h-1.9v-5.333h-1.529v6.857h1.9V42h5.333v-8.762h1.9z"/><path data-name="Path 4048" d="M33.617 20.667A2.667 2.667 0 1 0 36.284 18a2.675 2.675 0 0 0-2.667 2.667zm3.81 0a1.143 1.143 0 1 1-1.143-1.143 1.146 1.146 0 0 1 1.143 1.143z"/><path data-name="Path 4049" d="M27.141 22.572a2.667 2.667 0 1 0 2.667-2.667 2.675 2.675 0 0 0-2.667 2.667zm3.81 0a1.143 1.143 0 1 1-1.143-1.143 1.146 1.146 0 0 1 1.143 1.143z"/><path data-name="Path 4050" d="M45.045 33.624h-1.9v6.857h-3.052v1.524h4.571v-6.862h1.9v-7.619h-1.519z"/><path data-name="Path 4051" d="M40.093 22.572a2.667 2.667 0 1 0 2.667-2.667 2.674 2.674 0 0 0-2.667 2.667zm2.667-1.143a1.143 1.143 0 1 1-1.143 1.143 1.146 1.146 0 0 1 1.143-1.143z"/><path data-name="Path 4052" d="M29.427 33.624h-1.9v-6.1h-1.529v7.619h1.9V42h4.571v-1.524h-3.042z"/></g><text fill="#fff" font-size="18" font-family="ProximaNova-Light, Proxima Nova" font-weight="300" transform="translate(57 20)" data-name="Group 2433"><tspan x="0" y="17">Community</tspan></text><text data-name="Find friends and cooperative activities." transform="translate(26 62)" fill="#fff" font-size="30" font-family="ProximaNova-Bold, Proxima Nova" font-weight="700"><tspan x="0" y="28">Find friends and </tspan><tspan x="0" y="63">cooperative activities.</tspan></text><g filter="url(#c)"><text data-name="+" transform="translate(355 7)" fill="#fff" font-size="40" font-family="ProximaNova-Bold, Proxima Nova" font-weight="700"><tspan x="0" y="37">+</tspan></text></g></g></svg>