<svg data-name="Group 7577" xmlns="http://www.w3.org/2000/svg" width="19.513" height="19.848"><path data-name="Path 3681" d="M6.786 9.586A3.745 3.745 0 0 0 3.965 8.27a3.744 3.744 0 0 0-2.821 1.316 4.842 4.842 0 0 0 0 6.252l2.821 3.187 2.821-3.187a4.842 4.842 0 0 0 0-6.252zm-.5 5.813l-2.321 2.627-2.325-2.627a4.162 4.162 0 0 1 0-5.375 3.092 3.092 0 0 1 2.325-1.093 3.092 3.092 0 0 1 2.328 1.093 4.162 4.162 0 0 1 0 5.375z" fill="#77ffb6"/><path data-name="Path 3682" d="M15.958 8.107L18.096 5.7a3.635 3.635 0 0 0 0-4.7 2.8 2.8 0 0 0-4.277 0 3.635 3.635 0 0 0 0 4.7zm-1.644-6.674a2.136 2.136 0 0 1 3.287 0 2.956 2.956 0 0 1 0 3.824L15.958 7.11l-1.644-1.852a2.956 2.956 0 0 1 0-3.825z" fill="#77ffb6"/><g data-name="Group 5361" fill="#77ffb6"><path data-name="Path 3683" d="M17.234 18.034a.331.331 0 0 0-.4.25 1.148 1.148 0 0 1-.219.46.331.331 0 1 0 .52.409 1.823 1.823 0 0 0 .345-.724.331.331 0 0 0-.246-.395z"/><path data-name="Path 3684" d="M10.416 10.253a1.164 1.164 0 0 1-.414-.076.331.331 0 0 0-.236.618 1.827 1.827 0 0 0 .649.119h.118a.331.331 0 1 0 0-.662z"/><path data-name="Path 3685" d="M9.632 8.159a.331.331 0 0 0 .175-.05 1.142 1.142 0 0 1 .481-.166.331.331 0 1 0-.072-.658 1.794 1.794 0 0 0-.759.263.331.331 0 0 0 .176.612z"/><path data-name="Path 3686" d="M5.808 19.187h-.662a.331.331 0 0 0 0 .662h.662a.331.331 0 1 0 0-.662z"/><path data-name="Path 3687" d="M11.739 13.233h-.08a.331.331 0 0 0 .013.661h.662a.331.331 0 0 0 0-.662z"/><path data-name="Path 3688" d="M11.574 7.94h.662a.331.331 0 0 0 0-.662h-.662a.331.331 0 0 0 0 .662z"/><path data-name="Path 3689" d="M15.638 13.233a.331.331 0 1 0 0 .662h.662a.331.331 0 1 0 0-.662z"/><path data-name="Path 3690" d="M16.82 10.586a.331.331 0 0 0-.331-.331h-.662a.331.331 0 0 0 0 .662h.662a.331.331 0 0 0 .331-.331z"/><path data-name="Path 3691" d="M13.653 13.895h.662a.331.331 0 1 0 0-.662h-.662a.331.331 0 0 0 0 .662z"/><path data-name="Path 3692" d="M14.22 7.94a.331.331 0 1 0 0-.662h-.662a.331.331 0 0 0 0 .662z"/><path data-name="Path 3693" d="M11.858 10.255a.331.331 0 0 0 0 .662h.662a.331.331 0 0 0 0-.662z"/><path data-name="Path 3694" d="M14.835 10.586a.331.331 0 0 0-.331-.331h-.662a.331.331 0 1 0 0 .662h.662a.331.331 0 0 0 .331-.331z"/><path data-name="Path 3695" d="M19.491 11.787a.331.331 0 0 0-.653.1 1.089 1.089 0 0 1 .014.183 1.159 1.159 0 0 1-.047.327.331.331 0 0 0 .225.411.336.336 0 0 0 .093.013.331.331 0 0 0 .318-.238 1.822 1.822 0 0 0 .073-.51 1.761 1.761 0 0 0-.023-.286z"/><path data-name="Path 3696" d="M13.747 19.187h-.662a.331.331 0 1 0 0 .662h.662a.331.331 0 1 0 0-.662z"/><path data-name="Path 3697" d="M11.763 19.187h-.662a.331.331 0 1 0 0 .662h.662a.331.331 0 1 0 0-.662z"/><path data-name="Path 3698" d="M15.402 16.541a.331.331 0 0 0-.331-.331h-.657a.331.331 0 0 0 0 .662h.662a.331.331 0 0 0 .326-.331z"/><path data-name="Path 3699" d="M13.417 16.541a.331.331 0 0 0-.331-.331h-.657a.331.331 0 0 0 0 .662h.662a.331.331 0 0 0 .326-.331z"/><path data-name="Path 3700" d="M15.709 19.187h-.638a.331.331 0 0 0 0 .662h.652l.01-.331v.331a.321.321 0 0 0 .319-.331.341.341 0 0 0-.343-.331z"/><path data-name="Path 3701" d="M16.879 17.44a.331.331 0 0 0 .26-.535 1.834 1.834 0 0 0-.622-.505.331.331 0 1 0-.295.592 1.161 1.161 0 0 1 .4.322.332.332 0 0 0 .257.126z"/><path data-name="Path 3702" d="M18.141 13.143a1.149 1.149 0 0 1-.447.09h-.071a.331.331 0 0 0 0 .662h.071a1.806 1.806 0 0 0 .7-.141.331.331 0 0 0-.256-.61z"/><path data-name="Path 3703" d="M9.104 9.876a.331.331 0 0 0 .211-.418 1.156 1.156 0 0 1-.058-.36 1.3 1.3 0 0 1 .009-.149.331.331 0 1 0-.656-.083 1.926 1.926 0 0 0-.015.23 1.821 1.821 0 0 0 .09.568.331.331 0 0 0 .314.228.321.321 0 0 0 .105-.016z"/><path data-name="Path 3704" d="M7.793 19.187h-.662a.331.331 0 1 0 0 .662h.662a.331.331 0 1 0 0-.662z"/><path data-name="Path 3705" d="M11.123 16.737a.331.331 0 0 0 .138-.632 1.17 1.17 0 0 1-.406-.31.331.331 0 0 0-.506.426 1.832 1.832 0 0 0 .637.485.333.333 0 0 0 .137.031z"/><path data-name="Path 3706" d="M18.605 10.499a1.8 1.8 0 0 0-.766-.239.331.331 0 0 0-.052.66 1.139 1.139 0 0 1 .486.151.331.331 0 1 0 .332-.572z"/><path data-name="Path 3707" d="M9.778 19.187h-.662a.331.331 0 0 0 0 .662h.662a.331.331 0 1 0 0-.662z"/><path data-name="Path 3708" d="M10.602 14.833a1.149 1.149 0 0 1 .2-.467.331.331 0 1 0-.533-.392 1.813 1.813 0 0 0-.322.735.331.331 0 0 0 .263.387.331.331 0 0 0 .387-.263z"/></g><path data-name="Path 3709" d="M16.039 4.962a1.819 1.819 0 1 0-1.819-1.819 1.822 1.822 0 0 0 1.819 1.819zm0-2.977a1.158 1.158 0 1 1-1.158 1.158 1.159 1.159 0 0 1 1.158-1.158z" fill="#77ffb6"/><path data-name="Path 3710" d="M3.965 10.255A1.985 1.985 0 1 0 5.95 12.24a1.987 1.987 0 0 0-1.985-1.985zm0 3.308a1.323 1.323 0 1 1 1.322-1.323 1.325 1.325 0 0 1-1.322 1.323z" fill="#77ffb6"/></svg>