<svg xmlns="http://www.w3.org/2000/svg" width="38.483" height="38.483"><g data-name="Group 6883" fill="#ff635e" stroke="#ff635e"><path data-name="Path 6895" d="M19.245 4.248a15.011 15.011 0 0 1 14.993 14.993 15.011 15.011 0 0 1-14.993 14.993A15.011 15.011 0 0 1 4.252 19.241 15.011 15.011 0 0 1 19.245 4.248m0-3.748A18.74 18.74 0 0 0 .503 19.242a18.743 18.743 0 0 0 18.742 18.742 18.743 18.743 0 0 0 18.742-18.742A18.74 18.74 0 0 0 19.245.5z"/><g data-name="Rectangle 3891" transform="translate(16.43 9.872)"><rect width="3.748" height="14.993" rx="1" stroke="none"/><rect x=".5" y=".5" width="2.748" height="13.993" rx=".5" fill="none"/></g><g data-name="Rectangle 3892" transform="rotate(49 -5.111 35.345)"><rect width="3.748" height="11.245" rx="1" stroke="none"/><rect x=".5" y=".5" width="2.748" height="10.245" rx=".5" fill="none"/></g></g></svg>