<svg xmlns="http://www.w3.org/2000/svg" width="24" height="24"><path fill="#FFF" d="M12.029 23a4.06 4.06 0 0 1-3.87-2.89 4.065 4.065 0 0 1 1.216-4.187V3.838c0-.544.067-1.187.565-1.822.813-1.031 2.361-1.31 3.478-.624a2.674 2.674 0 0 1 1.207 1.698c.063.286.064.693.062 1.157l-.001 2.535v9.141a4.068 4.068 0 0 1 1.216 4.187A4.065 4.065 0 0 1 12.029 23zm.001-20a.658.658 0 0 0-.517.251c-.096.122-.139.236-.139.587v12.579a.999.999 0 0 1-.455.838 2.047 2.047 0 0 0-.843 2.286c.255.86 1.058 1.459 1.953 1.459s1.699-.6 1.954-1.458a2.049 2.049 0 0 0-.843-2.286 1 1 0 0 1-.455-.838l.001-12.186c.001-.147.005-.593-.018-.724A.658.658 0 0 0 12.03 3z"/><path fill="#FFF" d="M18.557 15.04h-1.634a1 1 0 1 1 0-2h1.634a1 1 0 1 1 0 2z"/><path fill="#FFF" d="M19.573 11.642h-2.65a1 1 0 1 1 0-2h2.65a1 1 0 1 1 0 2z"/><path fill="#FFF" d="M18.557 8.244h-1.634a1 1 0 1 1 0-2h1.634a1 1 0 1 1 0 2z"/><path fill="#FFF" d="M19.573 4.845h-2.65a1 1 0 1 1 0-2h2.65a1 1 0 1 1 0 2z"/></svg>