<svg xmlns="http://www.w3.org/2000/svg" width="53.5" height="9.101"><g data-name="Group 6759" stroke="#ebeaf8" stroke-linecap="round" stroke-linejoin="round"><path data-name="Path 2244" d="M4.764 7.011L7.4 8.6l-.7-3 2.328-2.017-3.066-.26L4.764.5l-1.2 2.827-3.064.26L2.828 5.6l-.7 3z" fill="#ebeaf8"/><path data-name="Path 6808" d="M15.758 7.011L18.394 8.6l-.7-3 2.328-2.017-3.066-.26L15.758.5l-1.2 2.827-3.064.26L13.822 5.6l-.7 3z" fill="#ebeaf8"/><path data-name="Path 6809" d="M26.75 7.011L29.386 8.6l-.7-3 2.328-2.017-3.066-.26L26.75.5l-1.2 2.827-3.064.26L24.814 5.6l-.7 3z" fill="#ebeaf8"/><path data-name="Path 6810" d="M37.744 7.011L40.38 8.6l-.7-3 2.328-2.017-3.066-.26L37.744.5l-1.2 2.827-3.064.26L35.808 5.6l-.7 3z" fill="#ebeaf8"/><path data-name="Path 6811" d="M48.737 7.011L51.373 8.6l-.7-3 2.328-2.017-3.066-.26L48.737.5l-1.2 2.827-3.064.26L46.801 5.6l-.7 3z" fill="none"/></g></svg>