<svg xmlns="http://www.w3.org/2000/svg" width="20" height="20"><g fill="#fff"><path data-name="Path 6878" d="M10 2a8.009 8.009 0 0 1 8 8 8.009 8.009 0 0 1-8 8 8.009 8.009 0 0 1-8-8 8.009 8.009 0 0 1 8-8m0-2A10 10 0 0 0 0 10a10 10 0 0 0 10 10 10 10 0 0 0 10-10A10 10 0 0 0 10 0z"/><path data-name="Path 6879" d="M10.755 7.93a2.006 2.006 0 0 0 .442.469 1.959 1.959 0 0 1 .486.538 2.005 2.005 0 0 0 .424.494 2 2 0 0 0-.145.636 1.967 1.967 0 0 1-.132.6 2 2 0 0 0-.137.655 2 2 0 0 0-.627.272 1.818 1.818 0 0 1-.391.193 2.036 2.036 0 0 0-.606.34 2 2 0 0 0-.609-.3 1.818 1.818 0 0 1-.335-.134 2 2 0 0 0-.664-.207 2 2 0 0 0-.2-.656 2.009 2.009 0 0 1-.147-.39 2 2 0 0 0-.279-.612 2 2 0 0 0 .349-.582 1.971 1.971 0 0 1 .272-.481 2 2 0 0 0 .31-.583h.05a1.978 1.978 0 0 0 .6-.091 2 2 0 0 1 .6-.092H10.22a2.009 2.009 0 0 0 .538-.073m.327-3.7L10.22 6h-.2a4.008 4.008 0 0 0-1.192.183L7.714 4.608a5.834 5.834 0 0 0-1.7 1.12l.865 1.822a3.994 3.994 0 0 0-.548.973l-1.928-.111a5.859 5.859 0 0 0-.207 1.542c0 .181.009.362.026.538l1.97.461a4.036 4.036 0 0 0 .289.77l-1.307 1.459A5.866 5.866 0 0 0 6.65 14.7l1.56-1.23a3.913 3.913 0 0 0 .683.274l.333 1.976a5.757 5.757 0 0 0 .793.055 5.818 5.818 0 0 0 1.315-.15l.01-1.947a3.832 3.832 0 0 0 .824-.407l1.773.983a5.849 5.849 0 0 0 1.258-1.643l-1.5-1.21a3.946 3.946 0 0 0 .267-1.213l1.851-.765a5.787 5.787 0 0 0-.529-1.946l-1.89.422a3.988 3.988 0 0 0-.979-1.087l.545-1.882a5.824 5.824 0 0 0-1.875-.7z"/></g></svg>