<svg xmlns="http://www.w3.org/2000/svg" width="48" height="24"><path fill="#FFF" d="M42.136 14.854c-.037-.448-.079-.896-.122-1.344-.046-.478-.092-.956-.13-1.433-.076-.97-.719-1.402-1.295-1.484-.15-.021-.25-.035-.424-.588a1052.23 1052.23 0 0 0-1.738-5.471l-.499-1.546c-.023-.066-.047-.133-.064-.19C37.515 1.588 36.733 1 35.475 1c-2.214 0-6.187.005-6.419.008-.506.008-1.012.011-1.518.015-.583.004-1.165.007-1.809.02-.431.009-.919.02-1.408.142-.508.125-.996.34-1.414.621a913.934 913.934 0 0 0-6.076 4.14l-9.509 6.512-.167.117c-.556.323-1.227.97-1.273 2.223a7.35 7.35 0 0 1-.072.708l-.023.041c-.208.403-.167.864-.094 1.391.066.354.182.959.78 1.31.058.152.113.306.169.46.388 1.076 1.132 1.613 2.295 1.643l.109.003c.242.007.276.026.402.234a5 5 0 0 0 4.196 2.411l.109.001a4.894 4.894 0 0 0 4.082-2.182c.137-.203.173-.226.401-.217l.431.003.249.001h.019a1.001 1.001 0 0 0 .025-2l-.667-.005h-.072c-.888 0-1.539.351-2.046 1.101-.558.834-1.458 1.297-2.486 1.297a3.01 3.01 0 0 1-2.528-1.445c-.479-.794-1.134-1.175-2.062-1.2l-.132-.004c-.325-.009-.333-.015-.443-.32-.075-.209-.151-.42-.239-.646-.071-.188-.226-.59-.623-.798-.013-.1-.021-.18-.026-.238a1.25 1.25 0 0 0 .135-.412l.016-.114c.042-.317.084-.634.095-.951.015-.382.136-.483.278-.566.083-.048.162-.103.295-.197l9.508-6.512c2.017-1.382 4.034-2.765 6.063-4.131.223-.15.498-.27.777-.339.274-.068.613-.076 1.026-.084.573-.011 1.148-.015 1.723-.018.512-.003 1.024-.007 1.535-.015.23-.003 4.184-.008 6.388-.008.262 0 .332.043.333.044 0 0 .062.056.137.317.029.099.064.197.099.294l.479 1.486c.582 1.82 1.163 3.64 1.735 5.462.137.436.479 1.523 1.654 1.882.034.405.073.81.111 1.214.042.44.084.879.12 1.318.05.615.095 1.23.121 1.846.012.266-.03.341-.03.341s-.057.065-.31.145c-.844.26-1.362.774-1.632 1.618A2.938 2.938 0 0 1 35.51 21h-.063a3.04 3.04 0 0 1-1.335-.337l-2.577-2.041a1.01 1.01 0 0 0-.667-.215l-4.436.202c-3.044 0-5.521-2.476-5.521-5.52s2.477-5.52 5.521-5.52c2.955 0 5.366 2.334 5.506 5.255l-.609-.875a1 1 0 1 0-1.641 1.144l2.443 3.508c.018.025.047.035.066.058.057.067.107.139.183.191.026.018.056.025.082.04a.777.777 0 0 0 .087.042.985.985 0 0 0 .401.097h.002a.98.98 0 0 0 .401-.097c.031-.014.059-.026.087-.042.026-.015.056-.022.082-.04.075-.052.126-.124.183-.191.02-.023.049-.033.066-.058l2.443-3.508a1 1 0 1 0-1.641-1.144l-.635.911c-.123-4.04-3.438-7.291-7.508-7.291-4.146 0-7.521 3.374-7.521 7.52 0 4.146 3.373 7.519 7.562 7.519h.002l4.11-.186 2.355 1.865c.045.035.092.066.141.093A5.1 5.1 0 0 0 35.4 23a4.945 4.945 0 0 0 4.794-3.423c.07-.219.1-.249.321-.316 1.229-.385 1.8-1.197 1.744-2.482a47.687 47.687 0 0 0-.123-1.925z"/></svg>