<svg xmlns="http://www.w3.org/2000/svg" width="30.648" height="21.86"><g data-name="Group 7582" fill="none" stroke-linecap="round"><g data-name="Subtraction 82" stroke-linejoin="round" stroke-miterlimit="10"><path d="M24.93 21.86a3.618 3.618 0 1 1 3.617-3.62 3.622 3.622 0 0 1-3.617 3.62zm-17.674 0a3.619 3.619 0 1 1 3.614-3.616 3.62 3.62 0 0 1-3.614 3.614zm13.87-2.284H11.068a4 4 0 0 0 .225-1.375 4.049 4.049 0 0 0-4.033-3.996h-.05a4.034 4.034 0 0 0-3.993 4.081c0 .085 0 .12.007.2l-.037-.016a2.289 2.289 0 0 1-.367-.189 1.773 1.773 0 0 1-.318-.652c-.034-.2.3-3.815.327-4.1l.005-.052c.019-.2.039-.4.242-.458l.026-.01c.01 0 .714-.172 1.252-.325.554-.158.856-.351 1.233-1.438S7.228 6.35 7.241 6.313l-1.114-.422.015-.041v-.008c.144-.41.25-.643.754-.678.099-.014.458-.014 1.044-.014 2.269 0 7.149.052 7.772.1a2.116 2.116 0 0 1 1.256.417l.051.035c.255.177 10.4 7.108 11.554 7.9l.031.021 1.425.977a1 1 0 0 1 .417.589 6.163 6.163 0 0 1 .07.721 3.181 3.181 0 0 0 .038.413 2.308 2.308 0 0 1 .093.339 4.585 4.585 0 0 1-.015.48 6.225 6.225 0 0 0-.015.36c0 .1-.089.151-.179.2l-.044.023a.362.362 0 0 1-.091.032.158.158 0 0 0-.139.119l-.011.031c-.327.919-.417 1.15-.435 1.183a.378.378 0 0 1-.235.223 1.436 1.436 0 0 1-.234.012c-.174 0-.368-.01-.37-.01h-.041a4.038 4.038 0 1 0-7.71.261z"/><path d="M24.93 20.36a2.12 2.12 0 0 0 0-4.237 2.12 2.12 0 0 0 0 4.237m-17.674-.002a2.12 2.12 0 0 0 0-4.239A2.121 2.121 0 0 0 5.14 18.24c0 1.167.948 2.117 2.115 2.117m12.148-2.285a5.543 5.543 0 0 1 5.211-5.359c-3.546-2.423-8.273-5.654-8.45-5.777l-.053-.037c-.15-.103-.185-.128-.512-.152l-.007-.001c-.476-.038-4.38-.086-6.891-.095-.01.044-.023.088-.038.132-.012.038-1.274 3.846-1.659 4.953-.136.392-.28.726-.443 1.01a5.596 5.596 0 0 1 .698-.042c2.982 0 5.44 2.398 5.53 5.368h6.614m5.526 3.787a3.622 3.622 0 0 1-3.616-3.62 3.62 3.62 0 0 1 3.616-3.617 3.621 3.621 0 0 1 3.617 3.617 3.623 3.623 0 0 1-3.617 3.62zm-17.674-.002a3.62 3.62 0 0 1 0-7.24 3.62 3.62 0 0 1 0 7.239zm13.87-2.285H11.068c.154-.44.23-.902.225-1.375a4.05 4.05 0 0 0-4.083-3.993 4.001 4.001 0 0 0-2.84 1.209 4.014 4.014 0 0 0-1.146 3.072l-.037-.016c-.106-.048-.304-.136-.367-.189-.076-.06-.283-.454-.315-.652-.034-.2.296-3.815.326-4.104l.006-.051c.019-.196.038-.398.242-.458l.024-.007c.01 0 .714-.172 1.252-.325.554-.158.856-.351 1.233-1.438.38-1.094 1.64-4.895 1.653-4.933L6.127 5.89l.015-.044.003-.008c.144-.41.25-.644.754-.678.096-.007.455-.01 1.04-.01 2.27 0 7.15.051 7.772.1.735.056 1 .24 1.256.417l.051.036c.255.176 10.398 7.108 11.554 7.898l.03.02 1.426.977c.228.168.364.36.416.589.035.157.055.47.07.72.013.2.024.371.038.413.028.08.076.231.093.34.01.056-.004.28-.015.48a5.51 5.51 0 0 0-.015.36c.005.102-.088.15-.179.197l-.044.023c-.032.017-.062.025-.09.032-.059.014-.109.026-.14.119l-.011.03c-.327.92-.418 1.151-.436 1.184-.042.078-.106.196-.235.223-.04.008-.119.012-.234.012-.173 0-.368-.01-.37-.01h-.04a4.04 4.04 0 0 0-3.895-5.107 4.04 4.04 0 0 0-3.816 5.368v.001z" fill="#fff"/></g><path data-name="Path 9064" d="M7.16 6.059L1.244 2.21" stroke="#fff" stroke-width="1.5"/></g></svg>