<svg xmlns="http://www.w3.org/2000/svg" width="960" height="600"><path d="M0 0v600h960V0H0zm401.711 299.998c-3.529 16.604-20.135 16.604-20.135 16.604h-24.904c-2.074 0-1.633-2.075-1.633-2.075l1.324-6.227c.441-2.075 2.516-2.075 2.516-2.075h24.906s6.225 0 7.549-6.227c1.324-6.224-4.906-6.224-4.906-6.224h-24.9c-2.078 0-1.637-2.078-1.637-2.078l4.852-22.829c.443-2.075 2.518-2.075 2.518-2.075h6.227c2.074 0 1.635 2.075 1.635 2.075l-3.088 14.527h16.6c-.002 0 16.603 0 13.076 16.604zm52.898-14.526l-3.092 14.526c-3.529 16.604-20.133 16.604-20.133 16.604h-10.373c-16.605 0-13.072-16.604-13.072-16.604l3.084-14.526c.441-2.078 2.518-2.078 2.518-2.078h6.223c2.076 0 1.639 2.078 1.639 2.078l-3.09 14.526s-1.324 6.227 4.902 6.227h10.379c6.225 0 7.549-6.227 7.549-6.227l3.088-14.526c.441-2.078 2.518-2.078 2.518-2.078h6.225c2.075 0 1.635 2.078 1.635 2.078zm45.965 8.302h-24.902s-6.225 0-7.547 6.224c-1.326 6.227 4.9 6.227 4.9 6.227h24.902s2.076 0 1.641 2.075c-.445 2.076-1.326 6.227-1.326 6.227s-.443 2.075-2.518 2.075h-24.906s-16.602 0-13.072-16.604 20.133-16.604 20.133-16.604h16.605l3.088-14.527s.441-2.075 2.516-2.075h6.227s2.076 0 1.633 2.075l-4.855 22.829c-.001 0-.437 2.078-2.519 2.078zm57.184-24.907l-4.852 22.829s-.439 2.078-2.516 2.078h-24.908s-6.229 0-7.549 6.224c-1.324 6.227 4.904 6.227 4.904 6.227h24.904s2.076 0 1.635 2.075l-1.326 6.227s-.441 2.075-2.518 2.075h-24.9s-16.604 0-13.076-16.604c3.533-16.604 20.129-16.604 20.129-16.604h16.605l3.09-14.527s.438-2.075 2.514-2.075h6.229s2.076 0 1.635 2.075zm47.203 16.605s-9.264 43.582-9.707 45.659c-.441 2.077-2.516 2.077-2.516 2.077h-6.227c-2.078 0-1.633-2.077-1.633-2.077l3.088-14.529h-16.604c-16.607 0-13.076-16.604-13.076-16.604l3.086-14.526c.443-2.078 2.518-2.078 2.518-2.078h6.229c2.074 0 1.633 2.078 1.633 2.078l-3.086 14.526c-1.324 6.227 4.9 6.227 4.9 6.227h16.604s3.971-18.678 4.414-20.753c.441-2.078 2.516-2.078 2.516-2.078h6.225c2.079 0 1.636 2.078 1.636 2.078z"/></svg>