<svg xmlns="http://www.w3.org/2000/svg" width="96.465" height="71.174"><g data-name="itinerary 2" transform="translate(-114.368 -17.35)" fill="none" stroke="#fff" stroke-width="2"><path data-name="Path 6818" d="M120.152 61.314l-4.784 3.484 1.134 2.322 2.529 4.313v2.82l1.121 2.986-1.121 3.152 3.123 5.806 2 1.327 19.315-3.981 3.265-2.156 1.212-2.322v-4.147l-10.715-28.534v-7.962l1.53-3.152 1.649-1.825 3.769-2.654 5.064-2.82 4.122-2.91 3.651-5.062 3.649-1.65h6.6l5.719 5.046 3.467 4.576 3.169 1.161V20l1.833.833 4.187 3.076.941 1.153 1.03 1.797 1.55 5.126h7.07l2 3.289 2 2.488 1.531 7.8 2.355 2.322.706-6.967 2.12-4.645" stroke-linecap="round" stroke-linejoin="round"/><circle data-name="Ellipse 15" cx="3" cy="3" r="3" transform="translate(119.833 56)"/><circle data-name="Ellipse 14" cx="3" cy="3" r="3" transform="translate(203.833 30)"/></g></svg>