<?xml version="1.0" encoding="utf-8"?>
<!-- Generator: Adobe Illustrator 16.0.0, SVG Export Plug-In . SVG Version: 6.00 Build 0)  -->
<svg version="1.2" baseProfile="tiny" id="Layer_1" xmlns="http://www.w3.org/2000/svg" xmlns:xlink="http://www.w3.org/1999/xlink"
	 x="0px" y="0px" width="283.465px" height="283.465px" viewBox="0 0 283.465 283.465" xml:space="preserve">
<path fill="#ffffff" d="M217.716,113.998c-1.364-2.252-3.265-3.734-5.298-5.247c-1.526-1.135-3.313-1.826-4.704-3.21
	c-1.618-1.612-2.296-3.235-2.305-5.52c-0.012-3.462,0.112-6.922,0.016-10.385c-0.131-4.694-0.352-9.385-0.551-14.077
	c-0.166-3.871-0.355-7.734-0.785-11.591c-0.499-4.474-1.328-8.346-4.446-11.955c-2.136-2.474-3.135-5.677-6.071-7.679
	c-0.414-0.282-0.835-0.554-1.264-0.815c-0.86-0.523-1.742-1-2.653-1.432c-0.909-0.432-1.836-0.814-2.784-1.149
	c-0.474-0.167-0.95-0.321-1.429-0.463c-0.123-0.037-0.216-0.148-0.372-0.1c-2.164,0.664-3.946-0.197-5.906-0.553
	c-3.526-0.641-7.069-1.129-10.631-1.529c-16.246-1.821-32.271-1.939-48.546-0.506c-3.823,0.336-7.628,0.764-11.423,1.329
	c-1.593,0.237-3.181,0.5-4.765,0.793c-0.75,0.14-1.499,0.286-2.245,0.44c-0.735,0.152-1.347,0.694-2.22,0.318
	c-0.408-0.176-0.761-0.361-1.245-0.22c-0.234,0.069-0.467,0.14-0.7,0.215c-0.466,0.149-0.927,0.31-1.387,0.482
	c-0.921,0.347-1.818,0.739-2.699,1.177c-0.88,0.438-1.733,0.917-2.565,1.441c-0.415,0.261-0.82,0.532-1.221,0.814
	c-0.797,0.561-1.449,1.234-2.063,1.981c-1.573,1.914-2.56,4.193-4.194,6.072c-4.313,4.956-4.318,14.993-4.585,20.5
	c-0.344,7.103-0.713,14.2-0.745,21.316c-0.013,3.179,0.891,6.217-0.922,9.411c-1.198,2.109-3.155,2.949-4.97,4.169
	c-2.483,1.67-4.779,3.266-6.34,6.014c-0.293,0.515-0.321,0.943-0.099,1.493c0.216,0.535,0.524,0.822,1.075,0.996
	c0.258,0.083,0.503,0.102,0.772,0.062c0.123-0.018,0.241-0.049,0.357-0.093c2.129-0.807,4.242-1.65,6.365-2.474
	c1.12-0.435,2.239-0.869,3.358-1.304c0.798-0.311,1.578-0.4,1.846,0.249c-5.329,2.194-10.624,4.471-15.951,6.668
	c-7.899,3.257-15.798,6.515-23.697,9.773c-3.195,1.317-6.39,2.634-9.585,3.952c-1.597,0.658-3.194,1.318-4.792,1.976
	c-0.8,0.329-1.598,0.659-2.396,0.988c-2.312,0.954-4.746,1.52-7.065,2.446c-3.806,1.518-3.488,4.366-3.633,7.598
	c-0.085,1.912-0.752,8.328-0.235,10.318c0.12,0.462,0.313,0.882,0.536,1.299c0.851,1.598,1.896,2.455,3.672,2.88
	c1.342,0.322,2.488,0.104,3.741-0.338c2.045-0.723,3.958-1.719,5.932-2.592c4.681-2.073,9.366-4.136,14.048-6.209
	c7.811-3.457,15.62-6.918,23.401-10.443c1.469-0.666,2.897-1.392,4.277-2.229c0.646-0.392,1.279-0.803,1.9-1.234
	c3.214-2.23,6.413-4.482,9.625-6.718c-0.003,0.155-0.007,0.31-0.009,0.465c-0.153,8.163-0.307,16.326-0.459,24.489
	c-0.102,5.473-0.206,10.945-0.308,16.417c-0.051,2.735-0.104,5.472-0.154,8.208c-0.025,1.368-0.052,2.736-0.077,4.104
	c-0.014,0.684-0.026,1.368-0.039,2.052c-0.006,0.342-0.014,0.684-0.02,1.026c-0.003,0.171-0.006,0.342-0.009,0.513
	c-0.013,0.679-0.248,1.309-0.324,1.971c-0.125,1.083-0.184,2.166-0.209,3.254c-0.053,2.164-0.014,4.327,0.016,6.491
	c0.115,8.013,0.243,16.025,0.521,24.035c0.112,3.251,0.173,6.495,0.627,9.732c0.217,1.548,0.535,3.041,1.112,4.506
	c0.271,0.688,0.792,1.219,1.041,1.922c0.846,2.384,2.138,3.579,4.582,4.236c1.726,0.463,3.459,0.381,5.195,0.505
	c6.563,0.471,13.127,0.839,19.701,1.085c17.764,0.666,35.504,0.663,53.271,0.27c4.547-0.101,29.323-0.901,33.867-1.743
	c1.477-0.273,2.583-0.872,3.621-1.954c0.487-0.509,0.872-1.059,1.182-1.691c0.768-1.566,1.578-3.089,2.006-4.814
	c0.983-3.955,0.928-7.905,1.067-11.896c0.319-9.11,0.506-18.22,0.557-27.335c0.006-0.969-0.026-1.935-0.066-2.9
	c0.017-0.248,0.053-0.475,0.044-0.75c-0.04-1.338-0.187-2.665-0.322-3.993c-0.129-1.86-0.255-3.72-0.29-5.587
	c-0.002-0.156-0.007-0.311-0.009-0.466c-0.032-1.728-0.064-3.455-0.097-5.183c-0.065-3.455-0.13-6.91-0.195-10.366
	c-0.161-8.542-0.321-17.085-0.48-25.628c-0.16-8.542-0.114-17.087-0.482-25.628c-0.006-0.143-0.036-0.269-0.058-0.401
	c-0.087-1.272-0.162-3.268,0.455-3.595c0.148-0.078,0.29-0.108,0.458-0.098c0.078,0.005,0.151,0.02,0.227,0.045
	c1.2,0.416,2.367,0.918,3.548,1.377c2.345,0.911,4.656,1.904,7.036,2.734c0.146,0.051,0.292,0.082,0.447,0.092
	c0.752,0.052,1.189-0.174,1.585-0.817C218.107,115.143,218.108,114.646,217.716,113.998z M185.152,50.768
	c2.772,1.052,4.068,2.867,5.201,5.422c2.218,5,2.397,9.936,2.369,15.19c-0.006,0.797,0.217,1.566-0.119,2.384
	c-0.119,0.285-0.286,0.459-0.565,0.589c-0.283,0.13-0.525,0.144-0.82,0.047c-1.243-0.411-2.048-1.334-3.048-2.035
	c-2.29-1.604-3.678-3.428-4.464-6.135c-1.441-4.955-2.881-9.911-4.342-14.86C178.319,47.825,183.075,49.979,185.152,50.768z
	 M119.214,85.717c11.393-1.13,22.712-1.387,34.144-0.812c5.715,0.288,11.398,0.79,17.073,1.516c2.836,0.362,5.661,0.778,8.479,1.256
	c2.867,0.485,5.409,1.051,7.689,3.165c5.506,5.103,3.442,10.196,2.47,16.057c-0.929,5.605-1.952,11.191-3.051,16.764
	c-0.552,2.795-1.126,5.585-1.722,8.371c-0.471,2.201-0.843,6.065-3.058,7.746c-2.349,1.783-5.931,0.912-8.283,0.714
	c-2.838-0.239-5.68-0.439-8.524-0.604c-11.395-0.664-22.765-0.798-34.172-0.482c-5.701,0.159-11.392,0.442-17.08,0.872
	c-6.278,0.473-11.726,2.349-13.543-5.97c-2.431-11.133-4.524-22.313-6.247-33.578c-0.905-5.93,3.028-11.518,8.916-12.664
	C107.907,86.977,113.543,86.279,119.214,85.717z M90.718,71.379c-0.028-5.254,0.152-10.189,2.368-15.19
	c1.135-2.558,2.433-4.372,5.208-5.424c2.076-0.787,6.826-2.938,5.781,0.604c-1.459,4.949-2.899,9.905-4.339,14.86
	c-0.789,2.708-2.174,4.531-4.465,6.135c-1.001,0.701-1.807,1.624-3.048,2.035c-0.296,0.097-0.539,0.083-0.82-0.047
	s-0.448-0.305-0.565-0.59C90.501,72.945,90.723,72.177,90.718,71.379z M79.231,126.917c-3.224,2.209-6.43,4.441-9.609,6.715
	c-5.409,3.868-11.399,6.295-17.367,8.957c-5.965,2.661-11.937,5.309-17.907,7.962c-3.27,1.454-6.532,2.931-9.808,4.37
	c-0.327,0.143-0.657,0.268-0.998,0.373c-0.501,0.153-0.964,0.256-1.501,0.128c-0.753-0.179-1.174-0.552-1.516-1.233
	c-0.487-0.969-1.404-2.77-0.924-4.027c0.449-1.173,1.452-1.463,2.328-2.045c2.701-1.794,5.401-3.59,8.103-5.384
	c1.878-1.247,3.841-2.275,5.901-3.177c5.983-2.619,11.969-5.238,17.952-7.857c5.984-2.618,11.969-5.236,17.953-7.853
	c3.473-1.52,7.96-3.528,10.608-4.701c0.561-0.227,1.118-0.462,1.685-0.672c0.119-0.043,0.239-0.073,0.363-0.089
	c0.278-0.036,0.528-0.009,0.792,0.087c0.564,0.206,0.813,0.584,1.048,1.089c0.571,1.224,0.663,2.109-0.587,2.939
	C84.613,123.255,80.36,126.154,79.231,126.917z M86.928,201.545c-1.822-0.891-3.681-1.417-4.838-3.431
	c-1.143-1.983-0.73-3.889-0.701-5.906c0.03-2.014,0.058-4.027,0.086-6.041c0.122-8.315,0.241-16.631,0.361-24.947
	c0.121-8.315,0.241-16.631,0.361-24.947c0.036-2.447,0.072-4.894,0.105-7.34c0.819-0.561,1.629-1.136,2.453-1.689
	c2.367-1.588,4.819-3.043,7.107-4.754c0.555-0.414,0.98-0.89,1.33-1.486c0.123-0.211,0.202-0.412,0.294-0.615
	c0.749,4.185,1.504,8.369,2.321,12.542c0.928,4.732,2.261,9.366,2.764,14.2c0.363,3.492,0.259,6.976,0.292,10.467
	c0.078,8.314,0.149,16.63,0.199,24.945c0.024,3.989,0.045,7.977,0.077,11.965c0.019,2.441,0.566,4.732-1.038,7.082
	c-1.27,1.86-2.694,2.455-4.887,2.445C91.507,204.025,88.292,202.211,86.928,201.545z M190.106,231.099
	c-0.129,0.149-0.271,0.25-0.455,0.319c-0.086,0.034-0.175,0.055-0.267,0.065c-2.735,0.316-5.435,0.004-8.152,0.004
	c-8.5-0.004-17.002-0.004-25.502-0.004c-17.001,0-34.003-0.003-51.004,0.003c-3.521,0.001-7.042,0.075-10.565,0.004
	c-0.078-0.002-0.154-0.011-0.23-0.029c-0.163-0.038-0.301-0.104-0.432-0.206c-0.282-0.218-0.406-0.451-0.432-0.806
	c-0.054-0.779,0.472-1.143,0.836-1.662c0.725-1.037,1.504-2.026,2.332-2.985c1.714-1.988,3.434-3.567,6.058-4.381
	c3.492-1.083,21.938-1.565,25.411-1.665c17.034-0.487,33.979-0.091,50.975,1.195c3.272,0.248,5.487,1.505,7.661,3.877
	c0.994,1.085,1.93,2.211,2.798,3.4c0.431,0.591,0.978,1.073,1.194,1.836C190.449,230.481,190.387,230.772,190.106,231.099z
	 M197.279,136.041c-0.016,6.532-0.032,13.064-0.049,19.596c-0.017,6.532-0.033,13.064-0.052,19.596
	c-0.005,2.249-0.166,4.46-0.562,6.677c-0.569,3.193-1.139,6.386-1.709,9.579c-0.185,1.035-0.051,2.069-0.949,2.949
	c-0.962,0.941-2.977,0.817-4.061,0.758c-0.761-0.042-1.27-0.28-1.734-0.9c-0.33-0.441-0.421-0.907-0.479-1.428
	c-0.04-0.354-0.058-0.708-0.056-1.064c0.014-3.579,0.069-7.159,0.099-10.738c0.055-6.532,0.104-13.063,0.167-19.595
	c0.063-6.534-0.1-12.997,1.295-19.498c1.369-6.389,2.633-12.794,3.782-19.226c0.264-1.478,1.112-1.746,2.462-1.71
	c0.557,0.015,1.003,0.092,1.416,0.528c0.193,0.204,0.318,0.423,0.396,0.692c0.035,0.122,0.055,0.243,0.063,0.368
	C197.563,127.105,197.291,131.569,197.279,136.041z"/>
</svg>
