<?xml version="1.0" encoding="utf-8"?>
<!-- Generator: Adobe Illustrator 16.0.0, SVG Export Plug-In . SVG Version: 6.00 Build 0)  -->
<svg version="1.2" baseProfile="tiny" xmlns="http://www.w3.org/2000/svg" xmlns:xlink="http://www.w3.org/1999/xlink" x="0px"
	 y="0px" width="283.465px" height="83px" viewBox="0 0 283.465 83" xml:space="preserve">
<g id="Layer_1">
	<g>
		<path fill="#ffffff" d="M58.223,41.5c-3.766,17.711-21.479,17.711-21.479,17.711H10.178c-2.213,0-1.74-2.215-1.74-2.215
			l1.412-6.64c0.471-2.215,2.684-2.215,2.684-2.215H39.1c0,0,6.641,0,8.053-6.64c1.412-6.641-5.232-6.641-5.232-6.641H15.357
			c-2.215,0-1.746-2.214-1.746-2.214l5.176-24.353c0.473-2.214,2.686-2.214,2.686-2.214h6.643c2.213,0,1.742,2.214,1.742,2.214
			l-3.291,15.497h17.705C44.271,23.789,61.984,23.789,58.223,41.5z"/>
		<path fill="#ffffff" d="M114.648,26.003L111.352,41.5c-3.766,17.711-21.475,17.711-21.475,17.711H78.809
			c-17.711,0-13.943-17.711-13.943-17.711l3.291-15.497c0.471-2.215,2.684-2.215,2.684-2.215h6.641c2.215,0,1.746,2.215,1.746,2.215
			L75.93,41.5c0,0-1.41,6.64,5.23,6.64h11.07c6.641,0,8.053-6.64,8.053-6.64l3.293-15.497c0.471-2.215,2.686-2.215,2.686-2.215
			h6.643C115.117,23.789,114.648,26.003,114.648,26.003z"/>
		<path fill="#ffffff" d="M163.68,34.859h-26.563c0,0-6.641,0-8.053,6.641c-1.412,6.64,5.229,6.64,5.229,6.64h26.564
			c0,0,2.213,0,1.748,2.215c-0.475,2.212-1.414,6.64-1.414,6.64s-0.473,2.215-2.686,2.215h-26.566c0,0-17.709,0-13.945-17.711
			c3.766-17.711,21.477-17.711,21.477-17.711h17.711l3.295-15.497c0,0,0.471-2.214,2.682-2.214h6.645c0,0,2.213,0,1.74,2.214
			l-5.178,24.353C166.365,32.645,165.898,34.859,163.68,34.859z"/>
		<path fill="#ffffff" d="M224.676,8.292L219.5,32.645c0,0-0.469,2.214-2.682,2.214h-26.57c0,0-6.643,0-8.053,6.641
			c-1.412,6.64,5.232,6.64,5.232,6.64h26.563c0,0,2.217,0,1.746,2.215c-0.473,2.212-1.414,6.64-1.414,6.64s-0.473,2.215-2.686,2.215
			h-26.561c0,0-17.713,0-13.949-17.711c3.768-17.711,21.473-17.711,21.473-17.711h17.711l3.297-15.497c0,0,0.469-2.214,2.682-2.214
			h6.645C222.934,6.077,225.146,6.077,224.676,8.292z"/>
		<path fill="#ffffff" d="M275.027,26.003c0,0-9.881,46.489-10.354,48.704s-2.686,2.215-2.686,2.215h-6.643
			c-2.213,0-1.738-2.215-1.738-2.215l3.293-15.497h-17.713c-17.713,0-13.947-17.711-13.947-17.711l3.293-15.497
			c0.473-2.215,2.686-2.215,2.686-2.215h6.643c2.213,0,1.742,2.215,1.742,2.215s-1.881,8.855-3.293,15.497
			c-1.41,6.64,5.227,6.64,5.227,6.64h17.713c0,0,4.236-19.921,4.709-22.137c0.471-2.215,2.684-2.215,2.684-2.215h6.639
			C275.5,23.789,275.027,26.003,275.027,26.003z"/>
	</g>
</g>
<g id="Layer_2">
</g>
</svg>
