<svg xmlns="http://www.w3.org/2000/svg" width="100" height="100"><path fill="#ffffff" d="M49.874 61h-.01a1 1 0 0 1-.838-.47l-5.867-9.382a8.01 8.01 0 0 1-.091-8.142A8.017 8.017 0 0 1 49.999 39l.142.001a8.007 8.007 0 0 1 6.928 4.25 8.006 8.006 0 0 1-.37 8.121l-5.987 9.174a1 1 0 0 1-.838.454zm.125-20a6.012 6.012 0 0 0-5.198 3.004 6.005 6.005 0 0 0 .063 6.097l5.028 8.042 5.133-7.863a6.007 6.007 0 0 0 .277-6.091 6.005 6.005 0 0 0-5.196-3.187L49.999 41z"/><path fill="#ffffff" d="M50.002 50.438c-.013.001-.081-.001-.09-.001-.918-.023-1.772-.403-2.405-1.069s-.968-1.539-.944-2.457c.046-1.847 1.587-3.35 3.437-3.35 1.984.05 3.486 1.631 3.438 3.526a3.42 3.42 0 0 1-3.436 3.351zm.034-4.876c-.812 0-1.455.628-1.474 1.4-.011.386.13.75.395 1.029.265.279.622.438 1.006.447l.039 1v-1c.784 0 1.415-.616 1.436-1.402a1.441 1.441 0 0 0-1.402-1.474z"/></svg>