<svg xmlns="http://www.w3.org/2000/svg" width="100" height="100"><path fill="#543cfb" d="M39.804 61l-.108-.001a5.001 5.001 0 0 1-4.196-2.411c-.126-.208-.16-.228-.402-.234l-.109-.003c-1.163-.03-1.907-.567-2.295-1.643-.056-.154-.111-.308-.169-.46-.599-.351-.714-.957-.78-1.31-.073-.527-.114-.987.094-1.391l.023-.041a7.35 7.35 0 0 0 .072-.708c.047-1.253.718-1.9 1.273-2.223l.167-.117 9.509-6.512c2.021-1.385 4.043-2.771 6.076-4.14a4.474 4.474 0 0 1 1.414-.621c.489-.122.978-.132 1.408-.142a148.84 148.84 0 0 1 1.809-.02c.506-.003 1.012-.006 1.518-.015.231-.003 4.204-.008 6.417-.008 1.259 0 2.04.588 2.389 1.796.018.058.041.124.064.19l.499 1.546a1083.66 1083.66 0 0 1 1.738 5.471c.174.553.273.567.424.588.576.082 1.219.514 1.295 1.484.038.477.084.955.13 1.433.043.448.085.896.122 1.344.053.642.098 1.282.126 1.923.056 1.286-.515 2.098-1.744 2.482-.222.068-.251.098-.321.316-.658 2.063-2.62 3.453-4.794 3.423a5.084 5.084 0 0 1-2.321-.62.999.999 0 1 1 .961-1.753c.433.237.905.363 1.404.374 1.251.006 2.455-.807 2.846-2.033.27-.844.788-1.357 1.632-1.618.253-.079.31-.144.31-.145 0 0 .042-.075.03-.341a47.51 47.51 0 0 0-.121-1.846c-.036-.438-.078-.878-.12-1.318-.038-.404-.077-.809-.111-1.214-1.176-.359-1.518-1.447-1.654-1.882a1080.08 1080.08 0 0 0-1.735-5.462l-.479-1.486c-.034-.098-.069-.195-.099-.294-.075-.261-.137-.316-.137-.317-.001 0-.071-.044-.333-.044-2.204 0-6.157.005-6.389.008-.511.008-1.023.011-1.535.015-.574.003-1.149.007-1.723.018-.413.009-.752.016-1.026.084a2.486 2.486 0 0 0-.777.339 873.4 873.4 0 0 0-6.063 4.131l-9.508 6.512a3.632 3.632 0 0 1-.295.197c-.143.083-.264.184-.278.566a9.876 9.876 0 0 1-.095.951l-.016.114a1.227 1.227 0 0 1-.135.412c.005.059.014.138.026.238.397.208.552.611.623.798.088.226.164.436.239.646.11.306.118.312.443.32l.132.004c.928.024 1.582.406 2.062 1.2a3.01 3.01 0 0 0 2.528 1.445 2.911 2.911 0 0 0 2.486-1.297c.521-.771 1.229-1.113 2.118-1.101l.667.005a1 1 0 0 1-.022 1.999h-.022l-.248-.001-.431-.003c-.229-.007-.265.014-.401.217A4.89 4.89 0 0 1 39.804 61z"/><path fill="#543cfb" d="M56.237 51.212a1 1 0 0 1-1-1V46c0-.563-.459-1.021-1.022-1.021h-2.189c-.563 0-1.022.458-1.022 1.021v4a1 1 0 1 1-2 0v-4a3.024 3.024 0 0 1 3.022-3.021h2.189A3.024 3.024 0 0 1 57.237 46v4.213a.999.999 0 0 1-1 .999z"/><path fill="#543cfb" d="M55.533 58.606h-4.824c-1.654 0-3-1.346-3-3v-3.394c0-1.654 1.346-3 3-3h4.824c1.654 0 3 1.346 3 3v3.394c0 1.654-1.345 3-3 3zm-4.824-7.394c-.552 0-1 .449-1 1v3.394c0 .551.448 1 1 1h4.824c.552 0 1-.449 1-1v-3.394c0-.551-.448-1-1-1h-4.824z"/></svg>