<svg xmlns="http://www.w3.org/2000/svg" width="24" height="24"><g fill="#000000"><path d="M18.498 10.009v5.989c0 .542-.457 1-1 1H8.961V16.09c.004-.164.008-.387-.131-.623a.89.89 0 0 0-.658-.455.646.646 0 0 0-.125-.012c-.318 0-.656.193-.975.391l-.096.059-2.564 1.48c-.031.02-.07.037-.111.059-.252.131-.678.354-.773.82-.141.684.346.955.605 1.1l2.662 1.535.078.047c.66.391.836.471.967.496.056.009.115.013.174.013a.948.948 0 0 0 .947-.947v-1.055h8.537c1.65 0 3-1.35 3-3V8.854l-2 1.155z"/><path d="M5.514 7.998c0-.542.459-1 1-1h8.525V7.91c-.002.164-.008.387.131.623.15.258.367.406.658.455a.646.646 0 0 0 .125.012c.318 0 .656-.193.975-.391l.096-.059 2.564-1.48c.033-.02.07-.037.111-.059.254-.131.678-.354.773-.82.143-.684-.344-.955-.605-1.1l-2.66-1.535-.08-.047c-.658-.391-.836-.471-.967-.496A1.105 1.105 0 0 0 15.986 3a.948.948 0 0 0-.947.947v1.051H6.514c-1.648 0-3 1.35-3 3v7.141l2-1.154V7.998z"/></g></svg>