<svg xmlns="http://www.w3.org/2000/svg" width="100" height="100"><path fill="#543cfb" d="M49.875 60.992a4.06 4.06 0 0 1-3.87-2.89 4.065 4.065 0 0 1 1.216-4.187V41.83c0-.544.067-1.187.565-1.822.813-1.031 2.36-1.309 3.478-.624a2.674 2.674 0 0 1 1.207 1.698c.063.286.064.693.062 1.157l-.001 2.535v9.141a4.068 4.068 0 0 1 1.216 4.187 4.066 4.066 0 0 1-3.873 2.89zm.001-20a.658.658 0 0 0-.517.251c-.096.122-.139.236-.139.587v12.579a.999.999 0 0 1-.455.838 2.047 2.047 0 0 0-.843 2.286c.254.859 1.057 1.458 1.952 1.458s1.699-.6 1.954-1.458a2.049 2.049 0 0 0-.843-2.286 1 1 0 0 1-.455-.838l.001-12.186c.001-.147.005-.593-.018-.724a.658.658 0 0 0-.637-.507z"/><path fill="#543cfb" d="M56.402 53.032h-1.634a1 1 0 1 1 0-2h1.634a1 1 0 1 1 0 2z"/><path fill="#543cfb" d="M57.419 49.634h-2.65a1 1 0 1 1 0-2h2.65a1 1 0 1 1 0 2z"/><path fill="#543cfb" d="M56.402 46.235h-1.634a1 1 0 1 1 0-2h1.634a1 1 0 1 1 0 2z"/><path fill="#543cfb" d="M57.419 42.837h-2.65a1 1 0 1 1 0-2h2.65a1 1 0 1 1 0 2z"/></svg>