<svg xmlns="http://www.w3.org/2000/svg" width="100" height="100"><path fill="#543cfb" d="M39.283 39.307c0-1.246.948-2.271 2.178-2.271h.458c1.055 0 1.651.549 2.25 1.317l12.296 16.59V39.197c0-1.208.949-2.197 2.108-2.197 1.193 0 2.144.989 2.144 2.197v21.532c0 1.245-.914 2.234-2.107 2.234h-.176c-1.02 0-1.654-.549-2.25-1.355l-12.65-17.065v16.259c0 1.209-.948 2.197-2.106 2.197-1.196 0-2.145-.988-2.145-2.197V39.307z"/><path fill="#543cfb" d="M39.284 39.307c0-1.245.948-2.27 2.178-2.27h.457c1.054 0 1.652.549 2.249 1.318l12.297 16.589V39.197c0-1.208.948-2.197 2.108-2.197 1.194 0 2.143.989 2.143 2.197v21.532c0 1.245-.913 2.233-2.107 2.233h-.176c-1.02 0-1.651-.549-2.248-1.355l-12.65-17.063v16.259c0 1.208-.949 2.197-2.108 2.197-1.194 0-2.143-.989-2.143-2.197V39.307z"/></svg>