<svg xmlns="http://www.w3.org/2000/svg" width="157.766" height="36.667"><g fill="#ffffff"><path d="M0 29.74V6.896h6.172v17.859h8.797v4.984H0z"/><path d="M40 18.287c0 3.844-.943 6.766-2.828 8.766-1.886 2-4.646 3-8.281 3-3.584 0-6.331-1.005-8.242-3.016-1.912-2.01-2.867-4.938-2.867-8.781 0-3.802.95-6.706 2.852-8.711 1.9-2.005 4.664-3.008 8.289-3.008 3.635 0 6.391.995 8.266 2.984S40 14.433 40 18.287zm-15.719 0c0 4.417 1.536 6.625 4.609 6.625 1.563 0 2.721-.537 3.477-1.609.755-1.073 1.133-2.745 1.133-5.016 0-2.281-.383-3.966-1.148-5.055s-1.909-1.633-3.43-1.633c-3.094 0-4.641 2.229-4.641 6.688z"/><path d="M58.141 29.74l-1.125-4.281h-7.422l-1.156 4.281h-6.781L49.11 6.802h8.234l7.547 22.938h-6.75zm-2.407-9.344l-.984-3.75c-.229-.833-.508-1.912-.836-3.234s-.545-2.271-.648-2.844a64.484 64.484 0 0 1-.555 2.625c-.276 1.219-.889 3.62-1.836 7.203h4.859z"/><path d="M86.75 17.833c0 3.813-1.05 6.75-3.148 8.813-2.1 2.063-5.05 3.094-8.852 3.094h-7.391V6.896h7.906c3.666 0 6.497.938 8.492 2.813 1.995 1.874 2.993 4.583 2.993 8.124zm-6.406.219c0-2.094-.414-3.646-1.242-4.656s-2.086-1.516-3.773-1.516h-1.797v12.797h1.375c1.875 0 3.25-.544 4.125-1.633s1.312-2.752 1.312-4.992z"/><path d="M90.844 29.74V6.896h6.203V29.74h-6.203z"/><path d="M123.734 29.74h-8.094l-8.344-16.094h-.141c.197 2.531.297 4.463.297 5.797V29.74h-5.469V6.896h8.063l8.313 15.875h.094c-.146-2.302-.219-4.151-.219-5.547V6.896h5.5V29.74z"/><path d="M137.844 16.365h9.859v12.313c-2.678.917-5.62 1.375-8.828 1.375-3.521 0-6.242-1.021-8.164-3.063s-2.883-4.953-2.883-8.734c0-3.688 1.052-6.557 3.156-8.609 2.104-2.052 5.052-3.078 8.844-3.078 1.438 0 2.794.135 4.07.406 1.275.271 2.388.615 3.336 1.031l-1.953 4.844c-1.646-.813-3.453-1.219-5.422-1.219-1.803 0-3.195.586-4.18 1.758s-1.477 2.846-1.477 5.023c0 2.135.445 3.763 1.336 4.883s2.174 1.68 3.852 1.68c.916 0 1.76-.088 2.531-.266V21.13h-4.078v-4.765z"/><path d="M151.234 27.146c0-.958.283-1.698.852-2.219.567-.521 1.393-.781 2.477-.781 1.031 0 1.822.26 2.375.781.552.521.828 1.26.828 2.219 0 .938-.284 1.669-.852 2.195-.568.526-1.352.789-2.352.789-1.031 0-1.844-.26-2.438-.781s-.89-1.255-.89-2.203z"/></g></svg>