<svg xmlns="http://www.w3.org/2000/svg" width="24" height="24"><g fill="#000000"><path d="M21.848 16.974a3.273 3.273 0 0 1-.11-.06l-2.563-1.479-.097-.061c-.319-.195-.656-.388-.974-.388a.896.896 0 0 0-.783.465c-.139.236-.135.461-.132.623l.001.067v.845h-1.879c-.744 0-1.762-.587-2.135-1.232l-4.922-8.51c-.725-1.251-2.423-2.23-3.867-2.23H2.353a1 1 0 1 0 0 2h2.034c.744 0 1.762.587 2.135 1.232l4.922 8.51c.725 1.251 2.423 2.23 3.867 2.23h1.879v1.051a.95.95 0 0 0 1.12.933c.131-.025.308-.105.967-.495l.08-.047 2.66-1.534c.261-.146.747-.417.606-1.103-.096-.465-.521-.686-.775-.817z"/><path d="M13.176 8.246c.373-.646 1.391-1.232 2.135-1.232h1.879v.845l-.001.067c-.003.162-.007.387.132.623a.896.896 0 0 0 .783.465c.317 0 .654-.192.974-.388.038-.023.069-.045.097-.061l2.563-1.479.11-.06c.254-.132.68-.353.775-.818.141-.686-.346-.956-.606-1.103l-2.66-1.534-.08-.047c-.659-.39-.836-.47-.967-.495a.95.95 0 0 0-1.12.933v1.051h-1.879c-1.444 0-3.143.979-3.867 2.23l-.439.761 1.155 1.998 1.016-1.756z"/><path d="M6.521 15.754c-.373.646-1.391 1.232-2.135 1.232H2.353a1 1 0 1 0 0 2h2.034c1.444 0 3.143-.979 3.867-2.23l.439-.761-1.155-1.998-1.017 1.757z"/></g></svg>