{
  "asset": {
    "version": "2.0",
    "generator": "THREE.GLTFExporter"
  },
  "scenes": [
    {
      "nodes": [
        8
      ],
      "name": "Scene"
    }
  ],
  "scene": 0,
  "nodes": [
    {
      "matrix": [
        1,
        0,
        0,
        0,
        0,
        1,
        0,
        0,
        0,
        0,
        1,
        0,
        0,
        9.658959798652944e-9,
        0.21464333087168952,
        1
      ],
      "name": "transp",
      "extras": {
        "name": "transp"
      },
      "mesh": 0
    },
    {
      "name": "transp",
      "extras": {
        "name": "transp"
      },
      "mesh": 1
    },
    {
      "name": "transp",
      "extras": {
        "name": "transp"
      },
      "mesh": 2
    },
    {
      "name": "transp",
      "extras": {
        "name": "transp"
      },
      "children": [
        0,
        1,
        2
      ]
    },
    {
      "name": "lowres_scale",
      "extras": {
        "name": "lowres scale"
      },
      "children": [
        3
      ]
    },
    {
      "matrix": [
        1,
        0,
        0,
        0,
        0,
        4.500004624485854e-8,
        -0.999999999999999,
        0,
        0,
        0.999999999999999,
        4.500004624485854e-8,
        0,
        0,
        0,
        0,
        1
      ],
      "name": "BuddyM9scaled",
      "extras": {
        "name": "BuddyM9scaled"
      },
      "children": [
        4
      ]
    },
    {
      "name": "Default",
      "extras": {
        "name": "Default"
      },
      "children": [
        5
      ]
    },
    {
      "matrix": [
        0.7660444257125132,
        -1.7316120982695696e-7,
        0.6427876168189162,
        0,
        0.16636580437561752,
        0.9659258220984631,
        -0.19826677813262725,
        0,
        -0.620885133743286,
        0.258819043636322,
        0.7399421334266663,
        0,
        -68.88832092285156,
        30.71644401550293,
        82.09796142578125,
        1
      ],
      "name": "active",
      "extras": {
        "name": "active"
      },
      "camera": 0
    },
    {
      "name": "base-teste-1.glb",
      "children": [
        6,
        7
      ]
    }
  ],
  "bufferViews": [
    {
      "buffer": 0,
      "byteOffset": 0,
      "byteLength": 768,
      "target": 34962,
      "byteStride": 12
    },
    {
      "buffer": 0,
      "byteOffset": 768,
      "byteLength": 768,
      "target": 34962,
      "byteStride": 12
    },
    {
      "buffer": 0,
      "byteOffset": 1536,
      "byteLength": 744,
      "target": 34963
    },
    {
      "buffer": 0,
      "byteOffset": 2280,
      "byteLength": 768,
      "target": 34962,
      "byteStride": 12
    },
    {
      "buffer": 0,
      "byteOffset": 3048,
      "byteLength": 768,
      "target": 34962,
      "byteStride": 12
    },
    {
      "buffer": 0,
      "byteOffset": 3816,
      "byteLength": 744,
      "target": 34963
    },
    {
      "buffer": 0,
      "byteOffset": 4560,
      "byteLength": 768,
      "target": 34962,
      "byteStride": 12
    },
    {
      "buffer": 0,
      "byteOffset": 5328,
      "byteLength": 768,
      "target": 34962,
      "byteStride": 12
    },
    {
      "buffer": 0,
      "byteOffset": 6096,
      "byteLength": 744,
      "target": 34963
    }
  ],
  "buffers": [
    {
      "byteLength": 6840,
      "uri": "data:application/octet-stream;base64,"
    }
  ],
  "accessors": [
    {
      "bufferView": 0,
      "componentType": 5126,
      "count": 64,
      "max": [
        0,
        0,
        1
      ],
      "min": [
        0,
        0,
        1
      ],
      "type": "VEC3"
    },
    {
      "bufferView": 1,
      "componentType": 5126,
      "count": 64,
      "max": [
        19.661409378051758,
        12.265074729919434,
        0.5003503561019897
      ],
      "min": [
        -4.868740558624268,
        -12.265074729919434,
        0.5003503561019897
      ],
      "type": "VEC3"
    },
    {
      "bufferView": 2,
      "componentType": 5125,
      "count": 186,
      "max": [
        63
      ],
      "min": [
        0
      ],
      "type": "SCALAR"
    },
    {
      "bufferView": 3,
      "componentType": 5126,
      "count": 64,
      "max": [
        0,
        0,
        1
      ],
      "min": [
        0,
        0,
        1
      ],
      "type": "VEC3"
    },
    {
      "bufferView": 4,
      "componentType": 5126,
      "count": 64,
      "max": [
        30.083913803100586,
        22.687578201293945,
        0.03869948163628578
      ],
      "min": [
        -15.291243553161621,
        -22.687578201293945,
        0.03869948163628578
      ],
      "type": "VEC3"
    },
    {
      "bufferView": 5,
      "componentType": 5125,
      "count": 186,
      "max": [
        63
      ],
      "min": [
        0
      ],
      "type": "SCALAR"
    },
    {
      "bufferView": 6,
      "componentType": 5126,
      "count": 64,
      "max": [
        0,
        0,
        1
      ],
      "min": [
        0,
        0,
        1
      ],
      "type": "VEC3"
    },
    {
      "bufferView": 7,
      "componentType": 5126,
      "count": 64,
      "max": [
        24.88555145263672,
        17.48921775817871,
        0.25176912546157837
      ],
      "min": [
        -10.092883110046387,
        -17.48921775817871,
        0.25176912546157837
      ],
      "type": "VEC3"
    },
    {
      "bufferView": 8,
      "componentType": 5125,
      "count": 186,
      "max": [
        63
      ],
      "min": [
        0
      ],
      "type": "SCALAR"
    }
  ],
  "materials": [
    {
      "pbrMetallicRoughness": {
        "baseColorFactor": [
          0,
          1,
          0.9803919792175293,
          0.27
        ],
        "metallicFactor": 0,
        "roughnessFactor": 0.5
      },
      "emissiveFactor": [
        0,
        1,
        0.9764705882352941
      ],
      "alphaMode": "BLEND",
      "doubleSided": true,
      "name": "tran"
    }
  ],
  "meshes": [
    {
      "primitives": [
        {
          "mode": 4,
          "attributes": {
            "NORMAL": 0,
            "POSITION": 1
          },
          "indices": 2,
          "material": 0
        }
      ]
    },
    {
      "primitives": [
        {
          "mode": 4,
          "attributes": {
            "NORMAL": 3,
            "POSITION": 4
          },
          "indices": 5,
          "material": 0
        }
      ]
    },
    {
      "primitives": [
        {
          "mode": 4,
          "attributes": {
            "NORMAL": 6,
            "POSITION": 7
          },
          "indices": 8,
          "material": 0
        }
      ]
    }
  ],
  "cameras": [
    {
      "type": "perspective",
      "perspective": {
        "aspectRatio": 1.2089715536105032,
        "yfov": 0.6911154697478635,
        "zfar": 146.9256134033203,
        "znear": 81.30242156982422
      },
      "name": "PerspectiveCamera"
    }
  ]
}