<svg data-name="Group 7583" xmlns="http://www.w3.org/2000/svg" width="51.195" height="21.027"><defs><linearGradient id="a" x1=".5" x2=".5" y2="1" gradientUnits="objectBoundingBox"><stop offset="0" stop-color="#77ffb6"/><stop offset=".442" stop-color="#77ffb6"/><stop offset="1" stop-color="#00c08b"/></linearGradient></defs><g data-name="Rectangle 3634" fill="none" stroke="#fff"><rect width="51.195" height="21.027" rx="10.513" stroke="none"/><rect x=".5" y=".5" width="50.195" height="20.027" rx="10.013"/></g><rect data-name="Rectangle 3638" width="45.315" height="16.323" rx="8.161" transform="translate(2.352 2.352)" fill="url(#a)"/><path data-name="Path 5649" d="M21.63 11.532l3.756-7.534a.255.255 0 0 1 .483.11v4.7a.254.254 0 0 0 .264.264l2.174-.066a.259.259 0 0 1 .242.351l-3.624 8.017a.251.251 0 0 1-.483-.11l.022-5.118a.267.267 0 0 0-.264-.264h-2.35a.236.236 0 0 1-.22-.35z" fill="#2c3540"/></svg>