<svg xmlns="http://www.w3.org/2000/svg" width="95.25" height="73.04"><g data-name="itinerary 3" transform="translate(-107.031 -17)" fill="none" stroke="#fff" stroke-width="2"><path data-name="Path 6818" d="M122.434 25.059l-2.756 5.73V44.83l1.07 7.548 1.686 14.233-11.277 6.038-3.122 7.74 3.122 5.806 2 1.327 30.25-3.981 8.733 5.5 3.361-2.844-1.123-2.654h-2.238l-3.223-6.579-7.348-30.579-.92-5 1.716-3.45 8.236-2.588.613-7.372.925-5.567v-4.054h4.123l5.719 5.046 3.466 4.576 9.958 18.413 1.99 1.251 8.728.863h9.952l1.377-2.114-1.377-5 3.215 1.725 1.991 7.763-14.045 17.252-5.859-3.325-4.767 5.481" stroke-linecap="round" stroke-linejoin="round"/><ellipse data-name="Ellipse 15" cx="2.5" cy="3" rx="2.5" ry="3" transform="translate(121.833 18)"/><circle data-name="Ellipse 14" cx="3" cy="3" r="3" transform="translate(171.833 70)"/></g></svg>