<svg xmlns="http://www.w3.org/2000/svg" width="20" height="20"><path fill="none" d="M10.291 13.835c.705.145 1.037.785 1.234 1.168.031.06.061.117.09.166l1.31 2.27C15.893 16.268 18 13.378 18 10c0-4.411-3.589-8-8-8s-8 3.589-8 8c0 3.38 2.109 6.27 5.079 7.439l1.552-2.691c.221-.393.629-1.125 1.66-.913z"/><path fill="#FFF" d="M10 0C4.478 0 0 4.477 0 10a10 10 0 0 0 13.941 9.19C17.504 17.66 20 14.122 20 10c0-5.523-4.477-10-10-10zm2.925 17.438l-1.31-2.27a3.405 3.405 0 0 1-.09-.166c-.197-.383-.529-1.023-1.234-1.168-1.031-.212-1.439.521-1.66.913l-1.552 2.691C4.109 16.27 2 13.38 2 10c0-4.411 3.589-8 8-8s8 3.589 8 8c0 3.378-2.107 6.268-5.075 7.438z"/><path fill="#FFF" d="M6.32 13.52a1 1 0 0 1-.8-.398 5.551 5.551 0 0 1-1.13-3.365A5.613 5.613 0 0 1 9.995 4.15 5.612 5.612 0 0 1 15.6 9.757a5.549 5.549 0 0 1-1.131 3.366 1.002 1.002 0 0 1-1.4.196 1 1 0 0 1-.195-1.401 3.562 3.562 0 0 0 .727-2.161c0-1.989-1.617-3.607-3.605-3.607S6.391 7.767 6.391 9.756c0 .783.252 1.53.728 2.162a1 1 0 0 1-.799 1.602z"/><circle fill="#FFF" cx="10" cy="10" r="1.344"/></svg>