<svg xmlns="http://www.w3.org/2000/svg" width="20" height="20"><g fill="#FFF"><path d="M9.999 2c4.411 0 8 3.589 8 8s-3.589 8-8 8S2 14.411 2 10s3.588-8 7.999-8m0-2C4.477 0 0 4.477 0 10c0 5.522 4.477 10 9.999 10s10-4.478 10-10c0-5.523-4.478-10-10-10z"/><path d="M9.999 8.667a1.334 1.334 0 1 0 .002 2.668 1.334 1.334 0 0 0-.002-2.668z"/><path d="M9.998 6.415c1.977 0 3.584 1.608 3.584 3.585s-1.607 3.584-3.584 3.584c-1.975 0-3.582-1.607-3.582-3.584s1.607-3.585 3.582-3.585m0-2c-3.082 0-5.582 2.5-5.582 5.585a5.583 5.583 0 1 0 11.166 0c0-3.085-2.5-5.585-5.584-5.585z"/></g></svg>