<svg xmlns="http://www.w3.org/2000/svg" width="24" height="24"><path fill="#FFF" d="M5.719 19.452a1 1 0 0 0 1-1v-4.545c.203.144.402.257.568.349l6.607 3.813.199.117c1.635.968 2.076 1.167 2.4 1.228a2.358 2.358 0 0 0 2.784-2.316v-9.68l.002-.165c.008-.405.02-.961-.326-1.549-.375-.638-.91-1.008-1.635-1.13a1.865 1.865 0 0 0-.311-.026h-.002c-.789 0-1.627.479-2.418.968-.094.058-.174.108-.24.146L7.98 9.338a7.875 7.875 0 0 1-.273.147 6.054 6.054 0 0 0-.988.609V5.548a1 1 0 1 0-2 0v12.903a1 1 0 0 0 1 1.001z"/></svg>