<svg xmlns="http://www.w3.org/2000/svg" width="24" height="24"><path fill="#FFF" d="M11.857 5.704c-.373-.638-.908-1.008-1.635-1.13a1.865 1.865 0 0 0-.311-.026c-.789 0-1.628.479-2.419.968-.092.057-.174.108-.239.146L4.125 7.467h-.914c-1.65 0-3 1.35-3 3v3.063c0 1.65 1.35 3 3 3h.925L6.8 18.067l.198.117c1.637.968 2.077 1.167 2.4 1.228a2.357 2.357 0 0 0 2.784-2.316V7.417l.002-.165c.007-.405.019-.96-.327-1.548z"/><path fill="#FFF" d="M14.212 22.958a1 1 0 0 1-.147-1.99c4.404-.661 7.725-4.517 7.725-8.969s-3.32-8.308-7.725-8.969a1 1 0 0 1-.84-1.138 1.007 1.007 0 0 1 1.137-.841c5.374.809 9.427 5.515 9.427 10.949s-4.053 10.14-9.428 10.947a1.056 1.056 0 0 1-.149.011z"/><path fill="#FFF" d="M14.213 19.764a1 1 0 0 1-.216-1.976c2.69-.597 4.644-3.031 4.644-5.788 0-2.758-1.953-5.192-4.644-5.788a1 1 0 1 1 .432-1.953c3.6.797 6.211 4.053 6.211 7.741 0 3.688-2.611 6.943-6.211 7.741a1.065 1.065 0 0 1-.216.023z"/><path fill="#FFF" d="M14.213 19.764a1 1 0 0 1-.216-1.976c2.69-.597 4.644-3.031 4.644-5.788 0-2.758-1.953-5.192-4.644-5.788a1 1 0 1 1 .432-1.953c3.6.797 6.211 4.053 6.211 7.741 0 3.688-2.611 6.943-6.211 7.741a1.065 1.065 0 0 1-.216.023z"/><path fill="#FFF" d="M14.214 16.477a1 1 0 0 1-.398-1.917c1.022-.444 1.683-1.449 1.683-2.561s-.66-2.116-1.683-2.561a1 1 0 0 1 .795-1.834 4.789 4.789 0 0 1 0 8.79.979.979 0 0 1-.397.083z"/><path fill="#FFF" d="M14.214 16.477a1 1 0 0 1-.398-1.917c1.022-.444 1.683-1.449 1.683-2.561s-.66-2.116-1.683-2.561a1 1 0 0 1 .795-1.834 4.789 4.789 0 0 1 0 8.79.979.979 0 0 1-.397.083z"/></svg>