<svg xmlns="http://www.w3.org/2000/svg" width="80.112" height="35.243"><defs><filter id="a" x="0" y="0" width="30.422" height="34.872" filterUnits="userSpaceOnUse"><feOffset dy="3"/><feGaussianBlur stdDeviation="3" result="blur"/><feFlood flood-opacity="0"/><feComposite operator="in" in2="blur"/><feComposite in="SourceGraphic"/></filter><filter id="b" x="12.793" y="5.377" width="30.052" height="29.866" filterUnits="userSpaceOnUse"><feOffset dy="3"/><feGaussianBlur stdDeviation="3" result="blur-2"/><feFlood flood-opacity="0"/><feComposite operator="in" in2="blur-2"/><feComposite in="SourceGraphic"/></filter><filter id="c" x="26.514" y="5.748" width="25.416" height="29.125" filterUnits="userSpaceOnUse"><feOffset dy="3"/><feGaussianBlur stdDeviation="3" result="blur-3"/><feFlood flood-opacity="0"/><feComposite operator="in" in2="blur-3"/><feComposite in="SourceGraphic"/></filter><filter id="d" x="34.672" y="1.669" width="25.787" height="33.574" filterUnits="userSpaceOnUse"><feOffset dy="3"/><feGaussianBlur stdDeviation="3" result="blur-4"/><feFlood flood-opacity="0"/><feComposite operator="in" in2="blur-4"/><feComposite in="SourceGraphic"/></filter><filter id="e" x="43.757" y="5.377" width="30.052" height="29.866" filterUnits="userSpaceOnUse"><feOffset dy="3"/><feGaussianBlur stdDeviation="3" result="blur-5"/><feFlood flood-opacity="0"/><feComposite operator="in" in2="blur-5"/><feComposite in="SourceGraphic"/></filter><filter id="f" x="57.292" y="12.237" width="22.821" height="22.821" filterUnits="userSpaceOnUse"><feOffset dy="3"/><feGaussianBlur stdDeviation="3" result="blur-6"/><feFlood flood-opacity="0"/><feComposite operator="in" in2="blur-6"/><feComposite in="SourceGraphic"/></filter></defs><g data-name="Group 7067"><g filter="url(#a)"><path data-name="Path 8223" d="M13.079 22.872H9V6h6.119c4.264 0 6.3 2.6 6.3 5.748s-2.225 5.933-6.3 5.933h-2.04zm0-13.35v4.45h1.112c1.669 0 2.967-.556 2.967-2.225s-1.298-2.224-2.967-2.224h-1.112z" fill="#fff"/></g><g filter="url(#b)"><path data-name="Path 8224" d="M21.79 17.313a5.857 5.857 0 0 1 5.933-5.933 5.936 5.936 0 1 1 0 11.866 5.857 5.857 0 0 1-5.933-5.933zm3.894 0a2.3 2.3 0 0 0 2.225 2.41 2.3 2.3 0 0 0 2.225-2.41 2.232 2.232 0 1 0-4.45 0z" fill="#fff"/></g><g filter="url(#c)"><path data-name="Path 8225" d="M42.926 15.644h-1.483c-1.669 0-2.04.556-2.04 2.04v5.191H35.51V11.75h3.708v1.854a2.854 2.854 0 0 1 2.781-1.854 1.671 1.671 0 0 1 .927.185z" fill="#fff"/></g><g filter="url(#d)"><path data-name="Path 8226" d="M49.232 7.67v4.079h2.225v3.337h-2.225v3.894c0 .742.556.742.927.742h1.3v3.337s-1.854.185-2.781.185c-1.854 0-3.337-.556-3.337-2.781v-5.562H43.67v-3.152h1.669V7.67z" fill="#fff"/></g><g filter="url(#e)"><path data-name="Path 8227" d="M52.76 17.313a6.027 6.027 0 0 1 12.052 0 5.9 5.9 0 0 1-6.119 5.933 5.974 5.974 0 0 1-5.933-5.933zm3.894 0a2.232 2.232 0 1 0 4.45 0 2.232 2.232 0 1 0-4.45 0z" fill="#fff"/></g><g filter="url(#f)"><path data-name="Path 8228" d="M68.7 18.24a2.41 2.41 0 1 1-2.41 2.41 2.454 2.454 0 0 1 2.41-2.41z" fill="#fff"/></g></g></svg>