<svg xmlns="http://www.w3.org/2000/svg" width="99" height="70.04"><g data-name="itinerary 4" transform="translate(-103.833 -20)" fill="none" stroke="#fff" stroke-width="2"><path data-name="Path 6819" d="M111.159 25.091l8.521 5.7 7.205 5.729h5.236l1.792 1.411 1.194 3.45-1.194 6.254-1 3.235 10.492 32.672 8.734 5.5 3.361-2.844h5.078l2.389-2.654-.987-4.323-10.767-2.256.926-3.632 2.237-4.205 2.819-6.448 2.588-5.607.795-3.925-1.592-5.512.8-6.254.795-4.861 2.389-2.156h2.479l2.5 7.017 7.461 5 1.989 1.251 4.682 1.587 3.384-1.587 3.582-1.251 2.389-3.278 4.645-1.725 3.214 1.725 1.991 7.763v10.127l-1.991 5.046v8.971" stroke-linecap="round" stroke-linejoin="round"/><circle data-name="Ellipse 17" cx="3" cy="3" r="3" transform="translate(104.833 21)"/><circle data-name="Ellipse 16" cx="3" cy="3" r="3" transform="translate(195.833 75)"/></g></svg>