<svg xmlns="http://www.w3.org/2000/svg" width="24" height="24"><path fill="#FFF" d="M18.281 4.548a1 1 0 0 0-1 1v4.545a5.683 5.683 0 0 0-.568-.349l-6.607-3.813-.198-.116C8.271 4.847 7.83 4.648 7.506 4.587a2.358 2.358 0 0 0-2.784 2.316v9.678l-.002.165c-.008.405-.018.961.326 1.549.375.638.91 1.008 1.635 1.13.102.017.205.026.313.026.789 0 1.627-.479 2.418-.968.094-.058.174-.108.24-.146l6.367-3.676c.082-.047.176-.096.275-.146a6.13 6.13 0 0 0 .986-.609v4.546a1 1 0 1 0 2 0V5.548a.998.998 0 0 0-.999-1z"/></svg>