<svg xmlns="http://www.w3.org/2000/svg" width="100" height="100"><path fill="#FFF" d="M39.88 39.287c0-1.291.956-2.287 2.195-2.287h8.846c3.112 0 5.556.959 7.146 2.582 1.31 1.402 2.053 3.319 2.053 5.569v.074c0 4.13-2.301 6.638-5.627 7.708l4.743 6.232c.424.553.707 1.033.707 1.733a2.093 2.093 0 0 1-2.087 2.103c-.992 0-1.629-.479-2.125-1.18l-6.015-8.003h-5.484v6.934c0 1.253-.956 2.25-2.157 2.25-1.239 0-2.195-.996-2.195-2.25V39.287zm10.722 10.51c3.113 0 5.096-1.697 5.096-4.315v-.074c0-2.766-1.912-4.277-5.132-4.277h-6.333v8.667h6.369z"/></svg>