<svg xmlns="http://www.w3.org/2000/svg" width="20" height="20"><g fill="#FFF"><path d="M15.057 10.285c-.147.717-.8 1.056-1.188 1.257a3.12 3.12 0 0 0-.169.091l-3.933 2.271c-.041.023-.091.055-.148.09-.489.303-1.006.598-1.493.598-.066 0-.131-.006-.193-.017a1.375 1.375 0 0 1-1.009-.697c-.214-.362-.206-.706-.202-.957l.002-.102V6.842a1.455 1.455 0 0 1 1.719-1.43c.199.036.472.16 1.482.758l.122.072 4.081 2.354c.399.223 1.144.639.929 1.689z"/><path d="M9.999 2c4.411 0 8 3.589 8 8s-3.589 8-8 8S2 14.411 2 10s3.588-8 7.999-8m0-2C4.477 0 0 4.477 0 10c0 5.522 4.477 10 9.999 10s10-4.478 10-10c0-5.523-4.478-10-10-10z"/></g></svg>