<svg xmlns="http://www.w3.org/2000/svg" width="98" height="43.39"><g transform="translate(-112.833 -31)" fill="none" stroke="#fff" stroke-width="2"><path data-name="Path 6807" d="M115.367 66.777h-.926l.263 1.743 1.693 2.563 2.634 1.794 3.718.512h8.232l2.019-.512 2.448-1.474 6.819-6.023 4.468-3.716 3.764-2.563 1.74-1.409 1.177-2.05 1.975-3.4.989-1.346 1.268-.833 1.741-.513 5.689-1.41 1.129-.577 1.132-1.025.8-1.6 3.1-6.407 1.74-3.14 1.553-1.922 1.694-1.025 1.551-.449h1.837l1.833.833 4.187 3.076.941 1.153 1.034 1.802 1.551 5.126 1.762 5.441 1.413 2.215 1.653 1.344 13.446.88h1.828v-2.223l-.913-3.491" stroke-linecap="round" stroke-linejoin="round"/><circle data-name="Ellipse 9" cx="3" cy="3" r="3" transform="translate(113.833 60)"/><circle data-name="Ellipse 11" cx="3" cy="3" r="3" transform="translate(203.833 42)"/></g></svg>