<svg data-name="Group 7614" xmlns="http://www.w3.org/2000/svg" width="42" height="42"><circle cx="21" cy="21" r="21" fill="#ff635e"/><path data-name="Icon feather-message-circle" d="M31.674 20.422a9.663 9.663 0 0 1-1.038 4.382 9.8 9.8 0 0 1-8.764 5.42 9.663 9.663 0 0 1-4.382-1.038l-6.572 2.192 2.191-6.573a9.663 9.663 0 0 1-1.038-4.383 9.8 9.8 0 0 1 5.42-8.764 9.663 9.663 0 0 1 4.382-1.036h.577a9.779 9.779 0 0 1 9.225 9.225z" fill="none" stroke="#fff" stroke-linecap="round" stroke-linejoin="round" stroke-width="3"/></svg>