<svg data-name="Group 7581" xmlns="http://www.w3.org/2000/svg" width="21.6" height="28.635"><path data-name="Subtraction 81" d="M14.678 28.635a2.482 2.482 0 0 1-1.571-.466 2.084 2.084 0 0 1-.428-1.123 9.6 9.6 0 0 1-2.157.239 9.338 9.338 0 0 1-1.132-.065 2.388 2.388 0 0 1-.364.909 2.013 2.013 0 0 1-1.511.506 2.4 2.4 0 0 1-1.56-.466 3.776 3.776 0 0 1-.5-2.289 7.01 7.01 0 0 1-1.495-1.213c-2.008-.069-2.481-1.072-2.529-1.187a.492.492 0 0 1 0-.372.476.476 0 0 1 .267-.259 1.072 1.072 0 0 0 .42-.307c-1.35-.056-1.641-.431-1.737-.553-.541-.671-.527-2.9.174-3.475a1.525 1.525 0 0 1 1.014-.279h.327a.715.715 0 0 0 .319-.036 1.892 1.892 0 0 0 .416-.688l.012-.023a5.125 5.125 0 0 1 1.382-1.959 3.061 3.061 0 0 0-.937-1.7.489.489 0 0 1-.129-.464.5.5 0 0 1 .335-.348 5.832 5.832 0 0 1 1.571-.234 3.768 3.768 0 0 1 2.355.763 9.763 9.763 0 0 1 3.3-.564 8.706 8.706 0 0 1 7.667 4.148 2.75 2.75 0 0 1 1.168-.537 2.5 2.5 0 0 1 1.208-.918.543.543 0 0 1 .166-.027.494.494 0 0 1 .457.315.484.484 0 0 1-.287.621 1.751 1.751 0 0 0-.291.139 1.544 1.544 0 0 1 .937.981 1.254 1.254 0 0 1-.445 1.416 1.328 1.328 0 0 1-.78.25 1.277 1.277 0 0 1-.707-.209 1.552 1.552 0 0 1-.638-1.394 2.224 2.224 0 0 0-.372.295 6.056 6.056 0 0 1 .364 2.076 6.57 6.57 0 0 1-2.315 4.916c.028.715.039 2.446-.469 3.074a2.007 2.007 0 0 1-1.505.507zm-1.587-2.676a.52.52 0 0 1 .283.086.5.5 0 0 1 .206.363 3.407 3.407 0 0 0 .222 1.086 1.7 1.7 0 0 0 .876.171 1.39 1.39 0 0 0 .752-.146 6.333 6.333 0 0 0 .242-2.645.485.485 0 0 1 .174-.4A5.647 5.647 0 0 0 18 20.139c0-3.408-3.356-6.182-7.482-6.182a8.833 8.833 0 0 0-3.224.6.45.45 0 0 1-.177.037.5.5 0 0 1-.384-.19 2.691 2.691 0 0 0-1.85-.65 4.533 4.533 0 0 0-.558.036 3.9 3.9 0 0 1 .695 1.823.477.477 0 0 1-.166.488 4.2 4.2 0 0 0-1.325 1.781v.013a2.768 2.768 0 0 1-.679 1.043 1.369 1.369 0 0 1-.949.271h-.327a.862.862 0 0 0-.4.057 3.154 3.154 0 0 0-.04 2.12 2.99 2.99 0 0 0 1.378.2h.307a.493.493 0 0 1 .331.134.464.464 0 0 1 .15.348 1.82 1.82 0 0 1-.646 1.325 2.986 2.986 0 0 0 1.527.314.5.5 0 0 1 .368.17 5.934 5.934 0 0 0 1.609 1.283.475.475 0 0 1 .271.452 4.65 4.65 0 0 0 .214 1.875 1.607 1.607 0 0 0 .873.178 1.372 1.372 0 0 0 .763-.15 3.737 3.737 0 0 0 .25-.912.483.483 0 0 1 .477-.4.539.539 0 0 1 .077 0 9.112 9.112 0 0 0 1.438.117 8.836 8.836 0 0 0 2.444-.343h.017a.529.529 0 0 1 .109-.018zm6.888-8.405a.857.857 0 0 0-.032.152.715.715 0 0 0 .2.651.3.3 0 0 0 .17.049.341.341 0 0 0 .214-.069c.042-.03.153-.108.081-.367a.725.725 0 0 0-.569-.409h-.023a.171.171 0 0 0-.042-.007zm-9.1-5.563a2.929 2.929 0 1 1 0-5.857c.066 0 .131 0 .2.007A2.3 2.3 0 1 1 13.8 8.859V8.9c0 .049.007.1.007.162a2.933 2.933 0 0 1-2.93 2.928zm-.042-1.891a1.1 1.1 0 0 0 1.377-.2.554.554 0 0 0 .174.024.512.512 0 1 0 0-1.018.714.714 0 0 0-.081 0 1.056 1.056 0 0 0-.9-.476.75.75 0 0 0-.1 0 1.028 1.028 0 0 0-.953-.591.972.972 0 0 0-1.022.909v.044a.1.1 0 0 1 0 .032h-.047a.476.476 0 1 0 0 .945h.028a.488.488 0 0 0 .461.292.165.165 0 0 0 .048 0 .811.811 0 0 0 .525.187.825.825 0 0 0 .488-.157zm2.25-4.829a.751.751 0 0 0-.707.788v.064h-.028a.388.388 0 0 0-.368.393 2.759 2.759 0 0 1 1.079.836h.024a.521.521 0 0 0 .339-.133.632.632 0 0 0 .391.133.678.678 0 0 0 .562-.3.394.394 0 0 0 .117.02.445.445 0 0 0 0-.884.257.257 0 0 0-.052.008.7.7 0 0 0-.626-.416H13.746a.711.711 0 0 0-.659-.505zM9.71 5.232a.486.486 0 0 1-.485-.485v-2.3a.485.485 0 1 1 .969 0v2.3a.486.486 0 0 1-.484.485zm1.967-1.438a.486.486 0 0 1-.485-.485V.484a.485.485 0 0 1 .969 0v2.825a.486.486 0 0 1-.484.485zm1.968-.364a.484.484 0 0 1-.481-.485V1.632a.483.483 0 1 1 .966 0v1.312a.486.486 0 0 1-.486.486z" fill="#77ffb6"/></svg>