<svg xmlns="http://www.w3.org/2000/svg" width="302.959" height="122.983"><g data-name="Layer 2"><g data-name="Layer 1" fill="#fff"><path d="M80.985 37.3a2.475 2.475 0 0 1 2.41-2.41h53.875a2.475 2.475 0 0 1 2.41 2.41V51.28a2.475 2.475 0 0 1-2.41 2.41h-35.853v9.669l24.646-.037a2.475 2.475 0 0 1 2.41 2.41v13.98a2.476 2.476 0 0 1-2.41 2.41l-24.646.036v10.18h36.364a2.476 2.476 0 0 1 2.41 2.41v13.978a2.474 2.474 0 0 1-2.41 2.41H83.396a2.474 2.474 0 0 1-2.41-2.41z" fill-rule="evenodd"/><path d="M80.985 37.3a2.475 2.475 0 0 1 2.41-2.41h53.875a2.475 2.475 0 0 1 2.41 2.41V51.28a2.475 2.475 0 0 1-2.41 2.41h-35.853v9.669l24.646-.037a2.475 2.475 0 0 1 2.41 2.41v13.98a2.476 2.476 0 0 1-2.41 2.41l-24.646.036v10.18h36.364a2.476 2.476 0 0 1 2.41 2.41v13.978a2.474 2.474 0 0 1-2.41 2.41H83.396a2.474 2.474 0 0 1-2.41-2.41z" fill-rule="evenodd"/><path d="M175.392 122.983h-17.869a3.682 3.682 0 0 1-3.639-3.638V66.61h-3.289a3.11 3.11 0 0 1-3.111-3.11 2.993 2.993 0 0 1 .21-1.126l10.49-24.7c.667-1.488 1.85-2.783 3.532-2.783h13.776a3.683 3.683 0 0 1 3.638 3.638l-.106 80.831a3.665 3.665 0 0 1-3.632 3.623"/><path d="M154.144 13.695A13.695 13.695 0 1 1 167.84 27.39a13.695 13.695 0 0 1-13.695-13.695" fill-rule="evenodd"/><path d="M191.917 34.89h17.869a3.682 3.682 0 0 1 3.637 3.64v52.733h3.291a3.112 3.112 0 0 1 3.112 3.11 2.98 2.98 0 0 1-.211 1.127l-10.489 24.7c-.668 1.487-1.85 2.782-3.533 2.782h-13.775a3.682 3.682 0 0 1-3.639-3.637l.106-80.83a3.665 3.665 0 0 1 3.633-3.625"/><path d="M187.207 13.695a13.695 13.695 0 1 1 13.695 13.695 13.694 13.694 0 0 1-13.695-13.695" fill-rule="evenodd"/><path d="M268.867 76.649l-5.858-14.299-5.857 14.299zm7.742 18.573H249.41l-5.827 14.294a2.41 2.41 0 0 1-2.269 1.62h-15.757a2.497 2.497 0 0 1-2.497-2.498 2.192 2.192 0 0 1 .138-.835l30.407-71.456a2.52 2.52 0 0 1 2.29-1.457h14.227a2.522 2.522 0 0 1 2.291 1.457l30.407 71.456a2.175 2.175 0 0 1 .139.835 2.498 2.498 0 0 1-2.498 2.497h-15.756a2.409 2.409 0 0 1-2.27-1.619z"/><path d="M0 73.077c0-21.981 16.637-40.055 40.37-40.055 14.41 0 23.22 4.866 30.39 11.926a2.607 2.607 0 0 1 .133 3.356L60.712 60.04a2.493 2.493 0 0 1-3.503.21c-5.347-4.853-10.498-7.57-16.943-7.57-10.694 0-18.634 9.065-18.634 20.394s7.94 20.396 18.634 20.396c6.445 0 11.596-2.719 16.943-7.57a2.492 2.492 0 0 1 3.503.209l10.181 11.737a2.61 2.61 0 0 1-.132 3.358c-7.171 7.06-15.981 11.923-30.392 11.923C16.637 113.128 0 95.056 0 73.077"/></g></g></svg>