<svg xmlns="http://www.w3.org/2000/svg" width="40" height="40"><g fill="#FFF"><path d="M20 2.088c9.877 0 17.912 8.035 17.912 17.912S29.877 37.912 20 37.912 2.088 29.877 2.088 20 10.123 2.088 20 2.088m0-2C9.003.088.088 9.003.088 20 .088 30.996 9.003 39.912 20 39.912S39.912 30.996 39.912 20C39.912 9.003 30.997.088 20 .088z"/><path d="M28.978 20.553c-.268 1.301-1.449 1.914-2.156 2.28-.11.057-.215.111-.307.164l-7.132 4.117c-.074.043-.165.1-.27.164-.886.548-1.825 1.084-2.709 1.084h-.001c-.118 0-.236-.011-.348-.029-.813-.137-1.412-.552-1.831-1.266-.387-.658-.374-1.281-.366-1.735l.003-.185v-10.84a2.64 2.64 0 0 1 3.117-2.595c.362.067.856.291 2.689 1.375l.222.131 7.402 4.271c.727.406 2.079 1.16 1.687 3.064z"/></g></svg>