<svg xmlns="http://www.w3.org/2000/svg" width="106.5" height="102.4"><defs><linearGradient id="b" x1=".5" x2=".5" y2="-.583" gradientUnits="objectBoundingBox"><stop offset="0" stop-color="#fff"/><stop offset=".435" stop-color="#fff"/><stop offset="1" stop-color="#89d227"/></linearGradient><filter id="a" x="0" y="0" width="106.5" height="102.4" filterUnits="userSpaceOnUse"><feOffset dy="2"/><feGaussianBlur stdDeviation="5" result="blur"/><feFlood flood-color="#1b223b" flood-opacity=".388"/><feComposite operator="in" in2="blur"/><feComposite in="SourceGraphic"/></filter></defs><g filter="url(#a)"><path data-name="Path 8615" d="M38.2 0C17.094 0 0 16.2 0 36.2c0 19.3 15.933 35.1 36.087 36.2v-9c0-8.6-5.381-15.3-10.552-19.7-2.954 2.4-7.281 2.5-12.346-1.5C7.386 37.6 5.7 25.8 5.7 25.8s12.557-.5 18.36 4.1c4.643 3.7 5.487 7.3 4.221 10.4a41.975 41.975 0 0 1 7.914 8.8v-9.9c-4.432-.8-7.7-4.2-7.7-11.4 0-8.3 9.708-18.4 9.708-18.4S47.9 19.5 47.9 27.8c0 7.1-3.166 10.6-7.492 11.4v9.9a36.879 36.879 0 0 1 7.914-8.8c-1.372-3-.422-6.7 4.221-10.4 5.8-4.6 18.36-4.1 18.36-4.1s-1.794 11.8-7.6 16.4c-5.065 4.1-9.391 3.9-12.346 1.5-5.17 4.4-10.552 11.1-10.552 19.7v9C60.567 71.3 76.5 55.5 76.5 36.2 76.5 16.2 59.3 0 38.2 0z" transform="translate(15 13)" fill="url(#b)"/></g></svg>