<svg xmlns="http://www.w3.org/2000/svg" width="100" height="100"><path fill="#ffffff" d="M42.944 61c-.13 0-.255-.011-.373-.031-.944-.16-1.611-.621-2.098-1.449-.445-.76-.431-1.489-.42-2.076l.004-.272V42.021c0-1.847 1.673-3.32 3.57-2.97.469.087 1.357.549 3.525 1.832l10.686 6.168c.986.551 2.478 1.384 2.028 3.564-.31 1.509-1.729 2.244-2.667 2.73-.165.085-.321.166-.457.244l-9.969 5.755c-.106.061-.239.144-.391.238C45.226 60.3 44.006 61 42.944 61zm.131-20a1.02 1.02 0 0 0-1.018 1.021l-.004 15.463c-.01.495-.008.765.145 1.025.191.326.337.426.708.489l.038.002c.581 0 1.846-.784 2.386-1.118.173-.106.323-.2.444-.27l9.969-5.755c.159-.092.342-.187.536-.288.674-.349 1.511-.783 1.629-1.357.144-.696-.013-.839-1.045-1.416l-4.98-2.871-5.748-3.323c-2.045-1.21-2.71-1.536-2.908-1.595-.026-.001-.089-.007-.152-.007z"/></svg>