<svg xmlns="http://www.w3.org/2000/svg" width="100" height="100"><path fill="#ffffff" d="M42.197 55.235h-1.939a2.502 2.502 0 0 1-1.945-.896c-.544-.644-.768-1.541-.612-2.462l1.653-9.851C39.639 40.329 41.209 39 42.93 39h14.167c1.721 0 3.291 1.329 3.576 3.026l1.661 9.896a1.001 1.001 0 0 1-.82 1.152.996.996 0 0 1-1.152-.821L58.7 42.357c-.121-.723-.87-1.357-1.603-1.357H42.93c-.733 0-1.482.634-1.604 1.357l-1.653 9.852c-.058.34.003.646.167.839a.515.515 0 0 0 .418.187h1.939a1 1 0 1 1 0 2z"/><path fill="#ffffff" d="M44.235 61a1 1 0 0 1-.65-1.761c3.324-2.84 2.5-5.302 1.179-7.997-1.072-2.181-1.529-3.717-1.529-5.135a1 1 0 1 1 2 0c0 1.093.396 2.365 1.324 4.254 1.084 2.209 3.101 6.32-1.675 10.399a.993.993 0 0 1-.649.24z"/><path fill="#ffffff" d="M49.837 61a1 1 0 0 1-.65-1.761c3.326-2.84 2.501-5.302 1.179-7.997-1.072-2.183-1.529-3.719-1.529-5.135a1 1 0 1 1 2 0c0 1.091.396 2.363 1.324 4.254 1.084 2.208 3.103 6.319-1.675 10.398a.99.99 0 0 1-.649.241z"/><path fill="#ffffff" d="M55.4 61a1 1 0 0 1-.65-1.761c3.325-2.84 2.501-5.302 1.178-7.997-1.071-2.184-1.528-3.72-1.528-5.135a1 1 0 1 1 2 0c0 1.09.396 2.363 1.323 4.254 1.084 2.208 3.103 6.319-1.674 10.398A.989.989 0 0 1 55.4 61z"/></svg>