<svg xmlns="http://www.w3.org/2000/svg" width="100" height="100"><g fill="#543cfb"><path d="M38.035 42.231a1.126 1.126 0 0 0-1.007-.627c-.416 0-.802.24-1.007.626l-7.066 14.558a1.103 1.103 0 0 0 .334 1.387c.187.146.424.225.672.225.309 0 .549-.094.736-.289a.88.88 0 0 0 .151-.215c.669-1.351 5.616-11.474 6.18-12.624l3.28 6.707.051-.026 1.167 2.356.83 1.711.775 1.732c.132.265.372.47.655.562.282.092.584.067.843-.069.269-.129.472-.356.567-.638a1.07 1.07 0 0 0-.053-.838l-7.108-14.538z"/><path d="M56.095 41.784c-.25-.163-.546-.22-.839-.163a1.094 1.094 0 0 0-.703.471l-4.795 6.067-4.769-6.063a1.088 1.088 0 0 0-.704-.476c-.291-.058-.589 0-.84.164a1.139 1.139 0 0 0-.31 1.567l5.505 7.148v6.782c0 .605.513 1.119 1.117 1.119a1.12 1.12 0 0 0 1.122-1.119V50.5l5.527-7.148.002-.003c.34-.52.202-1.207-.313-1.565"/><path d="M70.225 46.582c-.065-.69-.197-1.267-.399-1.759-.267-.686-.642-1.264-1.116-1.719a5.16 5.16 0 0 0-2.404-1.33 5.247 5.247 0 0 0-1.266-.172h-6.305c-.626 0-1.117.492-1.117 1.119V57.28a1.12 1.12 0 0 0 2.238 0V43.84h5.184c.008 0 .805.005 1.563.438.415.249.728.561.955.955.287.497.436 1.119.457 1.898-.021.781-.17 1.403-.457 1.9-.228.395-.54.707-.954.956a3.554 3.554 0 0 1-1.563.438H60.72l1.211 2.236h3.11c.181 0 .667-.016 1.266-.172.935-.233 1.768-.693 2.402-1.33.477-.455.852-1.034 1.118-1.717.21-.511.344-1.104.398-1.757a7.106 7.106 0 0 0 0-1.103"/><path d="M43.895 49.161a1.083 1.083 0 0 0-.826-.147c-.391.085-.791.182-1.182.284-5.059 1.321-9.472 3.827-12.76 7.246a1.092 1.092 0 0 0 .03 1.552c.204.197.474.306.761.306.369 0 .633-.104.856-.336 3.021-3.143 7.058-5.442 11.666-6.646.368-.094.737-.184 1.099-.262a1.097 1.097 0 0 0 .356-1.997"/><path d="M70.873 56.544c-3.389-3.524-7.953-6.068-13.194-7.357a30.681 30.681 0 0 0-1.162-.262 1.08 1.08 0 0 0-.823.158 1.087 1.087 0 0 0-.473.695 1.1 1.1 0 0 0 .854 1.297c.354.073.721.154 1.082.244 4.837 1.189 9.034 3.521 12.137 6.747.208.217.489.336.791.336a1.092 1.092 0 0 0 1.096-1.075 1.103 1.103 0 0 0-.308-.783"/></g></svg>